<?xml version="1.0" standalone="no"?>
<!DOCTYPE svg PUBLIC "-//W3C//DTD SVG 1.1//EN" "http://www.w3.org/Graphics/SVG/1.1/DTD/svg11.dtd" >
<svg>
<metadata>
Created by FontForge 20090914 at Wed Nov 24 20:39:21 2021
 By www-data
Copyright 2019 The Lexend Project Authors (https://github.com/googlefonts/lexend)
</metadata>
<defs>
<font id="LexendDeca-Bold" horiz-adv-x="0" >
  <font-face 
    font-family="Lexend Deca"
    font-weight="700"
    font-stretch="normal"
    units-per-em="1000"
    panose-1="0 0 0 0 0 0 0 0 0 0"
    ascent="800"
    descent="-200"
    x-height="531"
    cap-height="700"
    bbox="-214.999 -294.002 1405 1149"
    underline-thickness="50"
    underline-position="-75"
    unicode-range="U+000D-U+FB02"
  />
<missing-glyph horiz-adv-x="584" 
d="M75 0c-23.333 0 -35 11.667 -35 35v630c0 23.333 11.667 35 35 35h434c23.333 0 35 -11.667 35 -35v-630c0 -23.333 -11.667 -35 -35 -35h-434zM75 30l412.998 0.000976562c2 0 3.33301 0.666992 4 2s0.333984 2.66602 -0.999023 3.99902l-415 599
c-1.33301 2 -2.66602 2.83301 -3.99902 2.5s-2 -1.83301 -2 -4.5v-598c0 -3.33301 1.66699 -5 5 -5zM507.998 65.001c1.33301 -2 2.66797 -2.83398 4.00098 -2.50098s2 1.83301 2 4.5v598c0 3.33301 -1.66699 5 -5 5h-414c-2 0 -3.33301 -0.666992 -4 -2
s-0.333984 -2.66602 0.999023 -3.99902z" />
    <glyph glyph-name="fi" unicode="fi" horiz-adv-x="712" 
d="M104 0l0.000976562 556.998c0 34.667 7.5 66 22.5 94s36 50.167 63 66.5s58.5 24.5 94.5 24.5c25.333 0 48.666 -3.66699 69.999 -11s40.333 -17.666 57 -30.999l-46 -117c-8.66699 4.66699 -17 8.33398 -25 11.001s-15.333 4 -22 4c-12 0 -22 -2 -30 -6
s-13.833 -10.167 -17.5 -18.5s-5.5 -18.5 -5.5 -30.5v-543h-80h-47.5h-33.5zM27.001 383.998v132h347v-132h-347zM473.001 -0.00195312v531h160v-531h-160zM553.001 635.998c-30 0 -53.499 7.16699 -70.499 21.5s-25.5 34.833 -25.5 61.5c0 24 8.66699 43.667 26 59
s40.666 23 69.999 23c30 0 53.333 -7.16699 70 -21.5s25 -34.5 25 -60.5c0 -24.667 -8.5 -44.667 -25.5 -60s-40.167 -23 -69.5 -23z" />
    <glyph glyph-name="fl" unicode="fl" horiz-adv-x="697" 
d="M104 0l0.000976562 556.998c0 34.667 7.5 66 22.5 94s36 50.167 63 66.5s58.5 24.5 94.5 24.5c25.333 0 48.666 -3.66699 69.999 -11s40.333 -17.666 57 -30.999l-46 -117c-8.66699 4.66699 -17 8.33398 -25 11.001s-15.333 4 -22 4c-12 0 -22 -2 -30 -6
s-13.833 -10.167 -17.5 -18.5s-5.5 -18.5 -5.5 -30.5v-543h-80h-47.5h-33.5zM27.001 383.998v132h347v-132h-347zM465.001 -0.00195312v740h160v-740h-160z" />
    <glyph glyph-name="f_f" unicode="ff" horiz-adv-x="786" 
d="M104 0l0.000976562 556.998c0 34.667 7.5 66 22.5 94s36 50.167 63 66.5s58.5 24.5 94.5 24.5c25.333 0 48.666 -3.66699 69.999 -11s40.333 -17.666 57 -30.999l-46 -117c-8.66699 4.66699 -17 8.33398 -25 11.001s-15.333 4 -22 4c-12 0 -22 -2 -30 -6
s-13.833 -10.167 -17.5 -18.5s-5.5 -18.5 -5.5 -30.5v-543h-80h-47.5h-33.5zM27.001 383.998v132h347v-132h-347zM497.001 -0.00195312l0.000976562 556.998c0 34.667 7.5 66 22.5 94s36 50.167 63 66.5s58.5 24.5 94.5 24.5c25.333 0 48.666 -3.66699 69.999 -11
s40.333 -17.666 57 -30.999l-46 -117c-8.66699 4.66699 -17 8.33398 -25 11.001s-15.333 4 -22 4c-12 0 -22 -2 -30 -6s-13.833 -10.167 -17.5 -18.5s-5.5 -18.5 -5.5 -30.5v-543h-80h-47.5h-33.5zM420.002 383.996v132h347v-132h-347z" />
    <glyph glyph-name="f_f_i" unicode="ffi" horiz-adv-x="1105" 
d="M104 0l0.000976562 556.998c0 34.667 7.5 66 22.5 94s36 50.167 63 66.5s58.5 24.5 94.5 24.5c25.333 0 48.666 -3.66699 69.999 -11s40.333 -17.666 57 -30.999l-46 -117c-8.66699 4.66699 -17 8.33398 -25 11.001s-15.333 4 -22 4c-12 0 -22 -2 -30 -6
s-13.833 -10.167 -17.5 -18.5s-5.5 -18.5 -5.5 -30.5v-543h-80h-47.5h-33.5zM27.001 383.998v132h347v-132h-347zM497.001 -0.00195312l0.000976562 556.998c0 34.667 7.5 66 22.5 94s36 50.167 63 66.5s58.5 24.5 94.5 24.5c25.333 0 48.666 -3.66699 69.999 -11
s40.333 -17.666 57 -30.999l-46 -117c-8.66699 4.66699 -17 8.33398 -25 11.001s-15.333 4 -22 4c-12 0 -22 -2 -30 -6s-13.833 -10.167 -17.5 -18.5s-5.5 -18.5 -5.5 -30.5v-543h-80h-47.5h-33.5zM420.002 383.996v132h347v-132h-347zM866.002 -0.00390625v531h160v-531
h-160zM946.002 635.996c-30 0 -53.499 7.16699 -70.499 21.5s-25.5 34.833 -25.5 61.5c0 24 8.66699 43.667 26 59s40.666 23 69.999 23c30 0 53.333 -7.16699 70 -21.5s25 -34.5 25 -60.5c0 -24.667 -8.5 -44.667 -25.5 -60s-40.167 -23 -69.5 -23z" />
    <glyph glyph-name="f_f_l" unicode="ffl" horiz-adv-x="1090" 
d="M104 0l0.000976562 556.998c0 34.667 7.5 66 22.5 94s36 50.167 63 66.5s58.5 24.5 94.5 24.5c25.333 0 48.666 -3.66699 69.999 -11s40.333 -17.666 57 -30.999l-46 -117c-8.66699 4.66699 -17 8.33398 -25 11.001s-15.333 4 -22 4c-12 0 -22 -2 -30 -6
s-13.833 -10.167 -17.5 -18.5s-5.5 -18.5 -5.5 -30.5v-543h-80h-47.5h-33.5zM27.001 383.998v132h347v-132h-347zM497.001 -0.00195312l0.000976562 556.998c0 34.667 7.5 66 22.5 94s36 50.167 63 66.5s58.5 24.5 94.5 24.5c25.333 0 48.666 -3.66699 69.999 -11
s40.333 -17.666 57 -30.999l-46 -117c-8.66699 4.66699 -17 8.33398 -25 11.001s-15.333 4 -22 4c-12 0 -22 -2 -30 -6s-13.833 -10.167 -17.5 -18.5s-5.5 -18.5 -5.5 -30.5v-543h-80h-47.5h-33.5zM420.002 383.996v132h347v-132h-347zM858.002 -0.00390625v740h160v-740
h-160z" />
    <glyph glyph-name=".notdef" horiz-adv-x="584" 
d="M75 0c-23.333 0 -35 11.667 -35 35v630c0 23.333 11.667 35 35 35h434c23.333 0 35 -11.667 35 -35v-630c0 -23.333 -11.667 -35 -35 -35h-434zM75 30l412.998 0.000976562c2 0 3.33301 0.666992 4 2s0.333984 2.66602 -0.999023 3.99902l-415 599
c-1.33301 2 -2.66602 2.83301 -3.99902 2.5s-2 -1.83301 -2 -4.5v-598c0 -3.33301 1.66699 -5 5 -5zM507.998 65.001c1.33301 -2 2.66797 -2.83398 4.00098 -2.50098s2 1.83301 2 4.5v598c0 3.33301 -1.66699 5 -5 5h-414c-2 0 -3.33301 -0.666992 -4 -2
s-0.333984 -2.66602 0.999023 -3.99902z" />
    <glyph glyph-name="CR" unicode="&#xd;" horiz-adv-x="277" 
 />
    <glyph glyph-name="space" unicode=" " horiz-adv-x="320" 
 />
    <glyph glyph-name="exclam" unicode="!" horiz-adv-x="309" 
d="M104 255l-16.002 126c-5.33301 43.333 -9.66602 86.333 -12.999 129s-5 83.667 -5 123v78h169v-78c0 -40 -1.66699 -81.667 -5 -125s-7.66602 -86.5 -12.999 -129.5s-11 -84.167 -17 -123.5h-100zM153.998 -11c-27.333 0 -48.667 7.66699 -64 23s-23 37.333 -23 66
c0 26.667 8 48.334 24 65.001s37 25 63 25c27.333 0 48.5 -7.83301 63.5 -23.5s22.5 -37.834 22.5 -66.501c0 -26 -8 -47.333 -24 -64s-36.667 -25 -62 -25z" />
    <glyph glyph-name="quotedbl" unicode="&#x22;" horiz-adv-x="477" 
d="M271 436l20 264h163l-83 -264h-100zM44 436l21 264h164l-84 -264h-101z" />
    <glyph glyph-name="numbersign" unicode="#" horiz-adv-x="734" 
d="M368 0l120 700h141l-120 -700h-141zM48 150v129h602v-129h-602zM106 0l120 700h141l-120 -700h-141zM86 430v129h601v-129h-601z" />
    <glyph glyph-name="dollar" unicode="$" horiz-adv-x="634" 
d="M320 -10c-65.333 0 -121.834 10.1699 -169.501 30.5029s-88.5 49.833 -122.5 88.5l80 130c37.333 -38.667 73.666 -66 108.999 -82s72.333 -24 111 -24c18 0 34.333 2.33301 49 7s26 11.5 34 20.5s12 20.167 12 33.5c0 10 -2.5 19 -7.5 27s-11.833 15 -20.5 21
s-19 11.5 -31 16.5s-24.667 9.33301 -38 13s-27 6.83398 -41 9.50098c-52 11.333 -94.833 26.666 -128.5 45.999s-58.834 43.5 -75.501 72.5s-25 63.167 -25 102.5c0 31.333 7.16699 60.166 21.5 86.499s33.666 49 57.999 68s52.5 33.667 84.5 44s65.333 15.5 100 15.5
c56.667 0 107.334 -8.66699 152.001 -26s84.667 -44.333 120 -81l-72 -118c-26.667 27.333 -56.667 47.666 -90 60.999s-68.333 20 -105 20c-20 0 -37.167 -2.5 -51.5 -7.5s-25.5 -12 -33.5 -21s-12 -19.833 -12 -32.5c0 -11.333 3.33301 -21 10 -29
s15.667 -15.167 27 -21.5s24.333 -11.666 39 -15.999s30 -7.83301 46 -10.5c36.667 -7.33301 69.834 -17 99.501 -29s55.334 -26.667 77.001 -44s38.334 -37.833 50.001 -61.5s17.5 -51.167 17.5 -82.5c0 -48.667 -11.833 -89.834 -35.5 -123.501s-56 -59.334 -97 -77.001
s-88.167 -26.5 -141.5 -26.5zM259.999 -90.9971l11 465l81 -33l11 -432h-103zM376.999 340.003l-81 33l-11 415h103z" />
    <glyph glyph-name="percent" unicode="%" horiz-adv-x="968" 
d="M171 0l463 700h149l-468 -700h-144zM216 329c-34 0 -64.335 8.5 -91.002 25.5s-47.5 40.167 -62.5 69.5s-22.5 62.666 -22.5 99.999c0 38 7.5 71.833 22.5 101.5s35.833 52.834 62.5 69.501s57 25 91 25c34.667 0 65.167 -8.33301 91.5 -25s46.833 -39.834 61.5 -69.501
s22 -63.5 22 -101.5c0 -37.333 -7.66699 -70.666 -23 -99.999s-36.166 -52.5 -62.499 -69.5s-56.166 -25.5 -89.499 -25.5zM215.998 432c11.333 0 20.833 3.66699 28.5 11s13.5 18 17.5 32s6 30.333 6 49s-2 35 -6 49s-9.83301 24.833 -17.5 32.5s-17.167 11.5 -28.5 11.5
c-10.667 0 -20 -3.83301 -28 -11.5s-14.167 -18.5 -18.5 -32.5s-6.5 -30.333 -6.5 -49s2 -35 6 -49s10.167 -24.667 18.5 -32s17.833 -11 28.5 -11zM748.998 -10c-34 0 -64.3369 8.66602 -91.0039 25.999s-47.5 40.5 -62.5 69.5s-22.5 62.167 -22.5 99.5
c0 38 7.33301 71.833 22 101.5s35.334 52.834 62.001 69.501s57.334 25 92.001 25s65.167 -8.33301 91.5 -25s46.833 -39.834 61.5 -69.501s22 -63.5 22 -101.5c0 -36.667 -7.66699 -69.667 -23 -99s-36.166 -52.666 -62.499 -69.999s-56.166 -26 -89.499 -26z
M748.994 92.999c11.333 0 20.833 3.83203 28.5 11.499s13.5 18.334 17.5 32.001s6 29.834 6 48.501s-2 35 -6 49s-9.83301 24.833 -17.5 32.5s-17.167 11.5 -28.5 11.5s-21 -3.66699 -29 -11s-14.167 -18.166 -18.5 -32.499s-6.5 -30.833 -6.5 -49.5
s2.16699 -34.834 6.5 -48.501s10.5 -24.334 18.5 -32.001s17.667 -11.5 29 -11.5z" />
    <glyph glyph-name="ampersand" unicode="&#x26;" horiz-adv-x="776" 
d="M580 0l-70 72.0029l-60 56l-147 156c-26 28 -48 53.5 -66 76.5s-32.167 44.333 -42.5 64s-17.833 38.167 -22.5 55.5s-7 33.333 -7 48c0 36 9.5 68.167 28.5 96.5s45.333 50.666 79 66.999s72.5 24.5 116.5 24.5c34 0 65.667 -5.5 95 -16.5s54.666 -26.5 75.999 -46.5
s36.333 -43.333 45 -70l-126 -75c-11.333 27.333 -23.666 46 -36.999 56s-29 15 -47 15c-14.667 0 -27 -2.33301 -37 -7s-17.667 -11.5 -23 -20.5s-8 -20.167 -8 -33.5c0 -12.667 5.16699 -28.167 15.5 -46.5s23.5 -37.333 39.5 -57s32.333 -38.334 49 -56.001
s31.667 -32.834 45 -45.501l74 -81l69 -63l159 -169h-198zM327 -9.99707c-52.667 0 -99.834 10 -141.501 30s-74.667 47.333 -99 82s-36.5 73.334 -36.5 116.001c0 48.667 14.167 92.5 42.5 131.5s70.166 68.5 125.499 88.5l100 -97c-37.333 -8 -65.333 -21.333 -84 -40
s-28 -42.334 -28 -71.001c0 -22.667 5.33301 -42.334 16 -59.001s26.334 -29.5 47.001 -38.5s45.334 -13.5 74.001 -13.5c26.667 0 51.5 5.5 74.5 16.5s43.667 26.5 62 46.5s33.166 43.833 44.499 71.5s19 58.5 23 92.5h149c-6 -42.667 -16.333 -82.167 -31 -118.5
s-33.167 -69.166 -55.5 -98.499s-48 -54.333 -77 -75s-60.667 -36.5 -95 -47.5s-71.166 -16.5 -110.499 -16.5z" />
    <glyph glyph-name="quotesingle" unicode="'" horiz-adv-x="252" 
d="M44 436l21 264h164l-84 -264h-101z" />
    <glyph glyph-name="parenleft" unicode="(" horiz-adv-x="390" 
d="M290 -186c-81.333 50.667 -143.333 114.002 -186 190.002s-64 160.667 -64 254c0 92.667 21.5 177.167 64.5 253.5s105.167 139.833 186.5 190.5l90 -85c-61.333 -42.667 -107.166 -95.334 -137.499 -158.001s-45.5 -129.667 -45.5 -201s15.167 -138.333 45.5 -201
s76.166 -115.334 137.499 -158.001z" />
    <glyph glyph-name="parenright" unicode=")" horiz-adv-x="390" 
d="M99 -186l-90 84.998c61.333 42.667 107 95.334 137 158.001s45 129.667 45 201s-15 138.333 -45 201s-75.667 115.334 -137 158.001l91 85c81.333 -50.667 143.333 -114 186 -190s64 -160.667 64 -254c0 -92.667 -21.5 -177.167 -64.5 -253.5
s-105.167 -139.833 -186.5 -190.5z" />
    <glyph glyph-name="asterisk" unicode="*" horiz-adv-x="440" 
d="M166 353l14 136l17 -3l-125 -85l-54 92l135 54l-1 -9l-135 61l54 93l129 -95l-20 -1l-16 140h115l-15 -145l-16 7l121 93l54 -93l-138 -61v10l136 -54l-53 -91l-119 88l16 -1l16 -136h-115z" />
    <glyph glyph-name="plus" unicode="+" horiz-adv-x="597" 
d="M48 218v131h501v-131h-501zM227 39v489h142v-489h-142z" />
    <glyph glyph-name="comma" unicode="," horiz-adv-x="287" 
d="M85 -200l-46 57.0029c26.667 12 48 27.167 64 45.5s24 34.166 24 47.499c0 6 -1.5 12.5 -4.5 19.5s-10.5 14.833 -22.5 23.5c-15.333 11.333 -25.666 22.5 -30.999 33.5s-8 23.167 -8 36.5c0 20.667 7.5 37 22.5 49s34.5 18 58.5 18c19.333 0 36.833 -5.33301 52.5 -16
s28 -25.334 37 -44.001s13.5 -40.334 13.5 -65.001c0 -22.667 -4 -44.5 -12 -65.5s-19.167 -40.667 -33.5 -59s-31.333 -34.5 -51 -48.5s-40.834 -24.667 -63.501 -32z" />
    <glyph glyph-name="hyphen" unicode="-" horiz-adv-x="448" 
d="M51 214v147h346v-147h-346z" />
    <glyph glyph-name="period" unicode="." horiz-adv-x="257" 
d="M128 -11c-27.333 0 -48.499 7.66699 -63.499 23s-22.5 37.333 -22.5 66c0 26.667 8 48.334 24 65.001s36.667 25 62 25c27.333 0 48.666 -7.83301 63.999 -23.5s23 -37.834 23 -66.501c0 -26 -8 -47.333 -24 -64s-37 -25 -63 -25z" />
    <glyph glyph-name="slash" unicode="/" horiz-adv-x="595" 
d="M8 -142l416 842h159l-414 -842h-161z" />
    <glyph glyph-name="zero" unicode="0" horiz-adv-x="675" 
d="M337 -10c-62.667 0 -116.167 14.333 -160.5 43s-78.166 69.834 -101.499 123.501s-35 118.167 -35 193.5s11.667 139.833 35 193.5s57.166 94.834 101.499 123.501s97.833 43 160.5 43s116.334 -14.333 161.001 -43s78.667 -69.834 102 -123.501s35 -118.167 35 -193.5
s-11.667 -139.833 -35 -193.5s-57.333 -94.834 -102 -123.501s-98.334 -43 -161.001 -43zM337 134c43.333 0 76.833 18.667 100.5 56s35.5 90.666 35.5 159.999c0 71.333 -11.833 126.166 -35.5 164.499s-57.167 57.5 -100.5 57.5s-76.833 -19.167 -100.5 -57.5
s-35.5 -93.166 -35.5 -164.499c0 -69.333 11.833 -122.666 35.5 -159.999s57.167 -56 100.5 -56z" />
    <glyph glyph-name="one" unicode="1" horiz-adv-x="561" 
d="M211 49v568l37 -85l-150 -71l-29 152l199 97h110v-661h-167zM83 0v150h426v-150h-426z" />
    <glyph glyph-name="two" unicode="2" horiz-adv-x="548" 
d="M59 0l-33.002 81.9971l204 223l37 43c13.333 16 26.333 32.5 39 49.5s22.834 33.5 30.501 49.5s11.5 30.667 11.5 44s-3 25 -9 35s-14.667 17.833 -26 23.5s-25.666 8.5 -42.999 8.5c-15.333 0 -30 -3.83301 -44 -11.5s-27.167 -19.5 -39.5 -35.5
s-23.833 -35.667 -34.5 -59l-126 68c14 38.667 33.833 72.834 59.5 102.501s55.834 52.667 90.501 69s71.667 24.5 111 24.5c41.333 -0.666992 78.666 -9.5 111.999 -26.5s59.833 -40.667 79.5 -71s29.5 -65.833 29.5 -106.5c0 -14 -1.66699 -28.667 -5 -44
s-8.33301 -31.166 -15 -47.499s-15.5 -33.666 -26.5 -51.999s-24.167 -37.5 -39.5 -57.5s-33.333 -41.333 -54 -64l-159 -173l-20 76h350v-150h-480z" />
    <glyph glyph-name="three" unicode="3" horiz-adv-x="591" 
d="M287 -10c-56.667 0 -106.167 11.835 -148.5 35.502s-80.833 64.5 -115.5 122.5l122 79c14.667 -23.333 29.834 -42 45.501 -56s32 -24.167 49 -30.5s34.833 -9.5 53.5 -9.5s35.834 4.16699 51.501 12.5s28.334 20.166 38.001 35.499s14.5 32.666 14.5 51.999
c0 20.667 -4.16699 38.167 -12.5 52.5s-20.333 25.166 -36 32.499s-34.5 11 -56.5 11c-10 0 -20.667 -1.16699 -32 -3.5s-23.333 -5.5 -36 -9.5s-25.667 -9.33301 -39 -16l-37 99l170 185l46 -25l-292 6v143h430l31 -62l-231 -248l-40 47
c5.33301 2.66699 14.166 5.16699 26.499 7.5s24.166 3.5 35.499 3.5c31.333 0 60.666 -5.66699 87.999 -17s51.666 -27 72.999 -47s38 -43.5 50 -70.5s18 -55.833 18 -86.5c0 -46.667 -11.833 -88.167 -35.5 -124.5s-55.667 -65.166 -96 -86.499s-85.166 -32 -134.499 -32z
" />
    <glyph glyph-name="four" unicode="4" horiz-adv-x="662" 
d="M349 0v566l91 -2l-253 -310l-24 30h464v-140h-540l-68 131l357 431h137v-706h-164z" />
    <glyph glyph-name="five" unicode="5" horiz-adv-x="596" 
d="M282 -7c-52.667 0 -100.501 10.665 -143.501 31.998s-78.5 52 -106.5 92l91 100c27.333 -30 52.666 -50.5 75.999 -61.5s49.333 -16.5 78 -16.5c21.333 0 40.333 4.33301 57 13s29.834 20.834 39.501 36.501s14.5 33.167 14.5 52.5c0 20 -4.83301 37.833 -14.5 53.5
s-22.667 28.167 -39 37.5s-35.166 14 -56.499 14c-15.333 0 -29.666 -1.33301 -42.999 -4s-27.5 -7.16699 -42.5 -13.5s-32.833 -15.5 -53.5 -27.5l-72 96l43 309h402v-143h-321l44 56l-33 -222l-60 20c12.667 11.333 28.167 21.333 46.5 30s38.166 15.834 59.499 21.501
s42.666 8.5 63.999 8.5c44 0 83.5 -10.167 118.5 -30.5s62.833 -48.5 83.5 -84.5s31 -77.333 31 -124c0 -46 -11.667 -87.5 -35 -124.5s-54.666 -66.333 -93.999 -88s-84 -32.5 -134 -32.5z" />
    <glyph glyph-name="six" unicode="6" horiz-adv-x="579" 
d="M294 0c-36 0 -69.8359 6.49902 -101.503 19.499s-59.167 31 -82.5 54s-41.833 49.833 -55.5 80.5s-20.5 63.667 -20.5 99c0 24.667 2.66699 48.5 8 71.5s12.833 46.333 22.5 70s21.334 48 35.001 73l45.5 79.5l98 164h157l4 -10l-136 -214
c-17.333 -28 -32.333 -54.167 -45 -78.5s-24 -48.5 -34 -72.5s-20 -49.333 -30 -76l-32 69c6.66699 23.333 17.334 44.833 32.001 64.5s31.834 36.667 51.501 51s40.167 25.333 61.5 33s42.333 11.5 63 11.5c39.333 0 75.5 -10.5 108.5 -31.5s59.5 -48.833 79.5 -83.5
s30 -72.667 30 -114c0 -49.333 -11.167 -93.666 -33.5 -132.999s-53 -70.333 -92 -93s-83.5 -34 -133.5 -34zM295.997 139.999c21.333 0 40.168 4.66797 56.501 14.001s29.166 22.5 38.499 39.5s14 36.5 14 58.5c0 18.667 -4.83301 36.167 -14.5 52.5
s-22.667 29.666 -39 39.999s-34.5 15.5 -54.5 15.5c-21.333 0 -40.5 -4.83301 -57.5 -14.5s-30.167 -22.667 -39.5 -39s-14 -34.5 -14 -54.5c0 -21.333 4.66699 -40.5 14 -57.5s22.333 -30.333 39 -40s35.667 -14.5 57 -14.5z" />
    <glyph glyph-name="seven" unicode="7" horiz-adv-x="553" 
d="M84 0l280 638l48 -80h-366v148h456l16 -81l-264 -625h-170z" />
    <glyph glyph-name="eight" unicode="8" horiz-adv-x="599" 
d="M299 -3c-48 0 -91.502 9.16797 -130.502 27.501s-70.167 43.166 -93.5 74.499s-35 66.666 -35 105.999c0 26 3.33301 49.5 10 70.5s16.834 39.667 30.501 56s30.334 30.333 50.001 42s42.167 21.167 67.5 28.5l-12 -40c-18.667 7.33301 -35.667 16.333 -51 27
s-28.333 22.834 -39 36.501s-18.834 28.5 -24.501 44.5s-8.5 32.667 -8.5 50c0 37.333 10.5 70.333 31.5 99s49.333 51.167 85 67.5s75.5 24.5 119.5 24.5c43.333 0 82.833 -8.16699 118.5 -24.5s64.167 -38.833 85.5 -67.5s32 -61.667 32 -99
c0 -17.333 -2.66699 -34 -8 -50s-13.333 -30.5 -24 -43.5s-23.667 -25 -39 -36s-33 -20.5 -53 -28.5l-9 36c22.667 -6 43.667 -14.5 63 -25.5s36 -24.667 50 -41s24.833 -35 32.5 -56s11.5 -44.5 11.5 -70.5c0 -40 -11.667 -75.667 -35 -107s-54.666 -56 -93.999 -74
s-83 -27 -131 -27zM298.998 131.001c18.667 0 35.332 3.66699 49.999 11s26.334 17.333 35.001 30s13 27.334 13 44.001c0 17.333 -4.16699 32.5 -12.5 45.5s-20 23.333 -35 31s-31.833 11.5 -50.5 11.5s-35.334 -3.83301 -50.001 -11.5s-26.334 -18 -35.001 -31
s-13 -28.167 -13 -45.5c0 -16 4.33301 -30.333 13 -43s20.334 -22.834 35.001 -30.501s31.334 -11.5 50.001 -11.5zM298.996 439.001c16 0 30.5 3.16699 43.5 9.5s23.167 15 30.5 26s11 23.833 11 38.5s-3.66699 27.667 -11 39s-17.5 20.333 -30.5 27s-27.5 10 -43.5 10
c-16.667 0 -31.5 -3.33301 -44.5 -10s-23.167 -15.667 -30.5 -27s-11 -24.333 -11 -39s3.66699 -27.5 11 -38.5s17.5 -19.667 30.5 -26s27.833 -9.5 44.5 -9.5z" />
    <glyph glyph-name="nine" unicode="9" horiz-adv-x="577" 
d="M208 0l-3.99707 9.99609l219 442l29 -60c-6.66699 -24 -17.334 -45.667 -32.001 -65s-32.167 -36.166 -52.5 -50.499s-41.5 -25.333 -63.5 -33s-43 -11.5 -63 -11.5c-38 0 -73 10.333 -105 31s-57.667 48.334 -77 83.001s-29 72.334 -29 113.001
c0 48 11.5 91.5 34.5 130.5s54.167 70 93.5 93s83.666 34.5 132.999 34.5c36 0 69.667 -6.33301 101 -19s58.833 -30.167 82.5 -52.5s42.167 -48.166 55.5 -77.499s20 -60.333 20 -93c0 -24 -2 -47.5 -6 -70.5s-10.333 -46.5 -19 -70.5s-18.834 -49 -30.501 -75
s-25.167 -54.333 -40.5 -85l-88 -174h-158zM282.003 365.996c20.667 0 39.001 4.66699 55.001 14s28.5 21.833 37.5 37.5s13.5 33.167 13.5 52.5c0 20.667 -4.5 39.167 -13.5 55.5s-21.333 29.166 -37 38.499s-33.834 14 -54.501 14c-20 0 -37.5 -4.5 -52.5 -13.5
s-27 -21.667 -36 -38s-13.5 -35.166 -13.5 -56.499c0 -18 4.5 -34.833 13.5 -50.5s21.167 -28.5 36.5 -38.5s32.333 -15 51 -15z" />
    <glyph glyph-name="colon" unicode=":" horiz-adv-x="257" 
d="M128 -11c-27.333 0 -48.499 7.66699 -63.499 23s-22.5 37.333 -22.5 66c0 26.667 8 48.334 24 65.001s36.667 25 62 25c27.333 0 48.666 -7.83301 63.999 -23.5s23 -37.834 23 -66.501c0 -26 -8 -47.333 -24 -64s-37 -25 -63 -25zM128.001 362
c-27.333 0 -48.499 7.66699 -63.499 23s-22.5 37.333 -22.5 66c0 26.667 8 48.334 24 65.001s36.667 25 62 25c27.333 0 48.666 -7.83301 63.999 -23.5s23 -37.834 23 -66.501c0 -26 -8 -47.333 -24 -64s-37 -25 -63 -25z" />
    <glyph glyph-name="semicolon" unicode=";" horiz-adv-x="291" 
d="M89 -200l-46 57.0029c26.667 12 48 27.167 64 45.5s24 34.166 24 47.499c0 6 -1.5 12.5 -4.5 19.5s-10.5 14.833 -22.5 23.5c-15.333 11.333 -25.666 22.5 -30.999 33.5s-8 23.167 -8 36.5c0 20.667 7.5 37 22.5 49s34.5 18 58.5 18c19.333 0 36.833 -5.33301 52.5 -16
s28 -25.334 37 -44.001s13.5 -40.334 13.5 -65.001c0 -22.667 -4 -44.5 -12 -65.5s-19.167 -40.667 -33.5 -59s-31.333 -34.5 -51 -48.5s-40.834 -24.667 -63.501 -32zM143 363.003c-27.333 0 -48.499 7.66699 -63.499 23s-22.5 37.333 -22.5 66
c0 26.667 8 48.334 24 65.001s36.667 25 62 25c27.333 0 48.666 -7.83301 63.999 -23.5s23 -37.834 23 -66.501c0 -26 -8 -47.333 -24 -64s-37 -25 -63 -25z" />
    <glyph glyph-name="less" unicode="&#x3c;" horiz-adv-x="525" 
d="M429 -13l-388 222v97l388 222l66 -127l-340 -178v69l340 -179z" />
    <glyph glyph-name="equal" unicode="=" horiz-adv-x="623" 
d="M67 325v130h489v-130h-489zM67 108v129h489v-129h-489z" />
    <glyph glyph-name="greater" unicode="&#x3e;" horiz-adv-x="526" 
d="M105 -13l-65 126l339 179v-69l-339 178l65 127l388 -222v-97z" />
    <glyph glyph-name="question" unicode="?" horiz-adv-x="536" 
d="M195 240l-32.001 131.001c19.333 4.66699 37.666 10.167 54.999 16.5s33.333 13.166 48 20.499s27.167 15.833 37.5 25.5s18.5 20.334 24.5 32.001s9 24.167 9 37.5s-3.33301 24.833 -10 34.5s-15.667 17.167 -27 22.5s-24.666 8 -39.999 8c-22 0 -44 -7.83301 -66 -23.5
s-42.333 -40.834 -61 -75.501l-109 101c30 46 65.833 81.667 107.5 107s85.167 38 130.5 38c44 0 83.667 -8.83301 119 -26.5s63.333 -42 84 -73s31 -65.833 31 -104.5c0 -24.667 -5.16699 -49 -15.5 -73s-24.666 -46.5 -42.999 -67.5s-39.833 -39.5 -64.5 -55.5
s-52 -28.333 -82 -37l-10 -38h-86zM158.999 78.001c0 26.667 8.00098 48.334 24.001 65.001s36.667 25 62 25c27.333 0 48.666 -7.83301 63.999 -23.5s23 -37.834 23 -66.501c0 -26 -8 -47.333 -24 -64s-37 -25 -63 -25c-27.333 0 -48.5 7.66699 -63.5 23
s-22.5 37.333 -22.5 66z" />
    <glyph glyph-name="at" unicode="@" horiz-adv-x="965" 
d="M414 -162c-58 0 -110.166 8.82715 -156.499 26.4941s-85.666 42.667 -117.999 75s-57 71.166 -74 116.499s-25.5 95.333 -25.5 150c0 78 13.833 148.167 41.5 210.5s66 115.333 115 159s106 77 171 100s134.5 34.5 208.5 34.5c53.333 0 101.333 -7.5 144 -22.5
s79.334 -36.5 110.001 -64.5s54.167 -61.167 70.5 -99.5s24.5 -80.833 24.5 -127.5c0 -46 -6.5 -89.833 -19.5 -131.5s-31.167 -78.667 -54.5 -111s-50.5 -57.833 -81.5 -76.5s-64.5 -28 -100.5 -28c-25.333 0 -48 4.33301 -68 13s-35.5 20.834 -46.5 36.501
s-16.5 33.834 -16.5 54.501c0 10.667 0.5 21.834 1.5 33.501s1.83301 23.5 2.5 35.5l26 -20c-10.667 -32.667 -24.5 -60.334 -41.5 -83.001s-36.667 -40 -59 -52s-46.833 -18 -73.5 -18c-30.667 0 -58 8 -82 24s-43 38 -57 66s-21 60.667 -21 98c0 32.667 6 65.667 18 99
s29.167 64 51.5 92s48.166 50.5 77.499 67.5s61.333 25.5 96 25.5c20.667 0 39.167 -5.33301 55.5 -16s29.666 -25.667 39.999 -45s16.5 -41.666 18.5 -66.999l-31 -28l29 145h144l-59 -316c-2 -11.333 -1.33301 -20.166 2 -26.499s8.16602 -11.166 14.499 -14.499
s13.166 -5 20.499 -5c18.667 0 36 6.5 52 19.5s29.833 30.667 41.5 53s20.834 48.166 27.501 77.499s10 60.333 10 93c0 50.667 -10.833 93.834 -32.5 129.501s-52.834 63.167 -93.501 82.5s-89.334 29 -146.001 29c-68.667 0 -130.5 -9.66699 -185.5 -29
s-101.833 -47.166 -140.5 -83.499s-68.334 -80.666 -89.001 -132.999s-31 -111.5 -31 -177.5c0 -46 6.5 -86.833 19.5 -122.5s31.833 -66.167 56.5 -91.5s55.334 -44.5 92.001 -57.5s78.334 -19.5 125.001 -19.5c31.333 0 58.333 2.16699 81 6.5s44.334 11 65.001 20
s43.667 20.167 69 33.5l37 -67c-39.333 -20 -73 -35.167 -101 -45.5s-54 -17.5 -78 -21.5s-49.333 -6 -76 -6zM436.001 169.994c17.333 0 34.168 5.66504 50.501 16.998s30.5 26.333 42.5 45s20 39.667 24 63c1.33301 9.33301 2.66602 17.833 3.99902 25.5s2 15.167 2 22.5
c0 12.667 -2.16699 23.834 -6.5 33.501s-11 17.167 -20 22.5s-20.5 8 -34.5 8c-20.667 0 -39.5 -7.66699 -56.5 -23s-30.5 -35.666 -40.5 -60.999s-15 -52.333 -15 -81c0 -22 4.5 -39.5 13.5 -52.5s21.167 -19.5 36.5 -19.5z" />
    <glyph glyph-name="A" unicode="A" horiz-adv-x="694" 
d="M-1 0l276.999 700.002h144l275 -700h-172l-132 355c-5.33301 14 -10.666 29 -15.999 45l-16 49.5l-15.5 50c-5 16.333 -9.16699 31.5 -12.5 45.5l30 1c-4 -16.667 -8.5 -33 -13.5 -49l-15 -47.5c-5 -15.667 -10.5 -31.334 -16.5 -47.001s-11.667 -31.834 -17 -48.501
l-132 -354h-168zM130.999 134.002l53 128h322l52 -128h-427z" />
    <glyph glyph-name="B" unicode="B" horiz-adv-x="701" 
d="M88 0v700h309c48 0 88.667 -6.83301 122 -20.5s58.5 -33.334 75.5 -59.001s25.5 -56.5 25.5 -92.5c0 -40 -9.83301 -73.667 -29.5 -101s-48.167 -45.666 -85.5 -54.999l-2 19c31.333 -6.66699 58.5 -18.334 81.5 -35.001s40.833 -37.167 53.5 -61.5s19 -51.833 19 -82.5
c0 -35.333 -6 -66.166 -18 -92.499s-29.333 -48.5 -52 -66.5s-49.167 -31.333 -79.5 -40s-63.833 -13 -100.5 -13h-319zM248 142l153 -0.00195312c18.667 0 34.5 3 47.5 9s23.167 14.833 30.5 26.5s11 25.834 11 42.501c0 15.333 -3.83301 28.333 -11.5 39
s-18.5 18.834 -32.5 24.501s-30.667 8.5 -50 8.5h-148v-150zM248 418.998l125.002 0.000976562c17.333 0 32.166 2.83301 44.499 8.5s21.666 13.667 27.999 24s9.5 22.833 9.5 37.5c0 21.333 -7.33301 38.166 -22 50.499s-36.667 18.5 -66 18.5h-119v-139z" />
    <glyph glyph-name="C" unicode="C" horiz-adv-x="694" 
d="M406 -10c-52.667 0 -101.159 8.83691 -145.492 26.5039s-82.833 42.667 -115.5 75s-57.834 70.666 -75.501 114.999s-26.5 93.166 -26.5 146.499c0 52 9.33301 100 28 144s44.5 82.167 77.5 114.5s72 57.5 117 75.5s94.167 27 147.5 27c33.333 0 66 -4.33301 98 -13
s61.833 -21.5 89.5 -38.5s51.5 -37.167 71.5 -60.5l-104 -119c-14 14.667 -28.833 27.5 -44.5 38.5s-32.834 19.5 -51.501 25.5s-38.667 9 -60 9c-26.667 0 -51.834 -4.83301 -75.501 -14.5s-44.334 -23.334 -62.001 -41.001s-31.5 -39.167 -41.5 -64.5
s-15 -53.666 -15 -84.999c0 -30.667 5 -58.5 15 -83.5s24 -46.5 42 -64.5s39.833 -31.667 65.5 -41s54.167 -14 85.5 -14c21.333 0 41.666 3 60.999 9s37.166 14.167 53.499 24.5s30.833 22.166 43.5 35.499l82 -130c-16.667 -18.667 -38.834 -35.334 -66.501 -50.001
s-58.334 -26.167 -92.001 -34.5s-67.5 -12.5 -101.5 -12.5z" />
    <glyph glyph-name="D" unicode="D" horiz-adv-x="772" 
d="M88 0v700h293c51.333 0 98.333 -8.5 141 -25.5s79.5 -41.167 110.5 -72.5s54.833 -68.333 71.5 -111s25 -89.667 25 -141s-8.33301 -98.5 -25 -141.5s-40.5 -80 -71.5 -111s-67.833 -55 -110.5 -72s-89.667 -25.5 -141 -25.5h-293zM258 116l-23 34h141
c28 0 53 4.83301 75 14.5s40.833 23.167 56.5 40.5s27.834 38.333 36.501 63s13 52 13 82s-4.33301 57.333 -13 82s-20.834 45.667 -36.501 63s-34.5 30.833 -56.5 40.5s-47 14.5 -75 14.5h-144l26 32v-466z" />
    <glyph glyph-name="E" unicode="E" horiz-adv-x="645" 
d="M88 0v700h488v-145h-323v-410h333v-145h-498zM168 287v138h363v-138h-363z" />
    <glyph glyph-name="F" unicode="F" horiz-adv-x="618" 
d="M88 0v700h170v-700h-170zM167 268v142h362v-142h-362zM167 550v150h403v-150h-403z" />
    <glyph glyph-name="G" unicode="G" horiz-adv-x="782" 
d="M413 -10c-56 0 -106.67 8.99805 -152.003 26.998s-84.333 43.333 -117 76s-57.667 71.167 -75 115.5s-26 92.5 -26 144.5s9.16699 99.833 27.5 143.5s44.5 81.834 78.5 114.501s74.167 58 120.5 76s96.833 27 151.5 27c38.667 0 75.167 -5 109.5 -15
s65.5 -23.667 93.5 -41s51.667 -37.333 71 -60l-103 -109c-16.667 16 -33.834 29.333 -51.501 40s-36.5 19.167 -56.5 25.5s-41.333 9.5 -64 9.5c-29.333 0 -56.166 -5.33301 -80.499 -16s-45.666 -25.5 -63.999 -44.5s-32.5 -41.333 -42.5 -67s-15 -53.5 -15 -83.5
s5.33301 -58 16 -84s25.334 -48.5 44.001 -67.5s40.834 -34 66.501 -45s53.167 -16.5 82.5 -16.5c20.667 0 40.167 3.33301 58.5 10s34.166 15.667 47.499 27s24 24.833 32 40.5s12 32.5 12 50.5v26l22 -34h-193v133h329c1.33301 -7.33301 2.33301 -17.333 3 -30
s1.16699 -25 1.5 -37s0.5 -21 0.5 -27c0 -45.333 -8.16699 -86.833 -24.5 -124.5s-39.166 -70.167 -68.499 -97.5s-64 -48.666 -104 -63.999s-83.333 -23 -130 -23z" />
    <glyph glyph-name="H" unicode="H" horiz-adv-x="779" 
d="M522 0v700h170v-700h-170zM88 0v700h170v-700h-170zM154 273l1 152h457v-152h-458z" />
    <glyph glyph-name="I" unicode="I" horiz-adv-x="555" 
d="M74 0v143h118v414h-118v143h407v-143h-119v-414h119v-143h-407z" />
    <glyph glyph-name="J" unicode="J" horiz-adv-x="665" 
d="M261 -10c-25.333 0 -49.3271 2.83301 -71.9941 8.5s-43.334 14 -62.001 25s-35.334 24.333 -50.001 40s-27.334 33.167 -38.001 52.5l97 101c9.33301 -14 18.333 -25.5 27 -34.5s17.167 -16.5 25.5 -22.5s17 -10.333 26 -13s18.5 -4 28.5 -4
c16 0 30.167 3.83301 42.5 11.5s21.833 18.167 28.5 31.5s10 29 10 47v319h-128v148h402v-148h-108v-339c0 -34 -5.83301 -64.667 -17.5 -92s-27.834 -50.833 -48.501 -70.5s-44.834 -34.667 -72.501 -45s-57.834 -15.5 -90.501 -15.5z" />
    <glyph glyph-name="K" unicode="K" horiz-adv-x="739" 
d="M212 205l-44 143l347 352h201zM88 0v700h170v-700h-170zM537 0l-260 342l115 99l343 -441h-198z" />
    <glyph glyph-name="L" unicode="L" horiz-adv-x="609" 
d="M88 0v700h170v-550h312v-150h-482z" />
    <glyph glyph-name="M" unicode="M" horiz-adv-x="878" 
d="M88 0v700h152l255 -415l-109 1l258 414h146v-700h-165v218c0 60 1.5 114 4.5 162s8.16699 95.667 15.5 143l19 -52l-194 -301h-66l-190 299l19 54c7.33301 -44.667 12.5 -90.5 15.5 -137.5s4.5 -102.833 4.5 -167.5v-218h-165z" />
    <glyph glyph-name="N" unicode="N" horiz-adv-x="807" 
d="M88 0l-0.000976562 700.002h152l367 -500l-33 5c-3.33301 22 -6 43 -8 63s-3.83301 39.667 -5.5 59s-3 39 -4 59s-1.66699 41.667 -2 65s-0.5 48.666 -0.5 75.999v173h165v-700h-154l-383 516l51 -7l8.5 -81.5l6 -59.5c1.66699 -17.333 2.83398 -33 3.50098 -47
s1.16699 -27.833 1.5 -41.5s0.5 -28.834 0.5 -45.501v-234h-165z" />
    <glyph glyph-name="O" unicode="O" horiz-adv-x="812" 
d="M407 -10c-53.333 0 -102 9 -146 27s-82.333 43.333 -115 76s-58 71 -76 115s-27 92.333 -27 145s9 101 27 145s43.333 82.333 76 115s71 58 115 76s92.333 27 145 27s101 -9 145 -27s82.333 -43.333 115 -76s57.834 -71 75.501 -115s26.5 -92.333 26.5 -145
c0 -52 -8.83301 -100.167 -26.5 -144.5s-42.834 -82.833 -75.501 -115.5s-71 -58 -115 -76s-92 -27 -144 -27zM406 150c27.333 0 52.5 5 75.5 15s43 24.167 60 42.5s30.167 39.833 39.5 64.5s14 51.667 14 81s-4.66699 56.333 -14 81s-22.5 46.167 -39.5 64.5
s-37 32.5 -60 42.5s-48.167 15 -75.5 15s-52.5 -5 -75.5 -15s-43.167 -24.167 -60.5 -42.5s-30.5 -39.833 -39.5 -64.5s-13.5 -51.667 -13.5 -81s4.5 -56.5 13.5 -81.5s22.167 -46.5 39.5 -64.5s37.5 -32 60.5 -42s48.167 -15 75.5 -15z" />
    <glyph glyph-name="P" unicode="P" horiz-adv-x="662" 
d="M88 0v700.001h302c44 0 83.167 -10 117.5 -30s61.666 -47.333 81.999 -82s30.5 -73.667 30.5 -117c0 -45.333 -10.167 -85.833 -30.5 -121.5s-47.666 -63.834 -81.999 -84.501s-73.5 -31 -117.5 -31h-132v-234h-170zM255 383.001l111 -0.000976562
c14.667 0 28 3.66699 40 11s21.667 17.333 29 30s11 27.334 11 44.001c0 17.333 -3.66699 32 -11 44s-17 21.333 -29 28s-25.333 10 -40 10h-111v-167z" />
    <glyph glyph-name="Q" unicode="Q" horiz-adv-x="812" 
d="M615 -110l-268 363l125 87l265 -360zM406 -10c-52.667 0 -101 9 -145 27s-82.333 43.333 -115 76s-58 71 -76 115s-27 92.333 -27 145s9 101 27 145s43.333 82.333 76 115s71 58 115 76s92.333 27 145 27s101 -9 145 -27s82.333 -43.333 115 -76s57.834 -71 75.501 -115
s26.5 -92.333 26.5 -145c0 -52 -8.83301 -100.167 -26.5 -144.5s-42.834 -82.833 -75.501 -115.5s-71 -58 -115 -76s-92.333 -27 -145 -27zM406 150c27.333 0 52.5 5 75.5 15s43 24.167 60 42.5s30.167 39.833 39.5 64.5s14 51.667 14 81s-4.66699 56.333 -14 81
s-22.5 46.167 -39.5 64.5s-37 32.5 -60 42.5s-48.167 15 -75.5 15s-52.5 -5 -75.5 -15s-43.167 -24.167 -60.5 -42.5s-30.5 -39.833 -39.5 -64.5s-13.5 -51.667 -13.5 -81s4.5 -56.5 13.5 -81.5s22.167 -46.5 39.5 -64.5s37.5 -32 60.5 -42s48.167 -15 75.5 -15z" />
    <glyph glyph-name="R" unicode="R" horiz-adv-x="702" 
d="M88 0v700.001h315c44.667 0 85.167 -9.66699 121.5 -29s64.833 -45.833 85.5 -79.5s31 -71.834 31 -114.501c0 -44 -10.333 -83.5 -31 -118.5s-49 -62.5 -85 -82.5s-76.667 -30 -122 -30h-153v-246h-162zM476 0.000976562l-178 316l174 25l198 -341h-194zM250 376.001
h138c17.333 0 32.5 3.83301 45.5 11.5s23 18.5 30 32.5s10.5 30 10.5 48s-4 33.833 -12 47.5s-19.5 24.167 -34.5 31.5s-33.167 11 -54.5 11h-123v-182z" />
    <glyph glyph-name="S" unicode="S" horiz-adv-x="634" 
d="M320 -10c-46 0 -87.5029 5.50098 -124.503 16.501s-69.833 27 -98.5 48s-54.334 45.833 -77.001 74.5l103 117c33.333 -44.667 66.833 -74.667 100.5 -90s68.5 -23 104.5 -23c18 0 34.333 2.33301 49 7s26 11.5 34 20.5s12 20.167 12 33.5c0 10 -2.5 19 -7.5 27
s-11.833 15 -20.5 21s-19 11.5 -31 16.5s-24.667 9.33301 -38 13s-27 6.83398 -41 9.50098c-38.667 8.66699 -72.334 19.334 -101.001 32.001s-52.5 28.167 -71.5 46.5s-33.167 39.333 -42.5 63s-14 50.167 -14 79.5c0 31.333 7.16699 60.166 21.5 86.499
s33.666 49 57.999 68s52.5 33.667 84.5 44s65.333 15.5 100 15.5c46 0 85.5 -4.83301 118.5 -14.5s61.333 -23.5 85 -41.5s43.834 -39.667 60.501 -65l-105 -101c-14 17.333 -29.167 31.666 -45.5 42.999s-33.666 20 -51.999 26s-37.166 9 -56.499 9
c-20 0 -37.167 -2.5 -51.5 -7.5s-25.5 -12 -33.5 -21s-12 -19.833 -12 -32.5c0 -11.333 3.33301 -21 10 -29s15.667 -15.167 27 -21.5s24.333 -11.666 39 -15.999s30 -7.83301 46 -10.5c36.667 -7.33301 69.834 -17 99.501 -29s55.334 -26.667 77.001 -44
s38.334 -37.833 50.001 -61.5s17.5 -51.167 17.5 -82.5c0 -48.667 -11.833 -89.834 -35.5 -123.501s-56 -59.334 -97 -77.001s-88.167 -26.5 -141.5 -26.5z" />
    <glyph glyph-name="T" unicode="T" horiz-adv-x="655" 
d="M240 0v550h-208v150h591v-150h-213v-550h-170z" />
    <glyph glyph-name="U" unicode="U" horiz-adv-x="765" 
d="M383 -6c-58 0 -109.667 11.833 -155 35.5s-80.833 56.167 -106.5 97.5s-38.5 88.666 -38.5 141.999v431h172v-422c0 -25.333 5.66699 -48.166 17 -68.499s26.666 -36.333 45.999 -48s41 -17.5 65 -17.5c25.333 0 47.833 5.83301 67.5 17.5s35.5 27.667 47.5 48
s18 43.166 18 68.499v422h166v-431c0 -53.333 -12.833 -100.666 -38.5 -141.999s-61.167 -73.833 -106.5 -97.5s-96.666 -35.5 -153.999 -35.5z" />
    <glyph glyph-name="V" unicode="V" horiz-adv-x="712" 
d="M284 0l-279.999 699.998h177l135 -357l20.5 -54c5.66699 -15.333 10.667 -29.666 15 -42.999s8.33301 -26.833 12 -40.5l12.5 -46.5h-31c5.33301 22.667 10.666 42.834 15.999 60.501s11.333 36 18 55l25 68.5l130 357h174l-282 -700h-142z" />
    <glyph glyph-name="W" unicode="W" horiz-adv-x="993" 
d="M214 0l-210 699.999h173l105 -368c4.66699 -16.667 8.83398 -33.5 12.501 -50.5s6.66699 -33.167 9 -48.5s4.16602 -29.5 5.49902 -42.5s2.66602 -23.833 3.99902 -32.5h-22l10.5 66c3 19.333 6.5 37.5 10.5 54.5s9 34.833 15 53.5l104 277h136l102 -277
c8 -22 14.667 -42.667 20 -62s9.5 -37.833 12.5 -55.5s5.5 -35.167 7.5 -52.5l-20 -3c1.33301 12 2.33301 23.167 3 33.5s1.5 20.333 2.5 30s2.16699 19.834 3.5 30.501s3.33301 22.5 6 35.5s6.33398 27.833 11.001 44.5l104 367h169l-210 -700h-130l-166 403l19 -2
l-153 -401h-134z" />
    <glyph glyph-name="X" unicode="X" horiz-adv-x="705" 
d="M499 0l-217 314l-278 386h207l212 -310l283 -390h-207zM-1 0l267 381l137 -79l-207 -302h-197zM439 325l-136 76l196 299h197z" />
    <glyph glyph-name="Y" unicode="Y" horiz-adv-x="689" 
d="M269 0v349l7 -49l-283 400h193l216 -310l-88 3l195 307h187l-271 -411l15 68v-357h-171z" />
    <glyph glyph-name="Z" unicode="Z" horiz-adv-x="683" 
d="M60 0v113l376 500l59 -69h-409v156h528v-112l-374 -501l-60 62h445v-149h-565z" />
    <glyph glyph-name="bracketleft" unicode="[" horiz-adv-x="420" 
d="M80 -190v890h297v-137h-149l6 8v-636l-10 12h153v-137h-297z" />
    <glyph glyph-name="backslash" unicode="\" horiz-adv-x="584" 
d="M418 -107l-398 807h160l400 -807h-162z" />
    <glyph glyph-name="bracketright" unicode="]" horiz-adv-x="420" 
d="M42 -190v137h150l-6 -8v636l10 -12h-154v137h298v-890h-298z" />
    <glyph glyph-name="asciicircum" unicode="^" horiz-adv-x="592" 
d="M12 361l220 372h129l219 -372h-161l-164 283l84 2l-168 -285h-159z" />
    <glyph glyph-name="underscore" unicode="_" horiz-adv-x="687" 
d="M40 -192v131h607v-131h-607z" />
    <glyph glyph-name="grave" unicode="`" horiz-adv-x="500" 
d="M329 584l-205 110l73 104l179 -142z" />
    <glyph glyph-name="a" unicode="a" horiz-adv-x="659" 
d="M267 -9c-44.667 0 -84.5 11.833 -119.5 35.5s-62.833 56.334 -83.5 98.001s-31 88.834 -31 141.501c0 54 10.333 101.667 31 143s49 73.833 85 97.5s77 35.5 123 35.5c25.333 0 48.5 -3.66699 69.5 -11s39.5 -17.5 55.5 -30.5s29.667 -28 41 -45
s19.666 -35.167 24.999 -54.5l-33 4v126h159v-531h-162v128l36 1c-5.33301 -18.667 -14 -36.334 -26 -53.001s-26.667 -31.334 -44 -44.001s-36.666 -22.667 -57.999 -30s-44 -11 -68 -11zM311 126c24.667 0 46 5.66699 64 17s32 27.5 42 48.5s15 45.833 15 74.5
s-5 53.5 -15 74.5s-24 37.333 -42 49s-39.333 17.5 -64 17.5c-24 0 -44.833 -5.83301 -62.5 -17.5s-31.5 -28 -41.5 -49s-15 -45.833 -15 -74.5s5 -53.5 15 -74.5s23.833 -37.167 41.5 -48.5s38.5 -17 62.5 -17z" />
    <glyph glyph-name="b" unicode="b" horiz-adv-x="658" 
d="M390 -11c-24 0 -47 3.33398 -69 10.001s-41.833 15.667 -59.5 27s-32.334 24.5 -44.001 39.5s-19.5 30.5 -23.5 46.5l35 12l-9 -123h-149v739h161v-336l-33 12c4 17.333 11.667 33.5 23 48.5s25.666 28.333 42.999 40s36.333 20.834 57 27.501s42 10 64 10
c46 0 86.833 -11.833 122.5 -35.5s63.834 -56.334 84.501 -98.001s31 -89.167 31 -142.5c0 -54 -10.167 -101.833 -30.5 -143.5s-48.166 -74.334 -83.499 -98.001s-75.333 -35.5 -120 -35.5zM348 124.001c24 0 45 6 63 18s31.833 28.5 41.5 49.5s14.5 45.833 14.5 74.5
c0 28 -4.83301 52.667 -14.5 74s-23.5 37.666 -41.5 48.999s-39 17 -63 17c-24.667 0 -46 -5.66699 -64 -17s-32 -27.666 -42 -48.999s-15 -46 -15 -74c0 -28.667 5 -53.5 15 -74.5s24 -37.5 42 -49.5s39.333 -18 64 -18z" />
    <glyph glyph-name="c" unicode="c" horiz-adv-x="545" 
d="M304 -10c-51.333 0 -97.334 12.001 -138.001 36.001s-72.834 56.833 -96.501 98.5s-35.5 88.834 -35.5 141.501s11.833 99.834 35.5 141.501s55.834 74.5 96.501 98.5s86.667 36 138 36c47.333 0 90.833 -8.33301 130.5 -25s71.167 -40 94.5 -70l-87 -104
c-9.33301 10.667 -20.333 20.667 -33 30s-26.667 16.666 -42 21.999s-31.333 8 -48 8c-25.333 0 -47.666 -5.83301 -66.999 -17.5s-34.333 -27.834 -45 -48.501s-16 -44.334 -16 -71.001c0 -25.333 5.5 -48.333 16.5 -69s26.167 -37 45.5 -49s41.333 -18 66 -18
c17.333 0 33.333 2.16699 48 6.5s28.167 10.833 40.5 19.5s23.833 19.334 34.5 32.001l86 -105c-22.667 -28.667 -54.167 -51.334 -94.5 -68.001s-83.5 -25 -129.5 -25z" />
    <glyph glyph-name="d" unicode="d" horiz-adv-x="654" 
d="M272 -11c-46 0 -86.833 11.8311 -122.5 35.498s-63.834 56.334 -84.501 98.001s-31 89.167 -31 142.5s10.333 100.833 31 142.5s49 74.5 85 98.5s77.333 36 124 36c24 0 47 -3.66699 69 -11s42 -17.333 60 -30s32.667 -27.167 44 -43.5s18 -33.166 20 -50.499l-38 -9v342
h161v-740h-149l-9 121l32 -5c-2 -16.667 -8.5 -32.667 -19.5 -48s-25.167 -28.833 -42.5 -40.5s-37.166 -21 -59.499 -28s-45.833 -10.5 -70.5 -10.5zM313 121.998c24.667 0 46 6 64 18s31.833 28.667 41.5 50s14.5 46.333 14.5 75c0 29.333 -4.83301 54.666 -14.5 75.999
s-23.5 38 -41.5 50s-39.333 18 -64 18s-45.834 -6 -63.501 -18s-31.5 -28.667 -41.5 -50s-15 -46.666 -15 -75.999c0 -28.667 5 -53.667 15 -75s23.833 -38 41.5 -50s38.834 -18 63.501 -18z" />
    <glyph glyph-name="e" unicode="e" horiz-adv-x="586" 
d="M324 -10c-58.667 0 -109.671 11.835 -153.004 35.502s-77 56 -101 97s-36 87.833 -36 140.5c0 40.667 6.66699 78 20 112s32 63.5 56 88.5s52.5 44.333 85.5 58s69.167 20.5 108.5 20.5c37.333 0 71.5 -6.66699 102.5 -20s57.833 -32 80.5 -56s40 -52.333 52 -85
s17.333 -68.334 16 -107.001l-1 -43h-423l-23 90h316l-17 -19v20c-1.33301 16.667 -6.5 31.5 -15.5 44.5s-20.833 23.167 -35.5 30.5s-31.334 11 -50.001 11c-26 0 -48.167 -5.16699 -66.5 -15.5s-32.166 -25.333 -41.499 -45s-14 -43.834 -14 -72.501
c0 -29.333 6.16699 -54.833 18.5 -76.5s30.333 -38.5 54 -50.5s51.834 -18 84.501 -18c22.667 0 42.834 3.33301 60.501 10s36.834 18 57.501 34l75 -106c-20.667 -18 -42.667 -32.667 -66 -44s-47.166 -19.833 -71.499 -25.5s-48.5 -8.5 -72.5 -8.5z" />
    <glyph glyph-name="f" unicode="f" horiz-adv-x="393" 
d="M104 0l0.000976562 556.998c0 34.667 7.5 66 22.5 94s36 50.167 63 66.5s58.5 24.5 94.5 24.5c25.333 0 48.666 -3.66699 69.999 -11s40.333 -17.666 57 -30.999l-46 -117c-8.66699 4.66699 -17 8.33398 -25 11.001s-15.333 4 -22 4c-12 0 -22 -2 -30 -6
s-13.833 -10.167 -17.5 -18.5s-5.5 -18.5 -5.5 -30.5v-543h-80h-47.5h-33.5zM27.001 383.998v132h347v-132h-347z" />
    <glyph glyph-name="g" unicode="g" horiz-adv-x="669" 
d="M314 -230c-43.333 0 -86.499 6.33496 -129.499 19.002s-77.833 29 -104.5 49l56 112c14 -9.33301 29.5 -17.5 46.5 -24.5s34.833 -12.5 53.5 -16.5s37.667 -6 57 -6c34 0 61.667 5 83 15s37.333 25.167 48 45.5s16 45.833 16 76.5v89l31 -5
c-4.66699 -22 -16.167 -42 -34.5 -60s-40.833 -32.5 -67.5 -43.5s-55 -16.5 -85 -16.5c-48 0 -90.833 11.167 -128.5 33.5s-67.334 53.333 -89.001 93s-32.5 85.5 -32.5 137.5c0 53.333 10.667 100.5 32 141.5s50.666 73.333 87.999 97s79.333 35.5 126 35.5
c20 0 39.167 -2.33301 57.5 -7s35.333 -10.834 51 -18.501s29.667 -16.667 42 -27s22.333 -21.5 30 -33.5s12.834 -24.333 15.501 -37l-33 -8l6 120h152v-488c0 -43.333 -6.5 -81.833 -19.5 -115.5s-32 -62.334 -57 -86.001s-55.167 -41.5 -90.5 -53.5s-75.333 -18 -120 -18
zM318.001 128.002c26 0 48.5 5.83301 67.5 17.5s33.667 27.834 44 48.501s15.5 45 15.5 73s-5.16699 52.5 -15.5 73.5s-25 37.333 -44 49s-41.5 17.5 -67.5 17.5c-25.333 0 -47.333 -5.83301 -66 -17.5s-33.167 -28 -43.5 -49s-15.5 -45.5 -15.5 -73.5
s5.16699 -52.333 15.5 -73s24.833 -36.834 43.5 -48.501s40.667 -17.5 66 -17.5z" />
    <glyph glyph-name="h" unicode="h" horiz-adv-x="635" 
d="M71 0v739.999h157v-317l-32 -12c7.33301 24 20.5 45.833 39.5 65.5s41.833 35.5 68.5 47.5s54.667 18 84 18c40 0 73.667 -8.16699 101 -24.5s48 -40.666 62 -72.999s21 -71.833 21 -118.5v-326h-161v313c0 21.333 -3 39 -9 53s-15.167 24.5 -27.5 31.5
s-27.5 10.167 -45.5 9.5c-14 0 -27 -2.16699 -39 -6.5s-22.333 -10.666 -31 -18.999s-15.5 -17.833 -20.5 -28.5s-7.5 -22.334 -7.5 -35.001v-318h-79h-48h-33z" />
    <glyph glyph-name="i" unicode="i" horiz-adv-x="319" 
d="M80 0v531h160v-531h-160zM160 636c-30 0 -53.499 7.16699 -70.499 21.5s-25.5 34.833 -25.5 61.5c0 24 8.66699 43.667 26 59s40.666 23 69.999 23c30 0 53.333 -7.16699 70 -21.5s25 -34.5 25 -60.5c0 -24.667 -8.5 -44.667 -25.5 -60s-40.167 -23 -69.5 -23z" />
    <glyph glyph-name="j" unicode="j" horiz-adv-x="316" 
d="M23 -210l-60.998 123.999c30.667 0 54.667 4 72 12s29.666 21.167 36.999 39.5s11 43.5 11 75.5v490h160v-528c0 -48.667 -8.33301 -88.667 -25 -120s-41.334 -54.666 -74.001 -69.999s-72.667 -23 -120 -23zM165.002 635.999c-30 0 -53.499 7.16699 -70.499 21.5
s-25.5 34.833 -25.5 61.5c0 24 8.66699 43.667 26 59s40.666 23 69.999 23c30 0 53.333 -7.16699 70 -21.5s25 -34.5 25 -60.5c0 -24.667 -8.5 -44.667 -25.5 -60s-40.167 -23 -69.5 -23z" />
    <glyph glyph-name="k" unicode="k" horiz-adv-x="626" 
d="M225 156l-59 120l248 255h211zM71 0v740h160v-740h-160zM431 0l-187 242l113 88l263 -330h-189z" />
    <glyph glyph-name="l" unicode="l" horiz-adv-x="304" 
d="M72 0v740h160v-740h-160z" />
    <glyph glyph-name="m" unicode="m" horiz-adv-x="962" 
d="M70 0l-0.00195312 531.003h152l5 -96l-21 -1c8 17.333 18.167 32.666 30.5 45.999s26.333 24.5 42 33.5s32 15.833 49 20.5s34.167 7 51.5 7c26 0 49.667 -4 71 -12s40 -20.833 56 -38.5s28.667 -41.5 38 -71.5l-25 2l8 16c8.66699 16 19.834 30.5 33.501 43.5
s28.834 24 45.501 33s34 15.833 52 20.5s35.333 7 52 7c42 0 77 -8.16699 105 -24.5s49.167 -40.833 63.5 -73.5s21.5 -72.334 21.5 -119.001v-324h-161v311c0 21.333 -3 39 -9 53s-14.833 24.5 -26.5 31.5s-26.167 10.5 -43.5 10.5c-14 0 -26.833 -2.33301 -38.5 -7
s-21.667 -11 -30 -19s-14.833 -17.333 -19.5 -28s-7 -22.667 -7 -36v-316h-161v312c0 20 -3 37 -9 51s-15 24.667 -27 32s-26 11 -42 11c-14 0 -26.833 -2.33301 -38.5 -7s-21.667 -11 -30 -19s-14.833 -17.333 -19.5 -28s-7 -22.334 -7 -35.001v-317h-161z" />
    <glyph glyph-name="n" unicode="n" horiz-adv-x="635" 
d="M71 0v530.999h152l5 -108l-32 -12c7.33301 24 20.5 45.833 39.5 65.5s41.833 35.5 68.5 47.5s54.667 18 84 18c40 0 73.667 -8.16699 101 -24.5s48 -40.666 62 -72.999s21 -71.833 21 -118.5v-326h-161v313c0 21.333 -3 39 -9 53s-15.167 24.5 -27.5 31.5
s-27.5 10.167 -45.5 9.5c-14 0 -27 -2.16699 -39 -6.5s-22.333 -10.666 -31 -18.999s-15.5 -17.833 -20.5 -28.5s-7.5 -22.334 -7.5 -35.001v-318h-79h-48h-33z" />
    <glyph glyph-name="o" unicode="o" horiz-adv-x="641" 
d="M321 -10c-55.333 0 -104.5 12 -147.5 36s-77 56.667 -102 98s-37.5 88.666 -37.5 141.999s12.5 100.666 37.5 141.999s59 74 102 98s92.167 36 147.5 36s104.5 -12 147.5 -36s76.833 -56.667 101.5 -98s37 -88.666 37 -141.999s-12.333 -100.666 -37 -141.999
s-58.5 -74 -101.5 -98s-92.167 -36 -147.5 -36zM321 128c24 0 45.333 6 64 18s33.334 28.333 44.001 49s15.667 44.334 15 71.001c0.666992 26.667 -4.33301 50.5 -15 71.5s-25.334 37.5 -44.001 49.5s-40 18 -64 18s-45.5 -6 -64.5 -18s-33.833 -28.5 -44.5 -49.5
s-15.667 -44.833 -15 -71.5c-0.666992 -26.667 4.33301 -50.334 15 -71.001s25.5 -37 44.5 -49s40.5 -18 64.5 -18z" />
    <glyph glyph-name="p" unicode="p" horiz-adv-x="659" 
d="M71 -220l0.000976562 751h152l6 -119l-30 9c4.66699 22 16 42 34 60s40.833 32.5 68.5 43.5s56.834 16.5 87.501 16.5c45.333 0 85.666 -11.833 120.999 -35.5s63.166 -56 83.499 -97s30.5 -88.5 30.5 -142.5c0 -53.333 -10.167 -100.666 -30.5 -141.999
s-48.333 -73.833 -84 -97.5s-76.5 -35.5 -122.5 -35.5c-30 0 -58.667 5.66699 -86 17s-50.333 26.666 -69 45.999s-31 40.333 -37 63l37 14v-351h-161zM348.001 126c24 0 45.001 5.83203 63.001 17.499s32 27.834 42 48.501s15 45.334 15 74.001c0 28 -5 52.5 -15 73.5
s-23.833 37.333 -41.5 49s-38.834 17.5 -63.501 17.5s-46 -5.66699 -64 -17s-32 -27.666 -42 -48.999s-15 -46 -15 -74c0 -28.667 5 -53.334 15 -74.001s24 -36.834 42 -48.501s39.333 -17.5 64 -17.5z" />
    <glyph glyph-name="q" unicode="q" horiz-adv-x="658" 
d="M426 -220v348.002l35 -8c-2.66699 -16.667 -9.66699 -32.834 -21 -48.501s-25.5 -29.5 -42.5 -41.5s-36.167 -21.5 -57.5 -28.5s-43.333 -10.5 -66 -10.5c-46.667 0 -88 11.833 -124 35.5s-64.333 56.167 -85 97.5s-31 88.666 -31 141.999c0 54 10.167 101.667 30.5 143
s48.333 73.833 84 97.5s75.834 35.5 120.501 35.5c25.333 0 49.333 -3.66699 72 -11s43 -17 61 -29s32.667 -25.833 44 -41.5s17.666 -32.167 18.999 -49.5l-36 -6l6 126h152v-751h-161zM310 126.002c24.667 0 46 5.66699 64 17s32 27.5 42 48.5s15 45.833 15 74.5
s-5 53.5 -15 74.5s-24 37.333 -42 49s-39.333 17.5 -64 17.5c-24 0 -45 -5.83301 -63 -17.5s-31.833 -28.167 -41.5 -49.5s-14.5 -46 -14.5 -74c0 -28.667 4.83301 -53.5 14.5 -74.5s23.5 -37.167 41.5 -48.5s39 -17 63 -17z" />
    <glyph glyph-name="r" unicode="r" horiz-adv-x="455" 
d="M71 0v530.999h152l7 -173l-30 33c8 28.667 21.167 54.334 39.5 77.001s39.833 40.667 64.5 54s51 20 79 20c12 0 23.167 -1 33.5 -3s19.833 -4.33301 28.5 -7l-44 -177c-7.33301 4.66699 -17.166 8.5 -29.499 11.5s-25.166 4.5 -38.499 4.5
c-14.667 0 -28.334 -2.5 -41.001 -7.5s-23.334 -12.167 -32.001 -21.5s-15.5 -20.333 -20.5 -33s-7.5 -27 -7.5 -43v-266h-161z" />
    <glyph glyph-name="s" unicode="s" horiz-adv-x="495" 
d="M250 -10c-52 0 -97.8369 8.33691 -137.504 25.0039s-71.167 39 -94.5 67l97 84c20.667 -20.667 44 -35.834 70 -45.501s50.667 -14.5 74 -14.5c9.33301 0 17.666 1 24.999 3s13.5 4.83301 18.5 8.5s8.83301 8 11.5 13s4 10.833 4 17.5c0 13.333 -6 23.666 -18 30.999
c-6 3.33301 -16 7.33301 -30 12s-32 10 -54 16c-31.333 8 -58.5 17.5 -81.5 28.5s-41.833 23.833 -56.5 38.5c-13.333 14 -23.666 29.5 -30.999 46.5s-11 36.167 -11 57.5c0 24.667 5.83301 47 17.5 67s27.334 37.333 47.001 52s42.334 25.834 68.001 33.501
s52.167 11.5 79.5 11.5c29.333 0 57.333 -3.33301 84 -10s51.5 -16 74.5 -28s43.5 -26.333 61.5 -43l-84 -94c-12 11.333 -25.5 21.5 -40.5 30.5s-30.5 16.167 -46.5 21.5s-30.667 8 -44 8c-10 0 -18.833 -0.833008 -26.5 -2.5s-14.167 -4.33398 -19.5 -8.00098
s-9.33301 -8 -12 -13s-4 -10.833 -4 -17.5s1.83301 -13 5.5 -19s8.83398 -11 15.501 -15s17.334 -8.5 32.001 -13.5s34.667 -11.167 60 -18.5c31.333 -8.66699 58.333 -18.334 81 -29.001s40.667 -23.334 54 -38.001c10.667 -11.333 18.667 -24.5 24 -39.5
s8 -31.167 8 -48.5c0 -34 -9.5 -64.167 -28.5 -90.5s-45.167 -47 -78.5 -62s-71.333 -22.5 -114 -22.5z" />
    <glyph glyph-name="t" unicode="t" horiz-adv-x="398" 
d="M115 0v665h160v-665h-160zM21 391v140h357v-140h-357z" />
    <glyph glyph-name="u" unicode="u" horiz-adv-x="642" 
d="M252 -11c-39.333 0 -72.833 8.49902 -100.5 25.499s-49 41.5 -64 73.5s-22.5 70.333 -22.5 115v328h161v-306c0 -21.333 3.33301 -39.666 10 -54.999s16.667 -27.166 30 -35.499s29.333 -12.5 48 -12.5c14 0 26.833 2.33301 38.5 7s21.667 11.167 30 19.5
s14.833 18 19.5 29s7 23.167 7 36.5v317h161v-531h-151l-7 109l30 12c-8 -25.333 -21.333 -47.833 -40 -67.5s-41 -35.334 -67 -47.001s-53.667 -17.5 -83 -17.5z" />
    <glyph glyph-name="v" unicode="v" horiz-adv-x="605" 
d="M234 0l-222 531h177l132 -397l-39 -4l136 401h175l-233 -531h-126z" />
    <glyph glyph-name="w" unicode="w" horiz-adv-x="834" 
d="M187 0l-175 531h169l98 -345l-21 4l110 268h94l116 -269l-23 -2l98 344h169l-181 -531h-118l-115 285l12 -2l-115 -283h-118z" />
    <glyph glyph-name="x" unicode="x" horiz-adv-x="606" 
d="M398 0l-113 171l-52 73l-210 287h192l109 -163l57 -78l207 -290h-190zM18 0l214 298l86 -103l-111 -195h-189zM369 231l-85 102l105 198h189z" />
    <glyph glyph-name="y" unicode="y" horiz-adv-x="620" 
d="M138 -230l121 284.999l2 -82l-256 558h181l112 -267c6 -13.333 11.667 -27.666 17 -42.999s9.33301 -30 12 -44l-22 -13c4 10 8.5 22.5 13.5 37.5l16.5 48.5l98 281h182l-226 -531l-92 -230h-159z" />
    <glyph glyph-name="z" unicode="z" horiz-adv-x="550" 
d="M50 0v92l282 362v-53h-282v130h440v-96l-267 -351l-4 46h280v-130h-449z" />
    <glyph glyph-name="braceleft" unicode="{" horiz-adv-x="427" 
d="M364 -206c-34 7.33301 -63.667 16.4951 -89 27.4951s-46.333 24.333 -63 40s-29 34.5 -37 56.5s-12 47 -12 75l1 95c0 33.333 -7.33301 58 -22 74s-35.667 24.333 -63 25h-40v126h42c27.333 0.666992 48 8.83398 62 24.501s21 40.5 21 74.5l-1 95
c0 54.667 16.167 97.834 48.5 129.501s83.166 54.834 152.499 69.501l35 -115c-23.333 -8 -41.666 -15.833 -54.999 -23.5s-22.833 -18.167 -28.5 -31.5s-8.5 -31.333 -8.5 -54l2 -84c0 -38.667 -11.833 -71 -35.5 -97s-60.5 -45.333 -110.5 -58l-1 15
c50.667 -14 87.834 -34 111.501 -60s35.5 -58 35.5 -96l-2 -84c0 -21.333 2.83301 -38.166 8.5 -50.499s15.167 -22.166 28.5 -29.499s31.666 -15 54.999 -23z" />
    <glyph glyph-name="bar" unicode="|" horiz-adv-x="318" 
d="M83 -193v933h152v-933h-152z" />
    <glyph glyph-name="braceright" unicode="}" horiz-adv-x="427" 
d="M63 -206l-35.998 115.005c24 8 42.5 15.833 55.5 23.5s22.333 18.167 28 31.5s8.5 31.333 8.5 54l-2 84c0 38.667 11.833 71 35.5 97s60.834 45.333 111.501 58v-15c-50.667 14 -87.834 34 -111.501 60s-35.5 58 -35.5 96l2 84c0 21.333 -2.66699 38.166 -8 50.499
s-14.666 22.166 -27.999 29.499s-32 15 -56 23l36 121c34 -6.66699 63.667 -15.667 89 -27s46.166 -24.833 62.499 -40.5s28.666 -34.5 36.999 -56.5s12.5 -47 12.5 -75l-1 -95c0 -33.333 7.16699 -58 21.5 -74s35.5 -24.333 63.5 -25h40v-126h-42
c-28 -0.666992 -48.833 -8.83398 -62.5 -24.501s-20.5 -40.5 -20.5 -74.5l1 -95c0 -54.667 -16.333 -97.834 -49 -129.501s-83.334 -54.834 -152.001 -69.501z" />
    <glyph glyph-name="asciitilde" unicode="~" horiz-adv-x="558" 
d="M383 202c-11.333 0 -23.498 1.5 -36.498 4.5s-25.833 6.83301 -38.5 11.5s-24.667 9.33398 -36 14.001c-10 4.66699 -20.5 9 -31.5 13s-21.167 7.33301 -30.5 10s-17.333 4 -24 4c-12.667 0 -22.334 -5.33301 -29.001 -16s-10 -26.334 -10 -47.001h-115
c0 64 12.333 113 37 147s63 51 115 51c8 0 17 -1 27 -3s19.667 -4.66699 29 -8l28.5 -10.5c9.66699 -3.66699 18.167 -7.16699 25.5 -10.5c8.66699 -3.33301 17.667 -7 27 -11s18.5 -7.33301 27.5 -10s16.833 -4 23.5 -4c11.333 0 20.666 5.5 27.999 16.5
s10.333 24.833 9 41.5l115 -1c0 -42 -5.33301 -77.167 -16 -105.5s-26.5 -49.833 -47.5 -64.5s-46.833 -22 -77.5 -22z" />
    <glyph glyph-name="uni00A0" unicode="&#xa0;" horiz-adv-x="320" 
 />
    <glyph glyph-name="exclamdown" unicode="&#xa1;" horiz-adv-x="309" 
d="M202 275l16.001 -125.501c5.33301 -43 9.66602 -86 12.999 -129s5 -84.167 5 -123.5v-78h-169v78c0 40 1.66699 81.833 5 125.5s7.83301 86.834 13.5 129.501l16.5 123h100zM152.001 540.999c28 0 49.5 -7.66699 64.5 -23s22.5 -37.333 22.5 -66
c0 -26.667 -8 -48.334 -24 -65.001s-37 -25 -63 -25c-27.333 0 -48.5 7.83301 -63.5 23.5s-22.5 37.834 -22.5 66.501c0 26 8 47.333 24 64s36.667 25 62 25z" />
    <glyph glyph-name="cent" unicode="&#xa2;" horiz-adv-x="563" 
d="M321 78c-52.667 0 -99.6689 12.001 -141.002 36.001s-74 56.833 -98 98.5s-36 88.834 -36 141.501s12 99.834 36 141.501s56.667 74.5 98 98.5s88.333 36 141 36c48 0 91.833 -8.33301 131.5 -25s70.834 -40 93.501 -70l-87 -104c-8.66699 10.667 -19.5 20.667 -32.5 30
s-27.167 16.666 -42.5 21.999s-31.333 8 -48 8c-26 0 -49 -5.83301 -69 -17.5s-35.833 -27.834 -47.5 -48.501s-17.5 -44.334 -17.5 -71.001c0 -25.333 5.83301 -48.333 17.5 -69s27.5 -37 47.5 -49s43 -18 69 -18c17.333 0 33.333 2.16699 48 6.5s28.167 10.833 40.5 19.5
s23.833 19.334 34.5 32.001l87 -105c-23.333 -28.667 -55.166 -51.334 -95.499 -68.001s-83.5 -25 -129.5 -25zM264.998 0.000976562v108l26 38v410l-26 50v100h120v-101l-22 -46v-416l22 -36v-107h-120z" />
    <glyph glyph-name="sterling" unicode="&#xa3;" horiz-adv-x="638" 
d="M186 53l-74.9971 21.0029c12 6.66699 22.833 16.667 32.5 30s17.334 28.166 23.001 44.499s8.5 32.166 8.5 47.499c0 9.33301 -1 20 -3 32s-4.83301 25 -8.5 39s-7.83398 28.167 -12.501 42.5l-14 42.5c-8 24.667 -14 45 -18 61s-6.83301 29.667 -8.5 41
s-2.5 22.333 -2.5 33c0 46 10.333 86.167 31 120.5s49.5 61 86.5 80s80.833 28.5 131.5 28.5c47.333 0 88.5 -8 123.5 -24s60.833 -38.333 77.5 -67l-121 -94c-6.66699 9.33301 -14.334 16.833 -23.001 22.5s-18.334 10 -29.001 13s-22 4.5 -34 4.5
c-18.667 0 -35.334 -4.16699 -50.001 -12.5s-26.167 -19.666 -34.5 -33.999s-12.5 -30.833 -12.5 -49.5c0 -20.667 2.83301 -41.334 8.5 -62.001s11.834 -40.667 18.501 -60c7.33301 -23.333 13.666 -45.833 18.999 -67.5s8 -40.5 8 -56.5c0 -20.667 -4 -40.334 -12 -59.001
s-20.833 -37.5 -38.5 -56.5s-41.5 -39.167 -71.5 -60.5zM449.003 -20.9971c-23.333 0 -46.8301 3 -70.4971 9s-42.834 11.333 -57.501 16l-30 9c-11.333 3.33301 -23.333 6.33301 -36 9s-25.334 4 -38.001 4c-22 0 -44.5 -3.33301 -67.5 -10s-46.833 -16 -71.5 -28l-57 114
c29.333 18 61 32.167 95 42.5s68.667 15.5 104 15.5c20 0 38.167 -1.66699 54.5 -5s38.833 -10 67.5 -20c14 -4.66699 29.333 -9.5 46 -14.5s34.667 -7.5 54 -7.5c14.667 0 31.167 2.83301 49.5 8.5s37.166 14.5 56.499 26.5l73 -105c-23.333 -21.333 -51 -37.333 -83 -48
s-61.667 -16 -89 -16zM44.0059 303.003v94h425v-94h-425z" />
    <glyph glyph-name="currency" unicode="&#xa4;" horiz-adv-x="560" 
d="M282 109c-39.333 0 -74.833 8.5 -106.5 25.5s-56.667 40.333 -75 70s-27.5 63.167 -27.5 100.5c0 38 9.16699 71.833 27.5 101.5s43.333 53 75 70s67.167 25.5 106.5 25.5s74.666 -8.66699 105.999 -26s56 -40.833 74 -70.5s27 -63.167 27 -100.5s-9 -70.833 -27 -100.5
s-42.667 -53 -74 -70s-66.666 -25.5 -105.999 -25.5zM131 60l-99 99l86 90l98 -102zM112 370l-84 82l99 99l86 -84zM282 227c14 0 26.5 3.33301 37.5 10s19.5 15.834 25.5 27.501s9 25.167 9 40.5c0 16 -3 30 -9 42s-14.5 21.333 -25.5 28s-23.5 10 -37.5 10
s-26.5 -3.33301 -37.5 -10s-19.667 -16 -26 -28s-9.5 -26 -9.5 -42c0 -15.333 3.16699 -28.833 9.5 -40.5s15 -20.834 26 -27.501s23.5 -10 37.5 -10zM435 64l-88 85l97 100l90 -86zM443 362l-99 98l91 95l99 -99z" />
    <glyph glyph-name="yen" unicode="&#xa5;" horiz-adv-x="689" 
d="M269 0v349l7 -49l-283 400h193l216 -310l-88 3l195 307h187l-271 -411l15 68v-357h-171zM142 123v71h435v-72zM142 246v71l435 -1v-71z" />
    <glyph glyph-name="brokenbar" unicode="&#xa6;" horiz-adv-x="324" 
d="M85 -202v394h154v-394h-154zM85 347v393h154v-393h-154z" />
    <glyph glyph-name="section" unicode="&#xa7;" horiz-adv-x="575" 
d="M348 132l-40.001 79.998c18.667 2 34 5.83301 46 11.5s20.833 12.667 26.5 21s8.5 17.5 8.5 27.5c0 12 -4.5 22 -13.5 30s-23.5 16 -43.5 24l-85 29c-20.667 8.66699 -41 18.5 -61 29.5s-37.833 24 -53.5 39s-28.334 32.667 -38.001 53s-14.5 43.833 -14.5 70.5
c0 22.667 4.5 44.334 13.5 65.001s22.667 38.834 41 54.501s42 27.834 71 36.501s63.167 13 102.5 13c32 0 61.833 -3.5 89.5 -10.5s52.334 -17.167 74.001 -30.5s40.5 -29.333 56.5 -48l-83 -90c-17.333 15.333 -34 27.166 -50 35.499s-31.333 14.333 -46 18
s-28.667 5.5 -42 5.5c-23.333 0 -41.5 -4.66699 -54.5 -14s-19.5 -21.333 -19.5 -36c0 -10.667 3.5 -20.167 10.5 -28.5s16.5 -15.5 28.5 -21.5s25.667 -12 41 -18l85 -32c48.667 -18 84.834 -40.167 108.501 -66.5s35.167 -58.166 34.5 -95.499
c-1.33301 -29.333 -9.83301 -55 -25.5 -77s-37.5 -39.333 -65.5 -52s-62 -20.334 -102 -23.001zM270.999 -142.002c-32.667 0 -63.8359 4.00098 -93.5029 12.001s-56.667 19 -81 33s-44.833 29.667 -61.5 47l80 95c28.667 -24 56.334 -41.333 83.001 -52s50.667 -16 72 -16
c24.667 0 43.667 4.33301 57 13s20 21 20 37c0 10.667 -4.16699 19.834 -12.5 27.501s-19 14.667 -32 21s-27.5 12.5 -43.5 18.5l-85 31c-46.667 17.333 -81.667 39.333 -105 66s-35 58.667 -35 96c0 27.333 7.33301 52.166 22 74.499s35.834 40.5 63.501 54.5
s61.167 22 100.5 24l39 -84c-14.667 -1.33301 -27.167 -4.83301 -37.5 -10.5s-18.166 -12.334 -23.499 -20.001s-8 -16.834 -8 -27.501c0 -12.667 5 -23.5 15 -32.5s26 -17.5 48 -25.5l71 -25c34.667 -13.333 65.167 -27.833 91.5 -43.5s47 -34.5 62 -56.5
s22.5 -49 22.5 -81c0 -33.333 -8 -63.166 -24 -89.499s-40.833 -47.333 -74.5 -63s-77.167 -23.5 -130.5 -23.5z" />
    <glyph glyph-name="dieresis" unicode="&#xa8;" horiz-adv-x="500" 
d="M371 626c-28 0 -49.501 7.33301 -64.501 22s-22.5 35.667 -22.5 63c0 25.333 7.83301 45.833 23.5 61.5s36.834 23.5 63.501 23.5c27.333 0 48.5 -7.33301 63.5 -22s22.5 -35.667 22.5 -63c0 -25.333 -7.66699 -45.833 -23 -61.5s-36.333 -23.5 -63 -23.5zM129.999 626
c-28 0 -49.5 7.33301 -64.5 22s-22.5 35.667 -22.5 63c0 25.333 7.83301 45.833 23.5 61.5s36.834 23.5 63.501 23.5c28 0 49.5 -7.33301 64.5 -22s22.5 -35.667 22.5 -63c0 -25.333 -7.83301 -45.833 -23.5 -61.5s-36.834 -23.5 -63.501 -23.5z" />
    <glyph glyph-name="copyright" unicode="&#xa9;" horiz-adv-x="791" 
d="M395 -18c-52 0 -100.167 9.33301 -144.5 28s-83.333 44.834 -117 78.501s-60 72.834 -79 117.501s-28.5 92.667 -28.5 144s9.5 99.333 28.5 144s45.333 83.834 79 117.501s72.667 59.834 117 78.501s92.5 28 144.5 28c50.667 0 98.334 -9.33301 143.001 -28
s83.834 -44.834 117.501 -78.501s60 -72.834 79 -117.501s28.5 -92.667 28.5 -144s-9.5 -99.333 -28.5 -144s-45.333 -83.834 -79 -117.501s-72.834 -59.834 -117.501 -78.501s-92.334 -28 -143.001 -28zM410 143c-39.333 0 -74.998 8.99805 -106.998 26.998
s-57.5 42.5 -76.5 73.5s-28.5 66.167 -28.5 105.5c0 38 9.5 72.833 28.5 104.5s44.5 56.834 76.5 75.501s67.667 28 107 28c24 0 47.333 -4.16699 70 -12.5s44.667 -20.166 66 -35.499l-49 -105c-10 6.66699 -19.333 12.167 -28 16.5s-16.834 7.5 -24.501 9.5
s-15.167 3 -22.5 3c-16.667 0 -31.5 -3.83301 -44.5 -11.5s-23.333 -17.667 -31 -30s-11.5 -26.5 -11.5 -42.5s3.83301 -30.333 11.5 -43s18 -22.667 31 -30s27.833 -11 44.5 -11c12 0 24.5 2.16699 37.5 6.5s26.5 11.833 40.5 22.5l50 -107
c-21.333 -14.667 -43.833 -25.667 -67.5 -33s-47.834 -11 -72.501 -11zM395.002 55.998c40.667 0 78.834 7.5 114.501 22.5s66.834 36 93.501 63s47.667 58.333 63 94s23 73.834 23 114.501c0 41.333 -7.66699 79.833 -23 115.5s-36.333 66.834 -63 93.501
s-57.834 47.5 -93.501 62.5s-73.834 22.5 -114.501 22.5c-41.333 0 -79.833 -7.5 -115.5 -22.5s-66.834 -35.833 -93.501 -62.5s-47.667 -57.834 -63 -93.501s-23 -74.167 -23 -115.5c0 -40.667 7.66699 -78.834 23 -114.501s36.333 -67 63 -94s57.834 -48 93.501 -63
s74.167 -22.5 115.5 -22.5z" />
    <glyph glyph-name="ordfeminine" unicode="&#xaa;" horiz-adv-x="391" 
d="M140 390c-25.333 0 -47.168 7.16699 -65.501 21.5s-32.333 34.5 -42 60.5s-14.5 56 -14.5 90c0 30.667 5.66699 58 17 82s27 43 47 57s43.333 21 70 21c36.667 0 63.834 -10.833 81.501 -32.5s26.5 -52.167 26.5 -91.5l-21 50v67h116v-314h-116v73l21 32
c0 -19.333 -4.83301 -37.833 -14.5 -55.5s-23.5 -32.167 -41.5 -43.5s-39.333 -17 -64 -17zM185.998 481c11.333 0 21.332 3.16895 29.999 9.50195s15.334 15.166 20.001 26.499s7 24.666 7 39.999c0 22.667 -5.16699 40.667 -15.5 54s-24.5 20 -42.5 20
c-10 0 -19 -3.16699 -27 -9.5s-14.167 -14.833 -18.5 -25.5s-6.5 -22.667 -6.5 -36c0 -16 2 -30 6 -42s10 -21.167 18 -27.5s17.667 -9.5 29 -9.5z" />
    <glyph glyph-name="guillemotleft" unicode="&#xab;" horiz-adv-x="562" 
d="M433 26l-176 226v13l176 227l91 -63l-122 -187v34l123 -186zM186 26l-176 226v13l176 227l91 -63l-122 -187v34l123 -186z" />
    <glyph glyph-name="logicalnot" unicode="&#xac;" horiz-adv-x="670" 
d="M478 106v213l65 -42h-502v138h588v-309h-151z" />
    <glyph glyph-name="uni00AD" unicode="&#xad;" horiz-adv-x="454" 
d="M57 214v147h346v-147h-346z" />
    <glyph glyph-name="registered" unicode="&#xae;" horiz-adv-x="507" 
d="M260 236c-47.333 0 -90.167 11.001 -128.5 33.001s-68.666 51.833 -90.999 89.5s-33.5 79.5 -33.5 125.5c0 34.667 6.5 67 19.5 97s31 56.333 54 79s49.833 40.334 80.5 53.001s63.667 19 99 19c33.333 0 64.833 -6.33301 94.5 -19s55.834 -30.5 78.501 -53.5
s40.5 -49.333 53.5 -79s19.5 -61.834 19.5 -96.501s-6.33301 -67 -19 -97s-30.334 -56.333 -53.001 -79s-48.834 -40.334 -78.501 -53.001s-61.5 -19 -95.5 -19zM259.999 300.001c33.333 0 63.833 8.16699 91.5 24.5s49.667 38.5 66 66.5s24.5 59 24.5 93
s-8.16699 65 -24.5 93s-38.333 50.333 -66 67s-58.167 25 -91.5 25c-35.333 0 -67.333 -8.33301 -96 -25s-51.5 -39 -68.5 -67s-25.5 -59 -25.5 -93c0 -34.667 8.5 -66 25.5 -94s39.833 -50 68.5 -66s60.667 -24 96 -24zM292.999 367.001l-37 89l68 16l55 -105h-86z
M158.999 367.001v239.001h121c25.333 0 46 -7 62 -21s24 -32.333 24 -55s-8.33301 -41.334 -25 -56.001s-37 -22 -61 -22h-55l14 12v-97h-80zM238.999 495.002l-13 7h34c8 0 14.667 2 20 6s8 9 8 15c0 6.66699 -2.16699 12 -6.5 16s-10.833 6 -19.5 6h-38l15 8v-58z" />
    <glyph glyph-name="macron" unicode="&#xaf;" horiz-adv-x="424" 
d="M82 634v101h336v-101h-336z" />
    <glyph glyph-name="degree" unicode="&#xb0;" horiz-adv-x="532" 
d="M266 393c-31.333 0 -59.666 7.16797 -84.999 21.501s-45.333 33.666 -60 57.999s-22 51.166 -22 80.499c0 30.667 7.16699 58.167 21.5 82.5s34.166 43.666 59.499 57.999s54 21.5 86 21.5s60.667 -7.16699 86 -21.5s45.166 -33.666 59.499 -57.999
s21.5 -51.5 21.5 -81.5s-7.33301 -57.167 -22 -81.5s-34.667 -43.666 -60 -57.999s-53.666 -21.5 -84.999 -21.5zM266 489.001c11.333 0 21.499 3 30.499 9s16.167 13.833 21.5 23.5s8 20.5 8 32.5s-2.66699 22.833 -8 32.5s-12.5 17.334 -21.5 23.001
s-19.167 8.5 -30.5 8.5s-21.666 -2.83301 -30.999 -8.5s-16.5 -13.5 -21.5 -23.5s-7.5 -21 -7.5 -33s2.66699 -22.833 8 -32.5s12.5 -17.334 21.5 -23.001s19.167 -8.5 30.5 -8.5z" />
    <glyph glyph-name="plusminus" unicode="&#xb1;" horiz-adv-x="641" 
d="M67 313v130h505v-130h-505zM69 -6v131h504v-131h-504zM245 184v392h150v-392h-150z" />
    <glyph glyph-name="uni00B2" unicode="&#xb2;" horiz-adv-x="364" 
d="M60 418l-13.001 84.002l102 83c10.667 7.33301 20.834 15.5 30.501 24.5s17.667 18.667 24 29s9.5 20.166 9.5 29.499c0 8.66699 -2.33301 15.667 -7 21s-11.334 8 -20.001 8c-12.667 0 -25.167 -5.16699 -37.5 -15.5s-23.166 -22.833 -32.499 -37.5l-78 56
c14 20.667 29 38.167 45 52.5s33.167 25 51.5 32s38.5 10.5 60.5 10.5c26 0 48.5 -4.83301 67.5 -14.5s33.667 -22.834 44 -39.501s15.5 -35 15.5 -55c0 -26.667 -6.33301 -50 -19 -70s-28.5 -37.5 -47.5 -52.5s-37.833 -28.5 -56.5 -40.5l-54 -40l2 25h185v-90h-272z" />
    <glyph glyph-name="uni00B3" unicode="&#xb3;" horiz-adv-x="356" 
d="M177 412c-18.667 0 -35.832 1.16699 -51.499 3.5s-30.667 6 -45 11s-29.166 11.5 -44.499 19.5l45 78c11.333 -6.66699 23 -11.667 35 -15s24.333 -5 37 -5c15.333 0 27.666 3.5 36.999 10.5s14 16.5 14 28.5c0 10 -4.33301 18 -13 24s-20.667 9 -36 9
c-8.66699 0 -17.834 -0.833008 -27.501 -2.5s-19.167 -3.83398 -28.5 -6.50098l-23 61l143 99l8 -29h-164v91h219l10 -85l-120 -86l-6 7c6.66699 4 14.167 7.16699 22.5 9.5s14.833 3.5 19.5 3.5c30.667 0 56 -9.5 76 -28.5s30 -44.167 30 -75.5
c0 -24 -6.33301 -45.167 -19 -63.5s-29.5 -32.666 -50.5 -42.999s-43.5 -15.5 -67.5 -15.5z" />
    <glyph glyph-name="acute" unicode="&#xb4;" horiz-adv-x="500" 
d="M171 583l-47 73l179 142l73 -105z" />
    <glyph glyph-name="uni00B5" unicode="&#xb5;" horiz-adv-x="639" 
d="M74 -162l-0.00195312 692.999h158v-309c0 -22 3.16699 -40.333 9.5 -55s15.5 -25.834 27.5 -33.501s27 -11.5 45 -11.5c14 0 26.833 2.5 38.5 7.5s21.834 12 30.501 21s15.334 19.333 20.001 31s7 24.167 7 37.5v312h158v-531h-148l-6 100l15 -10
c-13.333 -23.333 -27.833 -42.166 -43.5 -56.499s-33.5 -25 -53.5 -32s-42.667 -11.167 -68 -12.5c-8 0 -15.5 1 -22.5 3s-13 4.83301 -18 8.5s-8.83301 7.83398 -11.5 12.501l14 53l6 -228h-158z" />
    <glyph glyph-name="paragraph" unicode="&#xb6;" horiz-adv-x="763" 
d="M247 0l-0.00195312 314l47 -41h-63c-36 0 -68.167 9.16699 -96.5 27.5s-50.666 43.333 -66.999 75s-24.5 67.5 -24.5 107.5c0 44 9.33301 82.167 28 114.5s44.834 57.5 78.501 75.5s73.167 27 118.5 27h407v-700h-165v660l50 -64h-226l79 56v-652h-166z" />
    <glyph glyph-name="periodcentered" unicode="&#xb7;" horiz-adv-x="257" 
d="M128 253c-27.333 0 -48.499 7.66699 -63.499 23s-22.5 37.333 -22.5 66c0 26.667 8 48.334 24 65.001s36.667 25 62 25c27.333 0 48.666 -7.83301 63.999 -23.5s23 -37.834 23 -66.501c0 -26 -8 -47.333 -24 -64s-37 -25 -63 -25z" />
    <glyph glyph-name="cedilla" unicode="&#xb8;" horiz-adv-x="500" 
d="M152 -246l-9.99805 75.0039c14 0 28.5 1.66699 43.5 5s27.667 8.16602 38 14.499s15.5 13.166 15.5 20.499c0 8 -3.83301 14.333 -11.5 19s-16.834 8.16699 -27.501 10.5s-21.334 3.5 -32.001 3.5l-17 14l69 108h82l-46 -67c34.667 -4 60.5 -14.833 77.5 -32.5
s25.5 -38.834 25.5 -63.501c0 -20.667 -6.5 -37.834 -19.5 -51.501s-29.833 -24.834 -50.5 -33.501s-43 -14.667 -67 -18s-47.333 -4.66602 -70 -3.99902z" />
    <glyph glyph-name="uni00B9" unicode="&#xb9;" horiz-adv-x="291" 
d="M116 430v292l17 -41l-61 -38l-46 83l117 70h87v-366h-57h-28h-29z" />
    <glyph glyph-name="ordmasculine" unicode="&#xba;" horiz-adv-x="400" 
d="M199 393c-32 0 -60.668 6.83594 -86.001 20.5029s-45.333 32.667 -60 57s-22 51.833 -22 82.5c0 31.333 7.33301 59.166 22 83.499s34.667 43.666 60 57.999s54 21.5 86 21.5s60.833 -7.16699 86.5 -21.5s45.834 -33.833 60.501 -58.5s22 -52.334 22 -83.001
s-7.16699 -58 -21.5 -82s-34.5 -43 -60.5 -57s-55 -21 -87 -21zM197.999 477.003c11.333 0 21.167 3.33203 29.5 9.99902s14.833 15.834 19.5 27.501s7 25.167 7 40.5s-2.16699 28.666 -6.5 39.999s-10.666 20 -18.999 26s-18.5 9 -30.5 9c-10.667 0 -20 -3.16699 -28 -9.5
s-14.333 -15.166 -19 -26.499s-7 -24.333 -7 -39c0 -16 2.16699 -29.833 6.5 -41.5s10.666 -20.667 18.999 -27s17.833 -9.5 28.5 -9.5z" />
    <glyph glyph-name="guillemotright" unicode="&#xbb;" horiz-adv-x="565" 
d="M378 29l-91 63l122 187v-34l-123 186l92 64l175 -226v-13zM129 29l-91 63l122 187v-34l-123 186l92 64l175 -226v-13z" />
    <glyph glyph-name="onequarter" unicode="&#xbc;" horiz-adv-x="821" 
d="M125 360v292l17 -41l-61 -38l-46 83l117 70h87v-366h-57h-28h-29zM89 0l467 700h145l-468 -700h-144zM712 159h74v-90h-74v90zM527 125l-16 34h147l-34 -34v158l29 -11zM728 -1h-121v104l31 -34h-177l-20 80l181 220h106v-370z" />
    <glyph glyph-name="onehalf" unicode="&#xbd;" horiz-adv-x="827" 
d="M125 360v292l17 -41l-61 -38l-46 83l117 70h87v-366h-57h-28h-29zM89 0l467 700h145l-468 -700h-144zM519 0l-13.001 84.002l102 83c10.667 7.33301 20.834 15.5 30.501 24.5s17.667 18.667 24 29s9.5 20.166 9.5 29.499c0 8.66699 -2.33301 15.667 -7 21
s-11.334 8 -20.001 8c-12.667 0 -25.167 -5.16699 -37.5 -15.5s-23.166 -22.833 -32.499 -37.5l-78 56c14 20.667 29 38.167 45 52.5s33.167 25 51.5 32s38.5 10.5 60.5 10.5c26 0 48.5 -4.83301 67.5 -14.5s33.667 -22.834 44 -39.501s15.5 -35 15.5 -55
c0 -26.667 -6.33301 -50 -19 -70s-28.5 -37.5 -47.5 -52.5s-37.833 -28.5 -56.5 -40.5l-54 -40l2 25h185v-90h-272z" />
    <glyph glyph-name="threequarters" unicode="&#xbe;" horiz-adv-x="850" 
d="M164 342c-18.667 0 -35.832 1.16699 -51.499 3.5s-30.667 6 -45 11s-29.166 11.5 -44.499 19.5l45 78c11.333 -6.66699 23 -11.667 35 -15s24.333 -5 37 -5c15.333 0 27.666 3.5 36.999 10.5s14 16.5 14 28.5c0 10 -4.33301 18 -13 24s-20.667 9 -36 9
c-8.66699 0 -17.834 -0.833008 -27.501 -2.5s-19.167 -3.83398 -28.5 -6.50098l-23 61l143 99l8 -29h-164v91h219l10 -85l-120 -86l-6 7c6.66699 4 14.167 7.16699 22.5 9.5s14.833 3.5 19.5 3.5c30.667 0 56 -9.5 76 -28.5s30 -44.167 30 -75.5
c0 -24 -6.33301 -45.167 -19 -63.5s-29.5 -32.666 -50.5 -42.999s-43.5 -15.5 -67.5 -15.5zM123.002 0l467 700h145l-468 -700h-144zM741.002 159h74v-90h-74v90zM556.002 125l-16 34h147l-34 -34v158l29 -11zM757.002 -1h-121v104l31 -34h-177l-20 80l181 220h106v-370z
" />
    <glyph glyph-name="questiondown" unicode="&#xbf;" horiz-adv-x="536" 
d="M324 294l31.9961 -131.002c-19.333 -4.66699 -37.666 -10.167 -54.999 -16.5s-33.166 -13.166 -47.499 -20.499s-26.833 -15.833 -37.5 -25.5s-18.834 -20.167 -24.501 -31.5s-8.5 -24 -8.5 -38c0 -12.667 3.16699 -24 9.5 -34s15.333 -17.667 27 -23
s24.834 -8 39.501 -8c22.667 0 44.834 7.83301 66.501 23.5s41.834 40.834 60.501 75.501l110 -101c-30.667 -46 -66.667 -81.667 -108 -107s-85 -38 -131 -38c-44 0 -83.5 8.83301 -118.5 26.5s-62.833 42 -83.5 73s-31 65.833 -31 104.5c0 25.333 5 49.833 15 73.5
s24.167 46 42.5 67s40 39.5 65 55.5s52.167 28.333 81.5 37l10 38h86zM359.996 455.998c0 -26.667 -7.83301 -48.334 -23.5 -65.001s-36.5 -25 -62.5 -25c-27.333 0 -48.5 7.83301 -63.5 23.5s-22.5 37.834 -22.5 66.501c0 26 8 47.333 24 64s36.667 25 62 25
c27.333 0 48.5 -7.66699 63.5 -23s22.5 -37.333 22.5 -66z" />
    <glyph glyph-name="Agrave" unicode="&#xc0;" horiz-adv-x="694" 
d="M-1 0l276.999 700.002h144l275 -700h-172l-132 355c-5.33301 14 -10.666 29 -15.999 45l-16 49.5l-15.5 50c-5 16.333 -9.16699 31.5 -12.5 45.5l30 1c-4 -16.667 -8.5 -33 -13.5 -49l-15 -47.5c-5 -15.667 -10.5 -31.334 -16.5 -47.001s-11.667 -31.834 -17 -48.501
l-132 -354h-168zM130.999 134.002l53 128h322l52 -128h-427zM444.999 748.002l-227 78l55 117l209 -115z" />
    <glyph glyph-name="Aacute" unicode="&#xc1;" horiz-adv-x="694" 
d="M-1 0l276.999 700.002h144l275 -700h-172l-132 355c-5.33301 14 -10.666 29 -15.999 45l-16 49.5l-15.5 50c-5 16.333 -9.16699 31.5 -12.5 45.5l30 1c-4 -16.667 -8.5 -33 -13.5 -49l-15 -47.5c-5 -15.667 -10.5 -31.334 -16.5 -47.001s-11.667 -31.834 -17 -48.501
l-132 -354h-168zM130.999 134.002l53 128h322l52 -128h-427zM257.999 748.002l-37 80l209 115l55 -117z" />
    <glyph glyph-name="Acircumflex" unicode="&#xc2;" horiz-adv-x="694" 
d="M-1 0l276.999 700.002h144l275 -700h-172l-132 355c-5.33301 14 -10.666 29 -15.999 45l-16 49.5l-15.5 50c-5 16.333 -9.16699 31.5 -12.5 45.5l30 1c-4 -16.667 -8.5 -33 -13.5 -49l-15 -47.5c-5 -15.667 -10.5 -31.334 -16.5 -47.001s-11.667 -31.834 -17 -48.501
l-132 -354h-168zM130.999 134.002l53 128h322l52 -128h-427zM214.999 754.002l-49 57l136 106h90l136 -106l-49 -57l-147 71h30z" />
    <glyph glyph-name="Atilde" unicode="&#xc3;" horiz-adv-x="694" 
d="M-1 0l276.999 700.002h144l275 -700h-172l-132 355c-5.33301 14 -10.666 29 -15.999 45l-16 49.5l-15.5 50c-5 16.333 -9.16699 31.5 -12.5 45.5l30 1c-4 -16.667 -8.5 -33 -13.5 -49l-15 -47.5c-5 -15.667 -10.5 -31.334 -16.5 -47.001s-11.667 -31.834 -17 -48.501
l-132 -354h-168zM130.999 134.002l53 128h322l52 -128h-427zM423.999 768.002c-13.333 0 -26.665 2 -39.998 6s-28 9.33301 -44 16c-12 6 -22.167 10.333 -30.5 13s-15.833 4 -22.5 4c-9.33301 0 -16.833 -3.33301 -22.5 -10s-8.5 -16 -8.5 -28h-100
c0 44 12.167 78.5 36.5 103.5s54.833 37.5 91.5 37.5c12 0 23.833 -1.66699 35.5 -5s26.5 -9 44.5 -17c10.667 -5.33301 19.667 -9.33301 27 -12s14 -4 20 -4c8.66699 0 15.5 3.5 20.5 10.5s7.16699 16.167 6.5 27.5h99c0 -25.333 -4.83301 -49 -14.5 -71
s-22.834 -39.333 -39.501 -52s-36.334 -19 -59.001 -19z" />
    <glyph glyph-name="Adieresis" unicode="&#xc4;" horiz-adv-x="694" 
d="M-1 0l276.999 700.002h144l275 -700h-172l-132 355c-5.33301 14 -10.666 29 -15.999 45l-16 49.5l-15.5 50c-5 16.333 -9.16699 31.5 -12.5 45.5l30 1c-4 -16.667 -8.5 -33 -13.5 -49l-15 -47.5c-5 -15.667 -10.5 -31.334 -16.5 -47.001s-11.667 -31.834 -17 -48.501
l-132 -354h-168zM130.999 134.002l53 128h322l52 -128h-427zM468.999 754.002c-28.667 0 -50.333 7.5 -65 22.5s-22 35.833 -22 62.5c0 24 7.66699 44.167 23 60.5s36.666 24.5 63.999 24.5c28 0 49.5 -7.5 64.5 -22.5s22.5 -35.833 22.5 -62.5
c0 -24 -7.66699 -44.167 -23 -60.5s-36.666 -24.5 -63.999 -24.5zM226 754.002c-28.667 0 -50.333 7.5 -65 22.5s-22 35.833 -22 62.5c0 24 7.5 44.167 22.5 60.5s36.5 24.5 64.5 24.5s49.333 -7.5 64 -22.5s22 -35.833 22 -62.5c0 -24 -7.5 -44.167 -22.5 -60.5
s-36.167 -24.5 -63.5 -24.5z" />
    <glyph glyph-name="Aring" unicode="&#xc5;" horiz-adv-x="694" 
d="M-1 0l276.999 700.002h144l275 -700h-172l-132 355c-5.33301 14 -10.666 29 -15.999 45l-16 49.5l-15.5 50c-5 16.333 -9.16699 31.5 -12.5 45.5l30 1c-4 -16.667 -8.5 -33 -13.5 -49l-15 -47.5c-5 -15.667 -10.5 -31.334 -16.5 -47.001s-11.667 -31.834 -17 -48.501
l-132 -354h-168zM130.999 134.002l53 128h322l52 -128h-427zM346.999 673.002c-23.333 0 -45.168 5.66699 -65.501 17s-36.666 26.333 -48.999 45s-18.5 38.667 -18.5 60c0 24 6.16699 45.833 18.5 65.5s28.5 35.167 48.5 46.5s42 17 66 17c23.333 0 45 -5.66699 65 -17
s36.167 -26.833 48.5 -46.5s18.5 -41.5 18.5 -65.5c0 -21.333 -6.16699 -41.333 -18.5 -60s-28.5 -33.667 -48.5 -45s-41.667 -17 -65 -17zM346.997 755.002c11.333 0 21 4 29 12s12 17.333 12 28c0 12.667 -4.16699 22.834 -12.5 30.501s-17.833 11.5 -28.5 11.5
c-11.333 0 -21 -3.83301 -29 -11.5s-12 -17.834 -12 -30.501c0 -10.667 4 -20 12 -28s17.667 -12 29 -12z" />
    <glyph glyph-name="AE" unicode="&#xc6;" horiz-adv-x="1075" 
d="M-9 0l488 700h537v-140h-328v-138h283v-135h-283v-147h328v-140h-490v143h-269l91 133h178v282l25 -8l-376 -550h-184z" />
    <glyph glyph-name="Ccedilla" unicode="&#xc7;" horiz-adv-x="694" 
d="M406 -10c-52.667 0 -101.159 8.83691 -145.492 26.5039s-82.833 42.667 -115.5 75s-57.834 70.666 -75.501 114.999s-26.5 93.166 -26.5 146.499c0 52 9.33301 100 28 144s44.5 82.167 77.5 114.5s72 57.5 117 75.5s94.167 27 147.5 27c33.333 0 66 -4.33301 98 -13
s61.833 -21.5 89.5 -38.5s51.5 -37.167 71.5 -60.5l-104 -119c-14 14.667 -28.833 27.5 -44.5 38.5s-32.834 19.5 -51.501 25.5s-38.667 9 -60 9c-26.667 0 -51.834 -4.83301 -75.501 -14.5s-44.334 -23.334 -62.001 -41.001s-31.5 -39.167 -41.5 -64.5
s-15 -53.666 -15 -84.999c0 -30.667 5 -58.5 15 -83.5s24 -46.5 42 -64.5s39.833 -31.667 65.5 -41s54.167 -14 85.5 -14c21.333 0 41.666 3 60.999 9s37.166 14.167 53.499 24.5s30.833 22.166 43.5 35.499l82 -130c-16.667 -18.667 -38.834 -35.334 -66.501 -50.001
s-58.334 -26.167 -92.001 -34.5s-67.5 -12.5 -101.5 -12.5zM298.008 -245.996l-8.99805 75.0039c13.333 0 27.5 1.66699 42.5 5s27.833 8.16602 38.5 14.499s16 13.166 16 20.499c0 8 -3.83301 14.333 -11.5 19s-16.834 8.16699 -27.501 10.5s-21.334 3.5 -32.001 3.5
l-18 14l69 108h82l-45 -67c34.667 -4 60.334 -14.833 77.001 -32.5s25 -38.834 25 -63.501c0 -20.667 -6.33301 -37.834 -19 -51.501s-29.334 -24.834 -50.001 -33.501s-43 -14.667 -67 -18s-47.667 -4.66602 -71 -3.99902z" />
    <glyph glyph-name="Egrave" unicode="&#xc8;" horiz-adv-x="645" 
d="M88 0v700h488v-145h-323v-410h333v-145h-498zM168 287v138h363v-138h-363zM441 748l-227 78l55 117l209 -115z" />
    <glyph glyph-name="Eacute" unicode="&#xc9;" horiz-adv-x="645" 
d="M88 0v700h488v-145h-323v-410h333v-145h-498zM168 287v138h363v-138h-363zM254 748l-37 80l209 115l55 -117z" />
    <glyph glyph-name="Ecircumflex" unicode="&#xca;" horiz-adv-x="645" 
d="M88 0v700h488v-145h-323v-410h333v-145h-498zM168 287v138h363v-138h-363zM210 754l-49 57l136 106h90l136 -106l-49 -57l-147 71h30z" />
    <glyph glyph-name="Edieresis" unicode="&#xcb;" horiz-adv-x="645" 
d="M88 0v700h488v-145h-323v-410h333v-145h-498zM168 287v138h363v-138h-363zM464 754c-28.667 0 -50.333 7.5 -65 22.5s-22 35.833 -22 62.5c0 24 7.66699 44.167 23 60.5s36.666 24.5 63.999 24.5c28 0 49.5 -7.5 64.5 -22.5s22.5 -35.833 22.5 -62.5
c0 -24 -7.66699 -44.167 -23 -60.5s-36.666 -24.5 -63.999 -24.5zM221.001 754c-28.667 0 -50.333 7.5 -65 22.5s-22 35.833 -22 62.5c0 24 7.5 44.167 22.5 60.5s36.5 24.5 64.5 24.5s49.333 -7.5 64 -22.5s22 -35.833 22 -62.5c0 -24 -7.5 -44.167 -22.5 -60.5
s-36.167 -24.5 -63.5 -24.5z" />
    <glyph glyph-name="Igrave" unicode="&#xcc;" horiz-adv-x="555" 
d="M74 0v143h118v414h-118v143h407v-143h-119v-414h119v-143h-407zM376 748l-227 78l55 117l209 -115z" />
    <glyph glyph-name="Iacute" unicode="&#xcd;" horiz-adv-x="555" 
d="M74 0v143h118v414h-118v143h407v-143h-119v-414h119v-143h-407zM189 748l-37 80l209 115l55 -117z" />
    <glyph glyph-name="Icircumflex" unicode="&#xce;" horiz-adv-x="555" 
d="M74 0v143h118v414h-118v143h407v-143h-119v-414h119v-143h-407zM145 754l-49 57l136 106h90l136 -106l-49 -57l-147 71h30z" />
    <glyph glyph-name="Idieresis" unicode="&#xcf;" horiz-adv-x="555" 
d="M74 0v143h118v414h-118v143h407v-143h-119v-414h119v-143h-407zM399 754c-28.667 0 -50.333 7.5 -65 22.5s-22 35.833 -22 62.5c0 24 7.66699 44.167 23 60.5s36.666 24.5 63.999 24.5c28 0 49.5 -7.5 64.5 -22.5s22.5 -35.833 22.5 -62.5
c0 -24 -7.66699 -44.167 -23 -60.5s-36.666 -24.5 -63.999 -24.5zM156.001 754c-28.667 0 -50.333 7.5 -65 22.5s-22 35.833 -22 62.5c0 24 7.5 44.167 22.5 60.5s36.5 24.5 64.5 24.5s49.333 -7.5 64 -22.5s22 -35.833 22 -62.5c0 -24 -7.5 -44.167 -22.5 -60.5
s-36.167 -24.5 -63.5 -24.5z" />
    <glyph glyph-name="Eth" unicode="&#xd0;" horiz-adv-x="772" 
d="M35 291v118h326v-118h-326zM88 0v700h293c51.333 0 98.333 -8.5 141 -25.5s79.5 -41.167 110.5 -72.5s54.833 -68.333 71.5 -111s25 -89.667 25 -141s-8.33301 -98.5 -25 -141.5s-40.5 -80 -71.5 -111s-67.833 -55 -110.5 -72s-89.667 -25.5 -141 -25.5h-293zM258 116
l-23 34h141c28 0 53 4.83301 75 14.5s40.833 23.167 56.5 40.5s27.834 38.333 36.501 63s13 52 13 82s-4.33301 57.333 -13 82s-20.834 45.667 -36.501 63s-34.5 30.833 -56.5 40.5s-47 14.5 -75 14.5h-144l26 32v-466z" />
    <glyph glyph-name="Ntilde" unicode="&#xd1;" horiz-adv-x="807" 
d="M88 0l-0.000976562 700.002h152l367 -500l-33 5c-3.33301 22 -6 43 -8 63s-3.83301 39.667 -5.5 59s-3 39 -4 59s-1.66699 41.667 -2 65s-0.5 48.666 -0.5 75.999v173h165v-700h-154l-383 516l51 -7l8.5 -81.5l6 -59.5c1.66699 -17.333 2.83398 -33 3.50098 -47
s1.16699 -27.833 1.5 -41.5s0.5 -28.834 0.5 -45.501v-234h-165zM480.999 768.002c-13.333 0 -26.665 2 -39.998 6s-28 9.33301 -44 16c-12 6 -22.167 10.333 -30.5 13s-15.833 4 -22.5 4c-9.33301 0 -16.833 -3.33301 -22.5 -10s-8.5 -16 -8.5 -28h-100
c0 44 12.167 78.5 36.5 103.5s54.833 37.5 91.5 37.5c12 0 23.833 -1.66699 35.5 -5s26.5 -9 44.5 -17c10.667 -5.33301 19.667 -9.33301 27 -12s14 -4 20 -4c8.66699 0 15.5 3.5 20.5 10.5s7.16699 16.167 6.5 27.5h99c0 -25.333 -4.83301 -49 -14.5 -71
s-22.834 -39.333 -39.501 -52s-36.334 -19 -59.001 -19z" />
    <glyph glyph-name="Ograve" unicode="&#xd2;" horiz-adv-x="812" 
d="M407 -10c-53.333 0 -102 9 -146 27s-82.333 43.333 -115 76s-58 71 -76 115s-27 92.333 -27 145s9 101 27 145s43.333 82.333 76 115s71 58 115 76s92.333 27 145 27s101 -9 145 -27s82.333 -43.333 115 -76s57.834 -71 75.501 -115s26.5 -92.333 26.5 -145
c0 -52 -8.83301 -100.167 -26.5 -144.5s-42.834 -82.833 -75.501 -115.5s-71 -58 -115 -76s-92 -27 -144 -27zM406 150c27.333 0 52.5 5 75.5 15s43 24.167 60 42.5s30.167 39.833 39.5 64.5s14 51.667 14 81s-4.66699 56.333 -14 81s-22.5 46.167 -39.5 64.5
s-37 32.5 -60 42.5s-48.167 15 -75.5 15s-52.5 -5 -75.5 -15s-43.167 -24.167 -60.5 -42.5s-30.5 -39.833 -39.5 -64.5s-13.5 -51.667 -13.5 -81s4.5 -56.5 13.5 -81.5s22.167 -46.5 39.5 -64.5s37.5 -32 60.5 -42s48.167 -15 75.5 -15zM504 748l-227 78l55 117l209 -115z
" />
    <glyph glyph-name="Oacute" unicode="&#xd3;" horiz-adv-x="812" 
d="M407 -10c-53.333 0 -102 9 -146 27s-82.333 43.333 -115 76s-58 71 -76 115s-27 92.333 -27 145s9 101 27 145s43.333 82.333 76 115s71 58 115 76s92.333 27 145 27s101 -9 145 -27s82.333 -43.333 115 -76s57.834 -71 75.501 -115s26.5 -92.333 26.5 -145
c0 -52 -8.83301 -100.167 -26.5 -144.5s-42.834 -82.833 -75.501 -115.5s-71 -58 -115 -76s-92 -27 -144 -27zM406 150c27.333 0 52.5 5 75.5 15s43 24.167 60 42.5s30.167 39.833 39.5 64.5s14 51.667 14 81s-4.66699 56.333 -14 81s-22.5 46.167 -39.5 64.5
s-37 32.5 -60 42.5s-48.167 15 -75.5 15s-52.5 -5 -75.5 -15s-43.167 -24.167 -60.5 -42.5s-30.5 -39.833 -39.5 -64.5s-13.5 -51.667 -13.5 -81s4.5 -56.5 13.5 -81.5s22.167 -46.5 39.5 -64.5s37.5 -32 60.5 -42s48.167 -15 75.5 -15zM317 748l-37 80l209 115l55 -117z
" />
    <glyph glyph-name="Ocircumflex" unicode="&#xd4;" horiz-adv-x="812" 
d="M407 -10c-53.333 0 -102 9 -146 27s-82.333 43.333 -115 76s-58 71 -76 115s-27 92.333 -27 145s9 101 27 145s43.333 82.333 76 115s71 58 115 76s92.333 27 145 27s101 -9 145 -27s82.333 -43.333 115 -76s57.834 -71 75.501 -115s26.5 -92.333 26.5 -145
c0 -52 -8.83301 -100.167 -26.5 -144.5s-42.834 -82.833 -75.501 -115.5s-71 -58 -115 -76s-92 -27 -144 -27zM406 150c27.333 0 52.5 5 75.5 15s43 24.167 60 42.5s30.167 39.833 39.5 64.5s14 51.667 14 81s-4.66699 56.333 -14 81s-22.5 46.167 -39.5 64.5
s-37 32.5 -60 42.5s-48.167 15 -75.5 15s-52.5 -5 -75.5 -15s-43.167 -24.167 -60.5 -42.5s-30.5 -39.833 -39.5 -64.5s-13.5 -51.667 -13.5 -81s4.5 -56.5 13.5 -81.5s22.167 -46.5 39.5 -64.5s37.5 -32 60.5 -42s48.167 -15 75.5 -15zM274 754l-49 57l136 106h90l136 -106
l-49 -57l-147 71h30z" />
    <glyph glyph-name="Otilde" unicode="&#xd5;" horiz-adv-x="812" 
d="M407 -10c-53.333 0 -102 9 -146 27s-82.333 43.333 -115 76s-58 71 -76 115s-27 92.333 -27 145s9 101 27 145s43.333 82.333 76 115s71 58 115 76s92.333 27 145 27s101 -9 145 -27s82.333 -43.333 115 -76s57.834 -71 75.501 -115s26.5 -92.333 26.5 -145
c0 -52 -8.83301 -100.167 -26.5 -144.5s-42.834 -82.833 -75.501 -115.5s-71 -58 -115 -76s-92 -27 -144 -27zM406 150c27.333 0 52.5 5 75.5 15s43 24.167 60 42.5s30.167 39.833 39.5 64.5s14 51.667 14 81s-4.66699 56.333 -14 81s-22.5 46.167 -39.5 64.5
s-37 32.5 -60 42.5s-48.167 15 -75.5 15s-52.5 -5 -75.5 -15s-43.167 -24.167 -60.5 -42.5s-30.5 -39.833 -39.5 -64.5s-13.5 -51.667 -13.5 -81s4.5 -56.5 13.5 -81.5s22.167 -46.5 39.5 -64.5s37.5 -32 60.5 -42s48.167 -15 75.5 -15zM483 768
c-13.333 0 -26.665 2 -39.998 6s-28 9.33301 -44 16c-12 6 -22.167 10.333 -30.5 13s-15.833 4 -22.5 4c-9.33301 0 -16.833 -3.33301 -22.5 -10s-8.5 -16 -8.5 -28h-100c0 44 12.167 78.5 36.5 103.5s54.833 37.5 91.5 37.5c12 0 23.833 -1.66699 35.5 -5s26.5 -9 44.5 -17
c10.667 -5.33301 19.667 -9.33301 27 -12s14 -4 20 -4c8.66699 0 15.5 3.5 20.5 10.5s7.16699 16.167 6.5 27.5h99c0 -25.333 -4.83301 -49 -14.5 -71s-22.834 -39.333 -39.501 -52s-36.334 -19 -59.001 -19z" />
    <glyph glyph-name="Odieresis" unicode="&#xd6;" horiz-adv-x="812" 
d="M407 -10c-53.333 0 -102 9 -146 27s-82.333 43.333 -115 76s-58 71 -76 115s-27 92.333 -27 145s9 101 27 145s43.333 82.333 76 115s71 58 115 76s92.333 27 145 27s101 -9 145 -27s82.333 -43.333 115 -76s57.834 -71 75.501 -115s26.5 -92.333 26.5 -145
c0 -52 -8.83301 -100.167 -26.5 -144.5s-42.834 -82.833 -75.501 -115.5s-71 -58 -115 -76s-92 -27 -144 -27zM406 150c27.333 0 52.5 5 75.5 15s43 24.167 60 42.5s30.167 39.833 39.5 64.5s14 51.667 14 81s-4.66699 56.333 -14 81s-22.5 46.167 -39.5 64.5
s-37 32.5 -60 42.5s-48.167 15 -75.5 15s-52.5 -5 -75.5 -15s-43.167 -24.167 -60.5 -42.5s-30.5 -39.833 -39.5 -64.5s-13.5 -51.667 -13.5 -81s4.5 -56.5 13.5 -81.5s22.167 -46.5 39.5 -64.5s37.5 -32 60.5 -42s48.167 -15 75.5 -15zM527 754
c-28.667 0 -50.333 7.5 -65 22.5s-22 35.833 -22 62.5c0 24 7.66699 44.167 23 60.5s36.666 24.5 63.999 24.5c28 0 49.5 -7.5 64.5 -22.5s22.5 -35.833 22.5 -62.5c0 -24 -7.66699 -44.167 -23 -60.5s-36.666 -24.5 -63.999 -24.5zM284.001 754
c-28.667 0 -50.333 7.5 -65 22.5s-22 35.833 -22 62.5c0 24 7.5 44.167 22.5 60.5s36.5 24.5 64.5 24.5s49.333 -7.5 64 -22.5s22 -35.833 22 -62.5c0 -24 -7.5 -44.167 -22.5 -60.5s-36.167 -24.5 -63.5 -24.5z" />
    <glyph glyph-name="multiply" unicode="&#xd7;" horiz-adv-x="532" 
d="M398 53l-360 360l96 94l360 -360zM134 50l-94 97l359 360l95 -96z" />
    <glyph glyph-name="Oslash" unicode="&#xd8;" horiz-adv-x="807" 
d="M139 -33l-63 53l589 721l68 -47zM406 -10c-52.667 0 -101.167 9 -145.5 27s-82.833 43.333 -115.5 76s-57.834 71 -75.501 115s-26.5 92.333 -26.5 145s8.83301 101 26.5 145s42.834 82.333 75.501 115s71.167 58 115.5 76s92.833 27 145.5 27s101 -9 145 -27
s82.333 -43.333 115 -76s57.834 -71 75.501 -115s26.5 -92.333 26.5 -145c0 -52 -8.83301 -100.167 -26.5 -144.5s-42.834 -82.833 -75.501 -115.5s-71 -58 -115 -76s-92.333 -27 -145 -27zM406 150c27.333 0 52.5 5 75.5 15s43 24.167 60 42.5s30.167 39.833 39.5 64.5
s14 51.667 14 81s-4.66699 56.333 -14 81s-22.5 46.167 -39.5 64.5s-37 32.5 -60 42.5s-48.167 15 -75.5 15c-28 0 -53.5 -5 -76.5 -15s-43 -24.167 -60 -42.5s-30.167 -39.833 -39.5 -64.5s-14 -51.667 -14 -81s4.66699 -56.5 14 -81.5s22.5 -46.5 39.5 -64.5
s37 -32 60 -42s48.5 -15 76.5 -15z" />
    <glyph glyph-name="Ugrave" unicode="&#xd9;" horiz-adv-x="765" 
d="M383 -6c-58 0 -109.667 11.833 -155 35.5s-80.833 56.167 -106.5 97.5s-38.5 88.666 -38.5 141.999v431h172v-422c0 -25.333 5.66699 -48.166 17 -68.499s26.666 -36.333 45.999 -48s41 -17.5 65 -17.5c25.333 0 47.833 5.83301 67.5 17.5s35.5 27.667 47.5 48
s18 43.166 18 68.499v422h166v-431c0 -53.333 -12.833 -100.666 -38.5 -141.999s-61.167 -73.833 -106.5 -97.5s-96.666 -35.5 -153.999 -35.5zM481 748l-227 78l55 117l209 -115z" />
    <glyph glyph-name="Uacute" unicode="&#xda;" horiz-adv-x="765" 
d="M383 -6c-58 0 -109.667 11.833 -155 35.5s-80.833 56.167 -106.5 97.5s-38.5 88.666 -38.5 141.999v431h172v-422c0 -25.333 5.66699 -48.166 17 -68.499s26.666 -36.333 45.999 -48s41 -17.5 65 -17.5c25.333 0 47.833 5.83301 67.5 17.5s35.5 27.667 47.5 48
s18 43.166 18 68.499v422h166v-431c0 -53.333 -12.833 -100.666 -38.5 -141.999s-61.167 -73.833 -106.5 -97.5s-96.666 -35.5 -153.999 -35.5zM294 748l-37 80l209 115l55 -117z" />
    <glyph glyph-name="Ucircumflex" unicode="&#xdb;" horiz-adv-x="765" 
d="M383 -6c-58 0 -109.667 11.833 -155 35.5s-80.833 56.167 -106.5 97.5s-38.5 88.666 -38.5 141.999v431h172v-422c0 -25.333 5.66699 -48.166 17 -68.499s26.666 -36.333 45.999 -48s41 -17.5 65 -17.5c25.333 0 47.833 5.83301 67.5 17.5s35.5 27.667 47.5 48
s18 43.166 18 68.499v422h166v-431c0 -53.333 -12.833 -100.666 -38.5 -141.999s-61.167 -73.833 -106.5 -97.5s-96.666 -35.5 -153.999 -35.5zM250 754l-49 57l136 106h90l136 -106l-49 -57l-147 71h30z" />
    <glyph glyph-name="Udieresis" unicode="&#xdc;" horiz-adv-x="765" 
d="M383 -6c-58 0 -109.667 11.833 -155 35.5s-80.833 56.167 -106.5 97.5s-38.5 88.666 -38.5 141.999v431h172v-422c0 -25.333 5.66699 -48.166 17 -68.499s26.666 -36.333 45.999 -48s41 -17.5 65 -17.5c25.333 0 47.833 5.83301 67.5 17.5s35.5 27.667 47.5 48
s18 43.166 18 68.499v422h166v-431c0 -53.333 -12.833 -100.666 -38.5 -141.999s-61.167 -73.833 -106.5 -97.5s-96.666 -35.5 -153.999 -35.5zM504 754c-28.667 0 -50.333 7.5 -65 22.5s-22 35.833 -22 62.5c0 24 7.66699 44.167 23 60.5s36.666 24.5 63.999 24.5
c28 0 49.5 -7.5 64.5 -22.5s22.5 -35.833 22.5 -62.5c0 -24 -7.66699 -44.167 -23 -60.5s-36.666 -24.5 -63.999 -24.5zM261.001 754c-28.667 0 -50.333 7.5 -65 22.5s-22 35.833 -22 62.5c0 24 7.5 44.167 22.5 60.5s36.5 24.5 64.5 24.5s49.333 -7.5 64 -22.5
s22 -35.833 22 -62.5c0 -24 -7.5 -44.167 -22.5 -60.5s-36.167 -24.5 -63.5 -24.5z" />
    <glyph glyph-name="Yacute" unicode="&#xdd;" horiz-adv-x="689" 
d="M269 0v349l7 -49l-283 400h193l216 -310l-88 3l195 307h187l-271 -411l15 68v-357h-171zM256 748l-37 80l209 115l55 -117z" />
    <glyph glyph-name="Thorn" unicode="&#xde;" horiz-adv-x="662" 
d="M88 0v700h170v-111h132c44 0 83.167 -10 117.5 -30s61.666 -47.333 81.999 -82s30.5 -74 30.5 -118c0 -44.667 -10.167 -85 -30.5 -121s-47.666 -64.333 -81.999 -85s-73.5 -31 -117.5 -31h-132v-122h-170zM258 272l108 -0.000976562c14.667 0 28 3.66699 40 11
s21.667 17.333 29 30s11 27.334 11 44.001s-3.66699 31 -11 43s-17 21.5 -29 28.5s-25.333 10.5 -40 10.5h-108v-167z" />
    <glyph glyph-name="germandbls" unicode="&#xdf;" horiz-adv-x="667" 
d="M427 -10c-28 0 -52.8281 4.33203 -74.4951 12.999s-40.834 21.334 -57.501 38.001l63 110c12 -10 23 -16.833 33 -20.5s20.333 -5.5 31 -5.5c20.667 0 37 6.83301 49 20.5s18 32.5 18 56.5c0 18.667 -3.66699 35.5 -11 50.5s-17.833 28.5 -31.5 40.5
s-29.334 22.5 -47.001 31.5s-36.5 17.167 -56.5 24.5v85c14 6 26 12.333 36 19s18.167 13.667 24.5 21s10.833 15.333 13.5 24s4 17.667 4 27c0 20.667 -7 36.5 -21 47.5s-33 16.5 -57 16.5c-26.667 0 -46.834 -8.16699 -60.501 -24.5s-20.5 -38.5 -20.5 -66.5v-498h-158
v499c0 46.667 9.83301 87.667 29.5 123s47.667 62.833 84 82.5s80.166 29.5 131.499 29.5c42.667 0 80.667 -6.66699 114 -20s59.666 -32.666 78.999 -57.999s29 -55.666 29 -90.999c0 -21.333 -4.5 -42.666 -13.5 -63.999s-21.833 -40.833 -38.5 -58.5
s-36.667 -31.5 -60 -41.5l-2 36c28 -8.66699 53.333 -20.334 76 -35.001s42.334 -31.834 59.001 -51.501s29.5 -41.834 38.5 -66.501s13.5 -51.667 13.5 -81c0 -40.667 -9.33301 -77 -28 -109s-44.334 -57.333 -77.001 -76s-70 -28 -112 -28zM27.0049 363.999v138h151v-138
h-151z" />
    <glyph glyph-name="agrave" unicode="&#xe0;" horiz-adv-x="659" 
d="M267 -9c-44.667 0 -84.5 11.833 -119.5 35.5s-62.833 56.334 -83.5 98.001s-31 88.834 -31 141.501c0 54 10.333 101.667 31 143s49 73.833 85 97.5s77 35.5 123 35.5c25.333 0 48.5 -3.66699 69.5 -11s39.5 -17.5 55.5 -30.5s29.667 -28 41 -45
s19.666 -35.167 24.999 -54.5l-33 4v126h159v-531h-162v128l36 1c-5.33301 -18.667 -14 -36.334 -26 -53.001s-26.667 -31.334 -44 -44.001s-36.666 -22.667 -57.999 -30s-44 -11 -68 -11zM311 126c24.667 0 46 5.66699 64 17s32 27.5 42 48.5s15 45.833 15 74.5
s-5 53.5 -15 74.5s-24 37.333 -42 49s-39.333 17.5 -64 17.5c-24 0 -44.833 -5.83301 -62.5 -17.5s-31.5 -28 -41.5 -49s-15 -45.833 -15 -74.5s5 -53.5 15 -74.5s23.833 -37.167 41.5 -48.5s38.5 -17 62.5 -17zM389 590l-205 110l73 104l179 -142z" />
    <glyph glyph-name="aacute" unicode="&#xe1;" horiz-adv-x="659" 
d="M267 -9c-44.667 0 -84.5 11.833 -119.5 35.5s-62.833 56.334 -83.5 98.001s-31 88.834 -31 141.501c0 54 10.333 101.667 31 143s49 73.833 85 97.5s77 35.5 123 35.5c25.333 0 48.5 -3.66699 69.5 -11s39.5 -17.5 55.5 -30.5s29.667 -28 41 -45
s19.666 -35.167 24.999 -54.5l-33 4v126h159v-531h-162v128l36 1c-5.33301 -18.667 -14 -36.334 -26 -53.001s-26.667 -31.334 -44 -44.001s-36.666 -22.667 -57.999 -30s-44 -11 -68 -11zM311 126c24.667 0 46 5.66699 64 17s32 27.5 42 48.5s15 45.833 15 74.5
s-5 53.5 -15 74.5s-24 37.333 -42 49s-39.333 17.5 -64 17.5c-24 0 -44.833 -5.83301 -62.5 -17.5s-31.5 -28 -41.5 -49s-15 -45.833 -15 -74.5s5 -53.5 15 -74.5s23.833 -37.167 41.5 -48.5s38.5 -17 62.5 -17zM251 589l-47 73l179 142l73 -105z" />
    <glyph glyph-name="acircumflex" unicode="&#xe2;" horiz-adv-x="659" 
d="M267 -9c-44.667 0 -84.5 11.833 -119.5 35.5s-62.833 56.334 -83.5 98.001s-31 88.834 -31 141.501c0 54 10.333 101.667 31 143s49 73.833 85 97.5s77 35.5 123 35.5c25.333 0 48.5 -3.66699 69.5 -11s39.5 -17.5 55.5 -30.5s29.667 -28 41 -45
s19.666 -35.167 24.999 -54.5l-33 4v126h159v-531h-162v128l36 1c-5.33301 -18.667 -14 -36.334 -26 -53.001s-26.667 -31.334 -44 -44.001s-36.666 -22.667 -57.999 -30s-44 -11 -68 -11zM311 126c24.667 0 46 5.66699 64 17s32 27.5 42 48.5s15 45.833 15 74.5
s-5 53.5 -15 74.5s-24 37.333 -42 49s-39.333 17.5 -64 17.5c-24 0 -44.833 -5.83301 -62.5 -17.5s-31.5 -28 -41.5 -49s-15 -45.833 -15 -74.5s5 -53.5 15 -74.5s23.833 -37.167 41.5 -48.5s38.5 -17 62.5 -17zM196 601l-58 50l144 129h96l144 -129l-58 -50l-149 86h30z
" />
    <glyph glyph-name="atilde" unicode="&#xe3;" horiz-adv-x="659" 
d="M267 -9c-44.667 0 -84.5 11.833 -119.5 35.5s-62.833 56.334 -83.5 98.001s-31 88.834 -31 141.501c0 54 10.333 101.667 31 143s49 73.833 85 97.5s77 35.5 123 35.5c25.333 0 48.5 -3.66699 69.5 -11s39.5 -17.5 55.5 -30.5s29.667 -28 41 -45
s19.666 -35.167 24.999 -54.5l-33 4v126h159v-531h-162v128l36 1c-5.33301 -18.667 -14 -36.334 -26 -53.001s-26.667 -31.334 -44 -44.001s-36.666 -22.667 -57.999 -30s-44 -11 -68 -11zM311 126c24.667 0 46 5.66699 64 17s32 27.5 42 48.5s15 45.833 15 74.5
s-5 53.5 -15 74.5s-24 37.333 -42 49s-39.333 17.5 -64 17.5c-24 0 -44.833 -5.83301 -62.5 -17.5s-31.5 -28 -41.5 -49s-15 -45.833 -15 -74.5s5 -53.5 15 -74.5s23.833 -37.167 41.5 -48.5s38.5 -17 62.5 -17zM399 614c-11.333 0 -23.0029 2.00195 -35.0029 6.00195
s-25.667 11.333 -41 22c-11.333 9.33301 -20.666 15.833 -27.999 19.5s-13.333 5.5 -18 5.5c-9.33301 0 -17.666 -3.83301 -24.999 -11.5s-12 -19.834 -14 -36.501l-89 13c0.666992 37.333 11.334 69.333 32.001 96s48.334 40 83.001 40c11.333 0 22.666 -2 33.999 -6
s24.666 -11 39.999 -21c8.66699 -7.33301 16.834 -13.5 24.501 -18.5s15.167 -7.5 22.5 -7.5c9.33301 0 17.5 4.16699 24.5 12.5s11.167 20.166 12.5 35.499l90 -13c-0.666992 -23.333 -5.66699 -45.5 -15 -66.5s-22.5 -37.833 -39.5 -50.5s-36.5 -19 -58.5 -19z" />
    <glyph glyph-name="adieresis" unicode="&#xe4;" horiz-adv-x="659" 
d="M267 -9c-44.667 0 -84.5 11.833 -119.5 35.5s-62.833 56.334 -83.5 98.001s-31 88.834 -31 141.501c0 54 10.333 101.667 31 143s49 73.833 85 97.5s77 35.5 123 35.5c25.333 0 48.5 -3.66699 69.5 -11s39.5 -17.5 55.5 -30.5s29.667 -28 41 -45
s19.666 -35.167 24.999 -54.5l-33 4v126h159v-531h-162v128l36 1c-5.33301 -18.667 -14 -36.334 -26 -53.001s-26.667 -31.334 -44 -44.001s-36.666 -22.667 -57.999 -30s-44 -11 -68 -11zM311 126c24.667 0 46 5.66699 64 17s32 27.5 42 48.5s15 45.833 15 74.5
s-5 53.5 -15 74.5s-24 37.333 -42 49s-39.333 17.5 -64 17.5c-24 0 -44.833 -5.83301 -62.5 -17.5s-31.5 -28 -41.5 -49s-15 -45.833 -15 -74.5s5 -53.5 15 -74.5s23.833 -37.167 41.5 -48.5s38.5 -17 62.5 -17zM451 632c-28 0 -49.501 7.33301 -64.501 22
s-22.5 35.667 -22.5 63c0 25.333 7.83301 45.833 23.5 61.5s36.834 23.5 63.501 23.5c27.333 0 48.5 -7.33301 63.5 -22s22.5 -35.667 22.5 -63c0 -25.333 -7.66699 -45.833 -23 -61.5s-36.333 -23.5 -63 -23.5zM209.999 632c-28 0 -49.5 7.33301 -64.5 22
s-22.5 35.667 -22.5 63c0 25.333 7.83301 45.833 23.5 61.5s36.834 23.5 63.501 23.5c28 0 49.5 -7.33301 64.5 -22s22.5 -35.667 22.5 -63c0 -25.333 -7.83301 -45.833 -23.5 -61.5s-36.834 -23.5 -63.501 -23.5z" />
    <glyph glyph-name="aring" unicode="&#xe5;" horiz-adv-x="659" 
d="M267 -9c-44.667 0 -84.5 11.833 -119.5 35.5s-62.833 56.334 -83.5 98.001s-31 88.834 -31 141.501c0 54 10.333 101.667 31 143s49 73.833 85 97.5s77 35.5 123 35.5c25.333 0 48.5 -3.66699 69.5 -11s39.5 -17.5 55.5 -30.5s29.667 -28 41 -45
s19.666 -35.167 24.999 -54.5l-33 4v126h159v-531h-162v128l36 1c-5.33301 -18.667 -14 -36.334 -26 -53.001s-26.667 -31.334 -44 -44.001s-36.666 -22.667 -57.999 -30s-44 -11 -68 -11zM311 126c24.667 0 46 5.66699 64 17s32 27.5 42 48.5s15 45.833 15 74.5
s-5 53.5 -15 74.5s-24 37.333 -42 49s-39.333 17.5 -64 17.5c-24 0 -44.833 -5.83301 -62.5 -17.5s-31.5 -28 -41.5 -49s-15 -45.833 -15 -74.5s5 -53.5 15 -74.5s23.833 -37.167 41.5 -48.5s38.5 -17 62.5 -17zM330 604c-20.667 0 -40.334 5.33301 -59.001 16
s-33.5 24.834 -44.5 42.501s-16.5 36.834 -16.5 57.501c0 22 5.33301 41.833 16 59.5s25.334 31.834 44.001 42.501s38.667 16 60 16c22 0 42.167 -5.33301 60.5 -16s33 -24.834 44 -42.501s16.5 -37.5 16.5 -59.5c0 -20.667 -5.66699 -39.834 -17 -57.501
s-26 -31.834 -44 -42.501s-38 -16 -60 -16zM330 685c10.667 0 19.5 3.33496 26.5 10.002s10.5 15 10.5 25c0 11.333 -3.5 20.333 -10.5 27s-15.833 10 -26.5 10s-19.5 -3.33301 -26.5 -10s-10.5 -15.334 -10.5 -26.001s3.66699 -19.334 11 -26.001s16 -10 26 -10z" />
    <glyph glyph-name="ae" unicode="&#xe6;" horiz-adv-x="900" 
d="M214 -10c-34 0 -64.6699 6.66797 -92.0029 20.001s-49 31.833 -65 55.5s-24 51.5 -24 83.5c0 26.667 5.16699 50.334 15.5 71.001s25.5 38 45.5 52s44.833 24.333 74.5 31s64.167 10 103.5 10h458l-9 -12v21c-1.33301 16.667 -6.33301 31.5 -15 44.5
s-20.167 23.167 -34.5 30.5s-30.5 11 -48.5 11c-26.667 0 -49.167 -5.16699 -67.5 -15.5s-32.166 -25.333 -41.499 -45s-14 -43.834 -14 -72.501s6.66699 -53.834 20 -75.501s32.333 -38.667 57 -51s53.667 -18.5 87 -18.5c24 0 45.333 3.16699 64 9.5
s38.667 17.833 60 34.5l68 -107c-20.667 -18 -42.667 -32.5 -66 -43.5s-47 -19.333 -71 -25s-48 -8.5 -72 -8.5c-58.667 0 -109.5 11.667 -152.5 35s-76.167 55.5 -99.5 96.5s-35 88.167 -35 141.5c0 40.667 6.5 78 19.5 112s31.167 63.5 54.5 88.5s51 44.333 83 58
s66.667 20.5 104 20.5c48.667 -0.666992 91.834 -12.5 129.501 -35.5s67 -54.667 88 -95s31.167 -86.166 30.5 -137.499l-1 -48h-591c-14 0 -26.333 -1.5 -37 -4.5s-19.667 -7.33301 -27 -13s-12.833 -12.334 -16.5 -20.001s-5.5 -16.834 -5.5 -27.501
c0 -10 2.5 -19.167 7.5 -27.5s12.333 -14.833 22 -19.5s20.5 -7 32.5 -7c17.333 0 33.833 2.83301 49.5 8.5s29.834 13.834 42.501 24.501s22.667 23 30 37l53 -81c-14 -22 -32.333 -41 -55 -57s-47.667 -28.167 -75 -36.5s-55.333 -12.5 -84 -12.5zM356.997 248.001v84.001
c0 13.333 -2 24.666 -6 33.999s-10 17 -18 23s-17.667 10.5 -29 13.5s-24 4.5 -38 4.5c-26 0 -48.333 -4.83301 -67 -14.5s-36 -25.834 -52 -48.501l-95 94c17.333 20.667 37.833 38.834 61.5 54.501s50.5 27.834 80.5 36.501s61.667 13 95 13c32 0 60.833 -3.5 86.5 -10.5
s47.5 -17.833 65.5 -32.5s32 -32.834 42 -54.501s15 -47.5 15 -77.5v-116z" />
    <glyph glyph-name="ccedilla" unicode="&#xe7;" horiz-adv-x="545" 
d="M304 -10c-51.333 0 -97.334 12.001 -138.001 36.001s-72.834 56.833 -96.501 98.5s-35.5 88.834 -35.5 141.501s11.833 99.834 35.5 141.501s55.834 74.5 96.501 98.5s86.667 36 138 36c47.333 0 90.833 -8.33301 130.5 -25s71.167 -40 94.5 -70l-87 -104
c-9.33301 10.667 -20.333 20.667 -33 30s-26.667 16.666 -42 21.999s-31.333 8 -48 8c-25.333 0 -47.666 -5.83301 -66.999 -17.5s-34.333 -27.834 -45 -48.501s-16 -44.334 -16 -71.001c0 -25.333 5.5 -48.333 16.5 -69s26.167 -37 45.5 -49s41.333 -18 66 -18
c17.333 0 33.333 2.16699 48 6.5s28.167 10.833 40.5 19.5s23.833 19.334 34.5 32.001l86 -105c-22.667 -28.667 -54.167 -51.334 -94.5 -68.001s-83.5 -25 -129.5 -25zM205.999 -245.999l-9.99805 75.0039c14 0 28.5 1.66699 43.5 5s27.667 8.16602 38 14.499
s15.5 13.166 15.5 20.499c0 8 -3.83301 14.333 -11.5 19s-16.834 8.16699 -27.501 10.5s-21.334 3.5 -32.001 3.5l-17 14l69 108h82l-46 -67c34.667 -4 60.5 -14.833 77.5 -32.5s25.5 -38.834 25.5 -63.501c0 -20.667 -6.5 -37.834 -19.5 -51.501
s-29.833 -24.834 -50.5 -33.501s-43 -14.667 -67 -18s-47.333 -4.66602 -70 -3.99902z" />
    <glyph glyph-name="egrave" unicode="&#xe8;" horiz-adv-x="586" 
d="M324 -10c-58.667 0 -109.671 11.835 -153.004 35.502s-77 56 -101 97s-36 87.833 -36 140.5c0 40.667 6.66699 78 20 112s32 63.5 56 88.5s52.5 44.333 85.5 58s69.167 20.5 108.5 20.5c37.333 0 71.5 -6.66699 102.5 -20s57.833 -32 80.5 -56s40 -52.333 52 -85
s17.333 -68.334 16 -107.001l-1 -43h-423l-23 90h316l-17 -19v20c-1.33301 16.667 -6.5 31.5 -15.5 44.5s-20.833 23.167 -35.5 30.5s-31.334 11 -50.001 11c-26 0 -48.167 -5.16699 -66.5 -15.5s-32.166 -25.333 -41.499 -45s-14 -43.834 -14 -72.501
c0 -29.333 6.16699 -54.833 18.5 -76.5s30.333 -38.5 54 -50.5s51.834 -18 84.501 -18c22.667 0 42.834 3.33301 60.501 10s36.834 18 57.501 34l75 -106c-20.667 -18 -42.667 -32.667 -66 -44s-47.166 -19.833 -71.499 -25.5s-48.5 -8.5 -72.5 -8.5zM362.996 590.002
l-205 110l73 104l179 -142z" />
    <glyph glyph-name="eacute" unicode="&#xe9;" horiz-adv-x="586" 
d="M324 -10c-58.667 0 -109.671 11.835 -153.004 35.502s-77 56 -101 97s-36 87.833 -36 140.5c0 40.667 6.66699 78 20 112s32 63.5 56 88.5s52.5 44.333 85.5 58s69.167 20.5 108.5 20.5c37.333 0 71.5 -6.66699 102.5 -20s57.833 -32 80.5 -56s40 -52.333 52 -85
s17.333 -68.334 16 -107.001l-1 -43h-423l-23 90h316l-17 -19v20c-1.33301 16.667 -6.5 31.5 -15.5 44.5s-20.833 23.167 -35.5 30.5s-31.334 11 -50.001 11c-26 0 -48.167 -5.16699 -66.5 -15.5s-32.166 -25.333 -41.499 -45s-14 -43.834 -14 -72.501
c0 -29.333 6.16699 -54.833 18.5 -76.5s30.333 -38.5 54 -50.5s51.834 -18 84.501 -18c22.667 0 42.834 3.33301 60.501 10s36.834 18 57.501 34l75 -106c-20.667 -18 -42.667 -32.667 -66 -44s-47.166 -19.833 -71.499 -25.5s-48.5 -8.5 -72.5 -8.5zM224.996 589.002
l-47 73l179 142l73 -105z" />
    <glyph glyph-name="ecircumflex" unicode="&#xea;" horiz-adv-x="586" 
d="M324 -10c-58.667 0 -109.671 11.835 -153.004 35.502s-77 56 -101 97s-36 87.833 -36 140.5c0 40.667 6.66699 78 20 112s32 63.5 56 88.5s52.5 44.333 85.5 58s69.167 20.5 108.5 20.5c37.333 0 71.5 -6.66699 102.5 -20s57.833 -32 80.5 -56s40 -52.333 52 -85
s17.333 -68.334 16 -107.001l-1 -43h-423l-23 90h316l-17 -19v20c-1.33301 16.667 -6.5 31.5 -15.5 44.5s-20.833 23.167 -35.5 30.5s-31.334 11 -50.001 11c-26 0 -48.167 -5.16699 -66.5 -15.5s-32.166 -25.333 -41.499 -45s-14 -43.834 -14 -72.501
c0 -29.333 6.16699 -54.833 18.5 -76.5s30.333 -38.5 54 -50.5s51.834 -18 84.501 -18c22.667 0 42.834 3.33301 60.501 10s36.834 18 57.501 34l75 -106c-20.667 -18 -42.667 -32.667 -66 -44s-47.166 -19.833 -71.499 -25.5s-48.5 -8.5 -72.5 -8.5zM169.996 601.002
l-58 50l144 129h96l144 -129l-58 -50l-149 86h30z" />
    <glyph glyph-name="edieresis" unicode="&#xeb;" horiz-adv-x="586" 
d="M324 -10c-58.667 0 -109.671 11.835 -153.004 35.502s-77 56 -101 97s-36 87.833 -36 140.5c0 40.667 6.66699 78 20 112s32 63.5 56 88.5s52.5 44.333 85.5 58s69.167 20.5 108.5 20.5c37.333 0 71.5 -6.66699 102.5 -20s57.833 -32 80.5 -56s40 -52.333 52 -85
s17.333 -68.334 16 -107.001l-1 -43h-423l-23 90h316l-17 -19v20c-1.33301 16.667 -6.5 31.5 -15.5 44.5s-20.833 23.167 -35.5 30.5s-31.334 11 -50.001 11c-26 0 -48.167 -5.16699 -66.5 -15.5s-32.166 -25.333 -41.499 -45s-14 -43.834 -14 -72.501
c0 -29.333 6.16699 -54.833 18.5 -76.5s30.333 -38.5 54 -50.5s51.834 -18 84.501 -18c22.667 0 42.834 3.33301 60.501 10s36.834 18 57.501 34l75 -106c-20.667 -18 -42.667 -32.667 -66 -44s-47.166 -19.833 -71.499 -25.5s-48.5 -8.5 -72.5 -8.5zM423.996 632.002
c-28 0 -49.501 7.33301 -64.501 22s-22.5 35.667 -22.5 63c0 25.333 7.83301 45.833 23.5 61.5s36.834 23.5 63.501 23.5c27.333 0 48.5 -7.33301 63.5 -22s22.5 -35.667 22.5 -63c0 -25.333 -7.66699 -45.833 -23 -61.5s-36.333 -23.5 -63 -23.5zM182.995 632.002
c-28 0 -49.5 7.33301 -64.5 22s-22.5 35.667 -22.5 63c0 25.333 7.83301 45.833 23.5 61.5s36.834 23.5 63.501 23.5c28 0 49.5 -7.33301 64.5 -22s22.5 -35.667 22.5 -63c0 -25.333 -7.83301 -45.833 -23.5 -61.5s-36.834 -23.5 -63.501 -23.5z" />
    <glyph glyph-name="igrave" unicode="&#xec;" horiz-adv-x="289" 
d="M64 0v531h161v-531h-161zM203 590l-205 110l73 104l179 -142z" />
    <glyph glyph-name="iacute" unicode="&#xed;" horiz-adv-x="289" 
d="M64 0v531h161v-531h-161zM65 589l-47 73l179 142l73 -105z" />
    <glyph glyph-name="icircumflex" unicode="&#xee;" horiz-adv-x="289" 
d="M64 0v531h161v-531h-161zM10 601l-58 50l144 129h96l144 -129l-58 -50l-149 86h30z" />
    <glyph glyph-name="idieresis" unicode="&#xef;" horiz-adv-x="289" 
d="M64 0v531h161v-531h-161zM265 632c-28 0 -49.501 7.33301 -64.501 22s-22.5 35.667 -22.5 63c0 25.333 7.83301 45.833 23.5 61.5s36.834 23.5 63.501 23.5c27.333 0 48.5 -7.33301 63.5 -22s22.5 -35.667 22.5 -63c0 -25.333 -7.66699 -45.833 -23 -61.5
s-36.333 -23.5 -63 -23.5zM23.999 632c-28 0 -49.5 7.33301 -64.5 22s-22.5 35.667 -22.5 63c0 25.333 7.83301 45.833 23.5 61.5s36.834 23.5 63.501 23.5c28 0 49.5 -7.33301 64.5 -22s22.5 -35.667 22.5 -63c0 -25.333 -7.83301 -45.833 -23.5 -61.5
s-36.834 -23.5 -63.501 -23.5z" />
    <glyph glyph-name="eth" unicode="&#xf0;" horiz-adv-x="597" 
d="M297 -7c-51.333 0 -96.6689 11.6689 -136.002 35.002s-70.333 54.833 -93 94.5s-34 84.167 -34 133.5c0 35.333 6.83301 68.666 20.5 99.999s32.334 59.166 56.001 83.499s50.667 43.333 81 57s61.833 20.5 94.5 20.5c33.333 0 63.333 -7 90 -21s49 -33.5 67 -58.5
s30 -54.833 36 -89.5l-95 31c-1.33301 29.333 -5 55.833 -11 79.5s-14.333 45 -25 64s-24.167 36 -40.5 51s-36 28.333 -59 40s-49.5 22.167 -79.5 31.5l48 101c42 -10 80.833 -24.5 116.5 -43.5s67.667 -42.167 96 -69.5s52.333 -58.5 72 -93.5s34.834 -73.5 45.501 -115.5
s16 -87.333 16 -136c0 -58 -11.167 -109.167 -33.5 -153.5s-53.333 -79 -93 -104s-86.167 -37.5 -139.5 -37.5zM297.997 129.002c22 0 41.667 5.83301 59 17.5s31.166 27.5 41.499 47.5s15.5 42.667 15.5 68c0 24 -5.16699 45.833 -15.5 65.5s-24.166 35.334 -41.499 47.001
s-37 17.5 -59 17.5c-21.333 0 -40.666 -5.66699 -57.999 -17s-31.166 -26.833 -41.499 -46.5s-15.5 -41.834 -15.5 -66.501c0 -25.333 5.16699 -48 15.5 -68s24.166 -35.833 41.499 -47.5s36.666 -17.5 57.999 -17.5zM149.997 517.002l-13 65l160 41l57 27l146 33l18 -66
l-113 -26l-43 -24z" />
    <glyph glyph-name="ntilde" unicode="&#xf1;" horiz-adv-x="635" 
d="M71 0v530.999h152l5 -108l-32 -12c7.33301 24 20.5 45.833 39.5 65.5s41.833 35.5 68.5 47.5s54.667 18 84 18c40 0 73.667 -8.16699 101 -24.5s48 -40.666 62 -72.999s21 -71.833 21 -118.5v-326h-161v313c0 21.333 -3 39 -9 53s-15.167 24.5 -27.5 31.5
s-27.5 10.167 -45.5 9.5c-14 0 -27 -2.16699 -39 -6.5s-22.333 -10.666 -31 -18.999s-15.5 -17.833 -20.5 -28.5s-7.5 -22.334 -7.5 -35.001v-318h-79h-48h-33zM417 613.999c-11.333 0 -23.0029 2.00195 -35.0029 6.00195s-25.667 11.333 -41 22
c-11.333 9.33301 -20.666 15.833 -27.999 19.5s-13.333 5.5 -18 5.5c-9.33301 0 -17.666 -3.83301 -24.999 -11.5s-12 -19.834 -14 -36.501l-89 13c0.666992 37.333 11.334 69.333 32.001 96s48.334 40 83.001 40c11.333 0 22.666 -2 33.999 -6s24.666 -11 39.999 -21
c8.66699 -7.33301 16.834 -13.5 24.501 -18.5s15.167 -7.5 22.5 -7.5c9.33301 0 17.5 4.16699 24.5 12.5s11.167 20.166 12.5 35.499l90 -13c-0.666992 -23.333 -5.66699 -45.5 -15 -66.5s-22.5 -37.833 -39.5 -50.5s-36.5 -19 -58.5 -19z" />
    <glyph glyph-name="ograve" unicode="&#xf2;" horiz-adv-x="641" 
d="M321 -10c-55.333 0 -104.5 12 -147.5 36s-77 56.667 -102 98s-37.5 88.666 -37.5 141.999s12.5 100.666 37.5 141.999s59 74 102 98s92.167 36 147.5 36s104.5 -12 147.5 -36s76.833 -56.667 101.5 -98s37 -88.666 37 -141.999s-12.333 -100.666 -37 -141.999
s-58.5 -74 -101.5 -98s-92.167 -36 -147.5 -36zM321 128c24 0 45.333 6 64 18s33.334 28.333 44.001 49s15.667 44.334 15 71.001c0.666992 26.667 -4.33301 50.5 -15 71.5s-25.334 37.5 -44.001 49.5s-40 18 -64 18s-45.5 -6 -64.5 -18s-33.833 -28.5 -44.5 -49.5
s-15.667 -44.833 -15 -71.5c-0.666992 -26.667 4.33301 -50.334 15 -71.001s25.5 -37 44.5 -49s40.5 -18 64.5 -18zM380 590l-205 110l73 104l179 -142z" />
    <glyph glyph-name="oacute" unicode="&#xf3;" horiz-adv-x="641" 
d="M321 -10c-55.333 0 -104.5 12 -147.5 36s-77 56.667 -102 98s-37.5 88.666 -37.5 141.999s12.5 100.666 37.5 141.999s59 74 102 98s92.167 36 147.5 36s104.5 -12 147.5 -36s76.833 -56.667 101.5 -98s37 -88.666 37 -141.999s-12.333 -100.666 -37 -141.999
s-58.5 -74 -101.5 -98s-92.167 -36 -147.5 -36zM321 128c24 0 45.333 6 64 18s33.334 28.333 44.001 49s15.667 44.334 15 71.001c0.666992 26.667 -4.33301 50.5 -15 71.5s-25.334 37.5 -44.001 49.5s-40 18 -64 18s-45.5 -6 -64.5 -18s-33.833 -28.5 -44.5 -49.5
s-15.667 -44.833 -15 -71.5c-0.666992 -26.667 4.33301 -50.334 15 -71.001s25.5 -37 44.5 -49s40.5 -18 64.5 -18zM242 589l-47 73l179 142l73 -105z" />
    <glyph glyph-name="ocircumflex" unicode="&#xf4;" horiz-adv-x="641" 
d="M321 -10c-55.333 0 -104.5 12 -147.5 36s-77 56.667 -102 98s-37.5 88.666 -37.5 141.999s12.5 100.666 37.5 141.999s59 74 102 98s92.167 36 147.5 36s104.5 -12 147.5 -36s76.833 -56.667 101.5 -98s37 -88.666 37 -141.999s-12.333 -100.666 -37 -141.999
s-58.5 -74 -101.5 -98s-92.167 -36 -147.5 -36zM321 128c24 0 45.333 6 64 18s33.334 28.333 44.001 49s15.667 44.334 15 71.001c0.666992 26.667 -4.33301 50.5 -15 71.5s-25.334 37.5 -44.001 49.5s-40 18 -64 18s-45.5 -6 -64.5 -18s-33.833 -28.5 -44.5 -49.5
s-15.667 -44.833 -15 -71.5c-0.666992 -26.667 4.33301 -50.334 15 -71.001s25.5 -37 44.5 -49s40.5 -18 64.5 -18zM187 601l-58 50l144 129h96l144 -129l-58 -50l-149 86h30z" />
    <glyph glyph-name="otilde" unicode="&#xf5;" horiz-adv-x="641" 
d="M321 -10c-55.333 0 -104.5 12 -147.5 36s-77 56.667 -102 98s-37.5 88.666 -37.5 141.999s12.5 100.666 37.5 141.999s59 74 102 98s92.167 36 147.5 36s104.5 -12 147.5 -36s76.833 -56.667 101.5 -98s37 -88.666 37 -141.999s-12.333 -100.666 -37 -141.999
s-58.5 -74 -101.5 -98s-92.167 -36 -147.5 -36zM321 128c24 0 45.333 6 64 18s33.334 28.333 44.001 49s15.667 44.334 15 71.001c0.666992 26.667 -4.33301 50.5 -15 71.5s-25.334 37.5 -44.001 49.5s-40 18 -64 18s-45.5 -6 -64.5 -18s-33.833 -28.5 -44.5 -49.5
s-15.667 -44.833 -15 -71.5c-0.666992 -26.667 4.33301 -50.334 15 -71.001s25.5 -37 44.5 -49s40.5 -18 64.5 -18zM389 614c-11.333 0 -23.0029 2.00195 -35.0029 6.00195s-25.667 11.333 -41 22c-11.333 9.33301 -20.666 15.833 -27.999 19.5s-13.333 5.5 -18 5.5
c-9.33301 0 -17.666 -3.83301 -24.999 -11.5s-12 -19.834 -14 -36.501l-89 13c0.666992 37.333 11.334 69.333 32.001 96s48.334 40 83.001 40c11.333 0 22.666 -2 33.999 -6s24.666 -11 39.999 -21c8.66699 -7.33301 16.834 -13.5 24.501 -18.5s15.167 -7.5 22.5 -7.5
c9.33301 0 17.5 4.16699 24.5 12.5s11.167 20.166 12.5 35.499l90 -13c-0.666992 -23.333 -5.66699 -45.5 -15 -66.5s-22.5 -37.833 -39.5 -50.5s-36.5 -19 -58.5 -19z" />
    <glyph glyph-name="odieresis" unicode="&#xf6;" horiz-adv-x="641" 
d="M321 -10c-55.333 0 -104.5 12 -147.5 36s-77 56.667 -102 98s-37.5 88.666 -37.5 141.999s12.5 100.666 37.5 141.999s59 74 102 98s92.167 36 147.5 36s104.5 -12 147.5 -36s76.833 -56.667 101.5 -98s37 -88.666 37 -141.999s-12.333 -100.666 -37 -141.999
s-58.5 -74 -101.5 -98s-92.167 -36 -147.5 -36zM321 128c24 0 45.333 6 64 18s33.334 28.333 44.001 49s15.667 44.334 15 71.001c0.666992 26.667 -4.33301 50.5 -15 71.5s-25.334 37.5 -44.001 49.5s-40 18 -64 18s-45.5 -6 -64.5 -18s-33.833 -28.5 -44.5 -49.5
s-15.667 -44.833 -15 -71.5c-0.666992 -26.667 4.33301 -50.334 15 -71.001s25.5 -37 44.5 -49s40.5 -18 64.5 -18zM441 632c-28 0 -49.501 7.33301 -64.501 22s-22.5 35.667 -22.5 63c0 25.333 7.83301 45.833 23.5 61.5s36.834 23.5 63.501 23.5
c27.333 0 48.5 -7.33301 63.5 -22s22.5 -35.667 22.5 -63c0 -25.333 -7.66699 -45.833 -23 -61.5s-36.333 -23.5 -63 -23.5zM199.999 632c-28 0 -49.5 7.33301 -64.5 22s-22.5 35.667 -22.5 63c0 25.333 7.83301 45.833 23.5 61.5s36.834 23.5 63.501 23.5
c28 0 49.5 -7.33301 64.5 -22s22.5 -35.667 22.5 -63c0 -25.333 -7.83301 -45.833 -23.5 -61.5s-36.834 -23.5 -63.501 -23.5z" />
    <glyph glyph-name="divide" unicode="&#xf7;" horiz-adv-x="597" 
d="M43 199v131h511v-131h-511zM296 -23c-18 0 -33.834 3.33398 -47.501 10.001s-24.167 16.5 -31.5 29.5s-11 28.167 -11 45.5c0 16 3.83301 30.5 11.5 43.5s18.167 23.167 31.5 30.5s29 11 47 11c18.667 0 34.834 -3.5 48.501 -10.5s24.167 -16.833 31.5 -29.5
s11 -27.667 11 -45c0 -16.667 -3.83301 -31.334 -11.5 -44.001s-18.167 -22.667 -31.5 -30s-29.333 -11 -48 -11zM295.999 381.001c-18 0 -33.833 3.50098 -47.5 10.501s-24.167 16.833 -31.5 29.5s-11 27.667 -11 45c0 16 3.83301 30.5 11.5 43.5s18.167 23.167 31.5 30.5
s29 11 47 11c18.667 0 34.834 -3.33301 48.501 -10s24.167 -16.5 31.5 -29.5s11 -28.167 11 -45.5c0 -16 -3.83301 -30.333 -11.5 -43s-18.334 -22.834 -32.001 -30.501s-29.5 -11.5 -47.5 -11.5z" />
    <glyph glyph-name="oslash" unicode="&#xf8;" horiz-adv-x="641" 
d="M120 -35l-66 48l462 547l67 -49zM321 -10c-55.333 0 -104.5 12 -147.5 36s-77 56.667 -102 98s-37.5 88.666 -37.5 141.999s12.5 100.666 37.5 141.999s59 74 102 98s92.167 36 147.5 36s104.5 -12 147.5 -36s76.833 -56.667 101.5 -98s37 -88.666 37 -141.999
s-12.333 -100.666 -37 -141.999s-58.5 -74 -101.5 -98s-92.167 -36 -147.5 -36zM321 128c24 0 45.333 6 64 18s33.334 28.333 44.001 49s15.667 44.334 15 71.001c0.666992 26.667 -4.33301 50.5 -15 71.5s-25.334 37.5 -44.001 49.5s-40 18 -64 18s-45.5 -6 -64.5 -18
s-33.833 -28.5 -44.5 -49.5s-15.667 -44.833 -15 -71.5c-0.666992 -26.667 4.33301 -50.334 15 -71.001s25.5 -37 44.5 -49s40.5 -18 64.5 -18z" />
    <glyph glyph-name="ugrave" unicode="&#xf9;" horiz-adv-x="642" 
d="M252 -11c-39.333 0 -72.833 8.49902 -100.5 25.499s-49 41.5 -64 73.5s-22.5 70.333 -22.5 115v328h161v-306c0 -21.333 3.33301 -39.666 10 -54.999s16.667 -27.166 30 -35.499s29.333 -12.5 48 -12.5c14 0 26.833 2.33301 38.5 7s21.667 11.167 30 19.5
s14.833 18 19.5 29s7 23.167 7 36.5v317h161v-531h-151l-7 109l30 12c-8 -25.333 -21.333 -47.833 -40 -67.5s-41 -35.334 -67 -47.001s-53.667 -17.5 -83 -17.5zM380 589.999l-205 110l73 104l179 -142z" />
    <glyph glyph-name="uacute" unicode="&#xfa;" horiz-adv-x="642" 
d="M252 -11c-39.333 0 -72.833 8.49902 -100.5 25.499s-49 41.5 -64 73.5s-22.5 70.333 -22.5 115v328h161v-306c0 -21.333 3.33301 -39.666 10 -54.999s16.667 -27.166 30 -35.499s29.333 -12.5 48 -12.5c14 0 26.833 2.33301 38.5 7s21.667 11.167 30 19.5
s14.833 18 19.5 29s7 23.167 7 36.5v317h161v-531h-151l-7 109l30 12c-8 -25.333 -21.333 -47.833 -40 -67.5s-41 -35.334 -67 -47.001s-53.667 -17.5 -83 -17.5zM242 588.999l-47 73l179 142l73 -105z" />
    <glyph glyph-name="ucircumflex" unicode="&#xfb;" horiz-adv-x="642" 
d="M252 -11c-39.333 0 -72.833 8.49902 -100.5 25.499s-49 41.5 -64 73.5s-22.5 70.333 -22.5 115v328h161v-306c0 -21.333 3.33301 -39.666 10 -54.999s16.667 -27.166 30 -35.499s29.333 -12.5 48 -12.5c14 0 26.833 2.33301 38.5 7s21.667 11.167 30 19.5
s14.833 18 19.5 29s7 23.167 7 36.5v317h161v-531h-151l-7 109l30 12c-8 -25.333 -21.333 -47.833 -40 -67.5s-41 -35.334 -67 -47.001s-53.667 -17.5 -83 -17.5zM187 600.999l-58 50l144 129h96l144 -129l-58 -50l-149 86h30z" />
    <glyph glyph-name="udieresis" unicode="&#xfc;" horiz-adv-x="642" 
d="M252 -11c-39.333 0 -72.833 8.49902 -100.5 25.499s-49 41.5 -64 73.5s-22.5 70.333 -22.5 115v328h161v-306c0 -21.333 3.33301 -39.666 10 -54.999s16.667 -27.166 30 -35.499s29.333 -12.5 48 -12.5c14 0 26.833 2.33301 38.5 7s21.667 11.167 30 19.5
s14.833 18 19.5 29s7 23.167 7 36.5v317h161v-531h-151l-7 109l30 12c-8 -25.333 -21.333 -47.833 -40 -67.5s-41 -35.334 -67 -47.001s-53.667 -17.5 -83 -17.5zM442 631.999c-28 0 -49.501 7.33301 -64.501 22s-22.5 35.667 -22.5 63c0 25.333 7.83301 45.833 23.5 61.5
s36.834 23.5 63.501 23.5c27.333 0 48.5 -7.33301 63.5 -22s22.5 -35.667 22.5 -63c0 -25.333 -7.66699 -45.833 -23 -61.5s-36.333 -23.5 -63 -23.5zM200.999 631.999c-28 0 -49.5 7.33301 -64.5 22s-22.5 35.667 -22.5 63c0 25.333 7.83301 45.833 23.5 61.5
s36.834 23.5 63.501 23.5c28 0 49.5 -7.33301 64.5 -22s22.5 -35.667 22.5 -63c0 -25.333 -7.83301 -45.833 -23.5 -61.5s-36.834 -23.5 -63.501 -23.5z" />
    <glyph glyph-name="yacute" unicode="&#xfd;" horiz-adv-x="620" 
d="M138 -230l121 284.999l2 -82l-256 558h181l112 -267c6 -13.333 11.667 -27.666 17 -42.999s9.33301 -30 12 -44l-22 -13c4 10 8.5 22.5 13.5 37.5l16.5 48.5l98 281h182l-226 -531l-92 -230h-159zM232 588.999l-47 73l179 142l73 -105z" />
    <glyph glyph-name="thorn" unicode="&#xfe;" horiz-adv-x="659" 
d="M71 -220l-0.000976562 960h161v-328l-33 9c4.66699 22 16 42 34 60s40.833 32.5 68.5 43.5s56.834 16.5 87.501 16.5c34 0 65.333 -6.66699 94 -20s53.5 -32.333 74.5 -57s37.333 -53.667 49 -87s17.5 -70.333 17.5 -111c0 -53.333 -10.167 -100.666 -30.5 -141.999
s-48.333 -73.833 -84 -97.5s-76.5 -35.5 -122.5 -35.5c-30 0 -58.667 5.66699 -86 17s-50.333 26.666 -69 45.999s-31 40.333 -37 63l37 14v-351h-161zM347.999 126c24 0 45.001 5.83203 63.001 17.499s32 27.834 42 48.501s15 45.334 15 74.001c0 28 -5 52.5 -15 73.5
s-23.833 37.333 -41.5 49s-38.834 17.5 -63.501 17.5s-46 -5.66699 -64 -17s-32 -27.666 -42 -48.999s-15 -46 -15 -74c0 -28.667 5 -53.334 15 -74.001s24 -36.834 42 -48.501s39.333 -17.5 64 -17.5z" />
    <glyph glyph-name="ydieresis" unicode="&#xff;" horiz-adv-x="620" 
d="M138 -230l121 284.999l2 -82l-256 558h181l112 -267c6 -13.333 11.667 -27.666 17 -42.999s9.33301 -30 12 -44l-22 -13c4 10 8.5 22.5 13.5 37.5l16.5 48.5l98 281h182l-226 -531l-92 -230h-159zM431 631.999c-28 0 -49.501 7.33301 -64.501 22s-22.5 35.667 -22.5 63
c0 25.333 7.83301 45.833 23.5 61.5s36.834 23.5 63.501 23.5c27.333 0 48.5 -7.33301 63.5 -22s22.5 -35.667 22.5 -63c0 -25.333 -7.66699 -45.833 -23 -61.5s-36.333 -23.5 -63 -23.5zM189.999 631.999c-28 0 -49.5 7.33301 -64.5 22s-22.5 35.667 -22.5 63
c0 25.333 7.83301 45.833 23.5 61.5s36.834 23.5 63.501 23.5c28 0 49.5 -7.33301 64.5 -22s22.5 -35.667 22.5 -63c0 -25.333 -7.83301 -45.833 -23.5 -61.5s-36.834 -23.5 -63.501 -23.5z" />
    <glyph glyph-name="Amacron" unicode="&#x100;" horiz-adv-x="694" 
d="M-1 0l276.999 700.002h144l275 -700h-172l-132 355c-5.33301 14 -10.666 29 -15.999 45l-16 49.5l-15.5 50c-5 16.333 -9.16699 31.5 -12.5 45.5l30 1c-4 -16.667 -8.5 -33 -13.5 -49l-15 -47.5c-5 -15.667 -10.5 -31.334 -16.5 -47.001s-11.667 -31.834 -17 -48.501
l-132 -354h-168zM130.999 134.002l53 128h322l52 -128h-427zM166.999 789.002v101h359v-101h-359z" />
    <glyph glyph-name="amacron" unicode="&#x101;" horiz-adv-x="659" 
d="M267 -9c-44.667 0 -84.5 11.833 -119.5 35.5s-62.833 56.334 -83.5 98.001s-31 88.834 -31 141.501c0 54 10.333 101.667 31 143s49 73.833 85 97.5s77 35.5 123 35.5c25.333 0 48.5 -3.66699 69.5 -11s39.5 -17.5 55.5 -30.5s29.667 -28 41 -45
s19.666 -35.167 24.999 -54.5l-33 4v126h159v-531h-162v128l36 1c-5.33301 -18.667 -14 -36.334 -26 -53.001s-26.667 -31.334 -44 -44.001s-36.666 -22.667 -57.999 -30s-44 -11 -68 -11zM311 126c24.667 0 46 5.66699 64 17s32 27.5 42 48.5s15 45.833 15 74.5
s-5 53.5 -15 74.5s-24 37.333 -42 49s-39.333 17.5 -64 17.5c-24 0 -44.833 -5.83301 -62.5 -17.5s-31.5 -28 -41.5 -49s-15 -45.833 -15 -74.5s5 -53.5 15 -74.5s23.833 -37.167 41.5 -48.5s38.5 -17 62.5 -17zM162 640v101h336v-101h-336z" />
    <glyph glyph-name="Abreve" unicode="&#x102;" horiz-adv-x="694" 
d="M-1 0l276.999 700.002h144l275 -700h-172l-132 355c-5.33301 14 -10.666 29 -15.999 45l-16 49.5l-15.5 50c-5 16.333 -9.16699 31.5 -12.5 45.5l30 1c-4 -16.667 -8.5 -33 -13.5 -49l-15 -47.5c-5 -15.667 -10.5 -31.334 -16.5 -47.001s-11.667 -31.834 -17 -48.501
l-132 -354h-168zM130.999 134.002l53 128h322l52 -128h-427zM346.999 757.002c-30 0 -57.333 6.33301 -82 19s-45.5 30.5 -62.5 53.5s-28.5 49.5 -34.5 79.5l102 12c6.66699 -17.333 17 -31.666 31 -42.999s29.333 -17 46 -17s32 5.66699 46 17s24.333 25.666 31 42.999
l102 -12c-6 -30 -17.5 -56.5 -34.5 -79.5s-37.667 -40.833 -62 -53.5s-51.833 -19 -82.5 -19z" />
    <glyph glyph-name="abreve" unicode="&#x103;" horiz-adv-x="659" 
d="M267 -9c-44.667 0 -84.5 11.833 -119.5 35.5s-62.833 56.334 -83.5 98.001s-31 88.834 -31 141.501c0 54 10.333 101.667 31 143s49 73.833 85 97.5s77 35.5 123 35.5c25.333 0 48.5 -3.66699 69.5 -11s39.5 -17.5 55.5 -30.5s29.667 -28 41 -45
s19.666 -35.167 24.999 -54.5l-33 4v126h159v-531h-162v128l36 1c-5.33301 -18.667 -14 -36.334 -26 -53.001s-26.667 -31.334 -44 -44.001s-36.666 -22.667 -57.999 -30s-44 -11 -68 -11zM311 126c24.667 0 46 5.66699 64 17s32 27.5 42 48.5s15 45.833 15 74.5
s-5 53.5 -15 74.5s-24 37.333 -42 49s-39.333 17.5 -64 17.5c-24 0 -44.833 -5.83301 -62.5 -17.5s-31.5 -28 -41.5 -49s-15 -45.833 -15 -74.5s5 -53.5 15 -74.5s23.833 -37.167 41.5 -48.5s38.5 -17 62.5 -17zM330 601c-46 0 -85.002 14.333 -117.002 43
s-52.667 67.667 -62 117l102 12c7.33301 -20.667 17.833 -37.167 31.5 -49.5s28.834 -18.5 45.501 -18.5s31.834 6.16699 45.501 18.5s24.167 28.833 31.5 49.5l102 -12c-9.33301 -49.333 -30 -88.333 -62 -117s-71 -43 -117 -43z" />
    <glyph glyph-name="Aogonek" unicode="&#x104;" horiz-adv-x="694" 
d="M-1 0l276.999 700.002h144l275 -700h-172l-132 355c-5.33301 14 -10.666 29 -15.999 45l-16 49.5l-15.5 50c-5 16.333 -9.16699 31.5 -12.5 45.5l30 1c-4 -16.667 -8.5 -33 -13.5 -49l-15 -47.5c-5 -15.667 -10.5 -31.334 -16.5 -47.001s-11.667 -31.834 -17 -48.501
l-132 -354h-168zM130.999 134.002l53 128h322l52 -128h-427zM566.999 -210.998c-22.667 0 -43.1699 4.49902 -61.5029 13.499s-32.666 21.667 -42.999 38s-15.5 34.833 -15.5 55.5c0 16.667 3.66699 32.834 11 48.501s18.333 30.167 33 43.5s32.334 25.166 53.001 35.499
s43.667 19.166 69 26.499l37 -50c-16.667 -2.66699 -32.167 -8.16699 -46.5 -16.5s-25.5 -17.666 -33.5 -27.999s-12 -21.166 -12 -32.499c0 -8.66699 2.33301 -16 7 -22s11.334 -9 20.001 -9c6.66699 0 12.5 2 17.5 6s10.167 10 15.5 18l69 -51
c-9.33301 -22 -24.5 -40.167 -45.5 -54.5s-45.833 -21.5 -74.5 -21.5z" />
    <glyph glyph-name="aogonek" unicode="&#x105;" horiz-adv-x="659" 
d="M267 -9c-44.667 0 -84.5 11.833 -119.5 35.5s-62.833 56.334 -83.5 98.001s-31 88.834 -31 141.501c0 54 10.333 101.667 31 143s49 73.833 85 97.5s77 35.5 123 35.5c25.333 0 48.5 -3.66699 69.5 -11s39.5 -17.5 55.5 -30.5s29.667 -28 41 -45
s19.666 -35.167 24.999 -54.5l-33 4v126h159v-531h-162v128l36 1c-5.33301 -18.667 -14 -36.334 -26 -53.001s-26.667 -31.334 -44 -44.001s-36.666 -22.667 -57.999 -30s-44 -11 -68 -11zM311 126c24.667 0 46 5.66699 64 17s32 27.5 42 48.5s15 45.833 15 74.5
s-5 53.5 -15 74.5s-24 37.333 -42 49s-39.333 17.5 -64 17.5c-24 0 -44.833 -5.83301 -62.5 -17.5s-31.5 -28 -41.5 -49s-15 -45.833 -15 -74.5s5 -53.5 15 -74.5s23.833 -37.167 41.5 -48.5s38.5 -17 62.5 -17zM465 -211c-22.667 0 -43.1699 5 -61.5029 15
s-32.666 23.333 -42.999 40s-15.5 35.334 -15.5 56.001c0 17.333 3.5 33.166 10.5 47.499s17.667 27.5 32 39.5s32.333 23 54 33s46.834 18.667 75.501 26l40 -46c-18.667 -4 -35.667 -10.167 -51 -18.5s-27.5 -17.666 -36.5 -27.999s-13.5 -21.5 -13.5 -33.5
c0 -8 2.5 -14.5 7.5 -19.5s11.5 -7.5 19.5 -7.5c6.66699 0 12.5 1.83301 17.5 5.5s10.167 9.5 15.5 17.5l69 -51c-6 -12 -15 -23.833 -27 -35.5s-25.667 -21.334 -41 -29.001s-32.666 -11.5 -51.999 -11.5z" />
    <glyph glyph-name="Cacute" unicode="&#x106;" horiz-adv-x="694" 
d="M406 -10c-52.667 0 -101.159 8.83691 -145.492 26.5039s-82.833 42.667 -115.5 75s-57.834 70.666 -75.501 114.999s-26.5 93.166 -26.5 146.499c0 52 9.33301 100 28 144s44.5 82.167 77.5 114.5s72 57.5 117 75.5s94.167 27 147.5 27c33.333 0 66 -4.33301 98 -13
s61.833 -21.5 89.5 -38.5s51.5 -37.167 71.5 -60.5l-104 -119c-14 14.667 -28.833 27.5 -44.5 38.5s-32.834 19.5 -51.501 25.5s-38.667 9 -60 9c-26.667 0 -51.834 -4.83301 -75.501 -14.5s-44.334 -23.334 -62.001 -41.001s-31.5 -39.167 -41.5 -64.5
s-15 -53.666 -15 -84.999c0 -30.667 5 -58.5 15 -83.5s24 -46.5 42 -64.5s39.833 -31.667 65.5 -41s54.167 -14 85.5 -14c21.333 0 41.666 3 60.999 9s37.166 14.167 53.499 24.5s30.833 22.166 43.5 35.499l82 -130c-16.667 -18.667 -38.834 -35.334 -66.501 -50.001
s-58.334 -26.167 -92.001 -34.5s-67.5 -12.5 -101.5 -12.5zM322.008 748.004l-37 80l209 115l55 -117z" />
    <glyph glyph-name="cacute" unicode="&#x107;" horiz-adv-x="545" 
d="M304 -10c-51.333 0 -97.334 12.001 -138.001 36.001s-72.834 56.833 -96.501 98.5s-35.5 88.834 -35.5 141.501s11.833 99.834 35.5 141.501s55.834 74.5 96.501 98.5s86.667 36 138 36c47.333 0 90.833 -8.33301 130.5 -25s71.167 -40 94.5 -70l-87 -104
c-9.33301 10.667 -20.333 20.667 -33 30s-26.667 16.666 -42 21.999s-31.333 8 -48 8c-25.333 0 -47.666 -5.83301 -66.999 -17.5s-34.333 -27.834 -45 -48.501s-16 -44.334 -16 -71.001c0 -25.333 5.5 -48.333 16.5 -69s26.167 -37 45.5 -49s41.333 -18 66 -18
c17.333 0 33.333 2.16699 48 6.5s28.167 10.833 40.5 19.5s23.833 19.334 34.5 32.001l86 -105c-22.667 -28.667 -54.167 -51.334 -94.5 -68.001s-83.5 -25 -129.5 -25zM224.999 589.001l-47 73l179 142l73 -105z" />
    <glyph glyph-name="Ccircumflex" unicode="&#x108;" horiz-adv-x="694" 
d="M406 -10c-52.667 0 -101.159 8.83691 -145.492 26.5039s-82.833 42.667 -115.5 75s-57.834 70.666 -75.501 114.999s-26.5 93.166 -26.5 146.499c0 52 9.33301 100 28 144s44.5 82.167 77.5 114.5s72 57.5 117 75.5s94.167 27 147.5 27c33.333 0 66 -4.33301 98 -13
s61.833 -21.5 89.5 -38.5s51.5 -37.167 71.5 -60.5l-104 -119c-14 14.667 -28.833 27.5 -44.5 38.5s-32.834 19.5 -51.501 25.5s-38.667 9 -60 9c-26.667 0 -51.834 -4.83301 -75.501 -14.5s-44.334 -23.334 -62.001 -41.001s-31.5 -39.167 -41.5 -64.5
s-15 -53.666 -15 -84.999c0 -30.667 5 -58.5 15 -83.5s24 -46.5 42 -64.5s39.833 -31.667 65.5 -41s54.167 -14 85.5 -14c21.333 0 41.666 3 60.999 9s37.166 14.167 53.499 24.5s30.833 22.166 43.5 35.499l82 -130c-16.667 -18.667 -38.834 -35.334 -66.501 -50.001
s-58.334 -26.167 -92.001 -34.5s-67.5 -12.5 -101.5 -12.5zM278.008 754.004l-49 57l136 106h90l136 -106l-49 -57l-147 71h30z" />
    <glyph glyph-name="ccircumflex" unicode="&#x109;" horiz-adv-x="545" 
d="M304 -10c-51.333 0 -97.334 12.001 -138.001 36.001s-72.834 56.833 -96.501 98.5s-35.5 88.834 -35.5 141.501s11.833 99.834 35.5 141.501s55.834 74.5 96.501 98.5s86.667 36 138 36c47.333 0 90.833 -8.33301 130.5 -25s71.167 -40 94.5 -70l-87 -104
c-9.33301 10.667 -20.333 20.667 -33 30s-26.667 16.666 -42 21.999s-31.333 8 -48 8c-25.333 0 -47.666 -5.83301 -66.999 -17.5s-34.333 -27.834 -45 -48.501s-16 -44.334 -16 -71.001c0 -25.333 5.5 -48.333 16.5 -69s26.167 -37 45.5 -49s41.333 -18 66 -18
c17.333 0 33.333 2.16699 48 6.5s28.167 10.833 40.5 19.5s23.833 19.334 34.5 32.001l86 -105c-22.667 -28.667 -54.167 -51.334 -94.5 -68.001s-83.5 -25 -129.5 -25zM169.999 601.001l-58 50l144 129h96l144 -129l-58 -50l-149 86h30z" />
    <glyph glyph-name="Cdotaccent" unicode="&#x10a;" horiz-adv-x="694" 
d="M406 -10c-52.667 0 -101.159 8.83691 -145.492 26.5039s-82.833 42.667 -115.5 75s-57.834 70.666 -75.501 114.999s-26.5 93.166 -26.5 146.499c0 52 9.33301 100 28 144s44.5 82.167 77.5 114.5s72 57.5 117 75.5s94.167 27 147.5 27c33.333 0 66 -4.33301 98 -13
s61.833 -21.5 89.5 -38.5s51.5 -37.167 71.5 -60.5l-104 -119c-14 14.667 -28.833 27.5 -44.5 38.5s-32.834 19.5 -51.501 25.5s-38.667 9 -60 9c-26.667 0 -51.834 -4.83301 -75.501 -14.5s-44.334 -23.334 -62.001 -41.001s-31.5 -39.167 -41.5 -64.5
s-15 -53.666 -15 -84.999c0 -30.667 5 -58.5 15 -83.5s24 -46.5 42 -64.5s39.833 -31.667 65.5 -41s54.167 -14 85.5 -14c21.333 0 41.666 3 60.999 9s37.166 14.167 53.499 24.5s30.833 22.166 43.5 35.499l82 -130c-16.667 -18.667 -38.834 -35.334 -66.501 -50.001
s-58.334 -26.167 -92.001 -34.5s-67.5 -12.5 -101.5 -12.5zM411.008 756.004c-30.667 0 -54.167 7.33301 -70.5 22s-24.5 35 -24.5 61c0 23.333 8.33301 43 25 59s40 24 70 24c30.667 0 54.167 -7.33301 70.5 -22s24.5 -35 24.5 -61c0 -23.333 -8.33301 -43 -25 -59
s-40 -24 -70 -24z" />
    <glyph glyph-name="cdotaccent" unicode="&#x10b;" horiz-adv-x="545" 
d="M304 -10c-51.333 0 -97.334 12.001 -138.001 36.001s-72.834 56.833 -96.501 98.5s-35.5 88.834 -35.5 141.501s11.833 99.834 35.5 141.501s55.834 74.5 96.501 98.5s86.667 36 138 36c47.333 0 90.833 -8.33301 130.5 -25s71.167 -40 94.5 -70l-87 -104
c-9.33301 10.667 -20.333 20.667 -33 30s-26.667 16.666 -42 21.999s-31.333 8 -48 8c-25.333 0 -47.666 -5.83301 -66.999 -17.5s-34.333 -27.834 -45 -48.501s-16 -44.334 -16 -71.001c0 -25.333 5.5 -48.333 16.5 -69s26.167 -37 45.5 -49s41.333 -18 66 -18
c17.333 0 33.333 2.16699 48 6.5s28.167 10.833 40.5 19.5s23.833 19.334 34.5 32.001l86 -105c-22.667 -28.667 -54.167 -51.334 -94.5 -68.001s-83.5 -25 -129.5 -25zM303.999 636.001c-30 0 -53.333 7.16699 -70 21.5s-25 34.833 -25 61.5c0 24 8.5 43.833 25.5 59.5
s40.167 23.5 69.5 23.5c30 0 53.333 -7.16699 70 -21.5s25 -34.833 25 -61.5c0 -24.667 -8.5 -44.667 -25.5 -60s-40.167 -23 -69.5 -23z" />
    <glyph glyph-name="Ccaron" unicode="&#x10c;" horiz-adv-x="694" 
d="M406 -10c-52.667 0 -101.159 8.83691 -145.492 26.5039s-82.833 42.667 -115.5 75s-57.834 70.666 -75.501 114.999s-26.5 93.166 -26.5 146.499c0 52 9.33301 100 28 144s44.5 82.167 77.5 114.5s72 57.5 117 75.5s94.167 27 147.5 27c33.333 0 66 -4.33301 98 -13
s61.833 -21.5 89.5 -38.5s51.5 -37.167 71.5 -60.5l-104 -119c-14 14.667 -28.833 27.5 -44.5 38.5s-32.834 19.5 -51.501 25.5s-38.667 9 -60 9c-26.667 0 -51.834 -4.83301 -75.501 -14.5s-44.334 -23.334 -62.001 -41.001s-31.5 -39.167 -41.5 -64.5
s-15 -53.666 -15 -84.999c0 -30.667 5 -58.5 15 -83.5s24 -46.5 42 -64.5s39.833 -31.667 65.5 -41s54.167 -14 85.5 -14c21.333 0 41.666 3 60.999 9s37.166 14.167 53.499 24.5s30.833 22.166 43.5 35.499l82 -130c-16.667 -18.667 -38.834 -35.334 -66.501 -50.001
s-58.334 -26.167 -92.001 -34.5s-67.5 -12.5 -101.5 -12.5zM363.008 755.004l-134 107l50 56l147 -70h-30l147 70l50 -56l-134 -107h-96z" />
    <glyph glyph-name="ccaron" unicode="&#x10d;" horiz-adv-x="545" 
d="M304 -10c-51.333 0 -97.334 12.001 -138.001 36.001s-72.834 56.833 -96.501 98.5s-35.5 88.834 -35.5 141.501s11.833 99.834 35.5 141.501s55.834 74.5 96.501 98.5s86.667 36 138 36c47.333 0 90.833 -8.33301 130.5 -25s71.167 -40 94.5 -70l-87 -104
c-9.33301 10.667 -20.333 20.667 -33 30s-26.667 16.666 -42 21.999s-31.333 8 -48 8c-25.333 0 -47.666 -5.83301 -66.999 -17.5s-34.333 -27.834 -45 -48.501s-16 -44.334 -16 -71.001c0 -25.333 5.5 -48.333 16.5 -69s26.167 -37 45.5 -49s41.333 -18 66 -18
c17.333 0 33.333 2.16699 48 6.5s28.167 10.833 40.5 19.5s23.833 19.334 34.5 32.001l86 -105c-22.667 -28.667 -54.167 -51.334 -94.5 -68.001s-83.5 -25 -129.5 -25zM255.999 607.001l-140 129l58 50l145 -86h-30l145 86l58 -50l-140 -129h-96z" />
    <glyph glyph-name="Dcaron" unicode="&#x10e;" horiz-adv-x="772" 
d="M88 0v700h293c51.333 0 98.333 -8.5 141 -25.5s79.5 -41.167 110.5 -72.5s54.833 -68.333 71.5 -111s25 -89.667 25 -141s-8.33301 -98.5 -25 -141.5s-40.5 -80 -71.5 -111s-67.833 -55 -110.5 -72s-89.667 -25.5 -141 -25.5h-293zM258 116l-23 34h141
c28 0 53 4.83301 75 14.5s40.833 23.167 56.5 40.5s27.834 38.333 36.501 63s13 52 13 82s-4.33301 57.333 -13 82s-20.834 45.667 -36.501 63s-34.5 30.833 -56.5 40.5s-47 14.5 -75 14.5h-144l26 32v-466zM338 755l-134 107l50 56l147 -70h-30l147 70l50 -56l-134 -107
h-96z" />
    <glyph glyph-name="dcaron" unicode="&#x10f;" horiz-adv-x="754" 
d="M272 -11c-46 0 -86.833 11.8311 -122.5 35.498s-63.834 56.334 -84.501 98.001s-31 89.167 -31 142.5s10.333 100.833 31 142.5s49 74.5 85 98.5s77.333 36 124 36c24 0 47 -3.66699 69 -11s42 -17.333 60 -30s32.667 -27.167 44 -43.5s18 -33.166 20 -50.499l-38 -9v342
h161v-740h-149l-9 121l32 -5c-2 -16.667 -8.5 -32.667 -19.5 -48s-25.167 -28.833 -42.5 -40.5s-37.166 -21 -59.499 -28s-45.833 -10.5 -70.5 -10.5zM313 121.998c24.667 0 46 6 64 18s31.833 28.667 41.5 50s14.5 46.333 14.5 75c0 29.333 -4.83301 54.666 -14.5 75.999
s-23.5 38 -41.5 50s-39.333 18 -64 18s-45.834 -6 -63.501 -18s-31.5 -28.667 -41.5 -50s-15 -46.666 -15 -75.999c0 -28.667 5 -53.667 15 -75s23.833 -38 41.5 -50s38.834 -18 63.501 -18zM686 485.998l-39.9971 55.001c9.33301 3.33301 19.5 7.83301 30.5 13.5
s20.667 12.5 29 20.5s12.5 16 12.5 24c0 5.33301 -1.83301 9.5 -5.5 12.5s-9.83398 6.5 -18.501 10.5c-14 5.33301 -24 12.166 -30 20.499s-9 19.166 -9 32.499c0 21.333 7.66699 37.5 23 48.5s34.666 16.5 57.999 16.5c28 0 51.667 -8.16699 71 -24.5s29 -40.5 29 -72.5
c0 -19.333 -3.5 -37.166 -10.5 -53.499s-17 -31 -30 -44s-28.833 -24.333 -47.5 -34s-39.334 -18.167 -62.001 -25.5z" />
    <glyph glyph-name="Dcroat" unicode="&#x110;" horiz-adv-x="772" 
d="M35 291v118h326v-118h-326zM88 0v700h293c51.333 0 98.333 -8.5 141 -25.5s79.5 -41.167 110.5 -72.5s54.833 -68.333 71.5 -111s25 -89.667 25 -141s-8.33301 -98.5 -25 -141.5s-40.5 -80 -71.5 -111s-67.833 -55 -110.5 -72s-89.667 -25.5 -141 -25.5h-293zM258 116
l-23 34h141c28 0 53 4.83301 75 14.5s40.833 23.167 56.5 40.5s27.834 38.333 36.501 63s13 52 13 82s-4.33301 57.333 -13 82s-20.834 45.667 -36.501 63s-34.5 30.833 -56.5 40.5s-47 14.5 -75 14.5h-144l26 32v-466z" />
    <glyph glyph-name="dcroat" unicode="&#x111;" horiz-adv-x="654" 
d="M317 575v118h326v-118h-326zM272 -11c-46 0 -86.833 11.8311 -122.5 35.498s-63.834 56.334 -84.501 98.001s-31 89.167 -31 142.5s10.333 100.833 31 142.5s49 74.5 85 98.5s77.333 36 124 36c24 0 47 -3.66699 69 -11s42 -17.333 60 -30s32.667 -27.167 44 -43.5
s18 -33.166 20 -50.499l-38 -9v342h161v-740h-149l-9 121l32 -5c-2 -16.667 -8.5 -32.667 -19.5 -48s-25.167 -28.833 -42.5 -40.5s-37.166 -21 -59.499 -28s-45.833 -10.5 -70.5 -10.5zM313 121.998c24.667 0 46 6 64 18s31.833 28.667 41.5 50s14.5 46.333 14.5 75
c0 29.333 -4.83301 54.666 -14.5 75.999s-23.5 38 -41.5 50s-39.333 18 -64 18s-45.834 -6 -63.501 -18s-31.5 -28.667 -41.5 -50s-15 -46.666 -15 -75.999c0 -28.667 5 -53.667 15 -75s23.833 -38 41.5 -50s38.834 -18 63.501 -18z" />
    <glyph glyph-name="Emacron" unicode="&#x112;" horiz-adv-x="645" 
d="M88 0v700h488v-145h-323v-410h333v-145h-498zM168 287v138h363v-138h-363zM163 789v101h359v-101h-359z" />
    <glyph glyph-name="emacron" unicode="&#x113;" horiz-adv-x="586" 
d="M324 -10c-58.667 0 -109.671 11.835 -153.004 35.502s-77 56 -101 97s-36 87.833 -36 140.5c0 40.667 6.66699 78 20 112s32 63.5 56 88.5s52.5 44.333 85.5 58s69.167 20.5 108.5 20.5c37.333 0 71.5 -6.66699 102.5 -20s57.833 -32 80.5 -56s40 -52.333 52 -85
s17.333 -68.334 16 -107.001l-1 -43h-423l-23 90h316l-17 -19v20c-1.33301 16.667 -6.5 31.5 -15.5 44.5s-20.833 23.167 -35.5 30.5s-31.334 11 -50.001 11c-26 0 -48.167 -5.16699 -66.5 -15.5s-32.166 -25.333 -41.499 -45s-14 -43.834 -14 -72.501
c0 -29.333 6.16699 -54.833 18.5 -76.5s30.333 -38.5 54 -50.5s51.834 -18 84.501 -18c22.667 0 42.834 3.33301 60.501 10s36.834 18 57.501 34l75 -106c-20.667 -18 -42.667 -32.667 -66 -44s-47.166 -19.833 -71.499 -25.5s-48.5 -8.5 -72.5 -8.5zM135.996 640.002v101
h336v-101h-336z" />
    <glyph glyph-name="Ebreve" unicode="&#x114;" horiz-adv-x="645" 
d="M88 0v700h488v-145h-323v-410h333v-145h-498zM168 287v138h363v-138h-363zM343 757c-30 0 -57.333 6.33301 -82 19s-45.5 30.5 -62.5 53.5s-28.5 49.5 -34.5 79.5l102 12c6.66699 -17.333 17 -31.666 31 -42.999s29.333 -17 46 -17s32 5.66699 46 17
s24.333 25.666 31 42.999l102 -12c-6 -30 -17.5 -56.5 -34.5 -79.5s-37.667 -40.833 -62 -53.5s-51.833 -19 -82.5 -19z" />
    <glyph glyph-name="ebreve" unicode="&#x115;" horiz-adv-x="586" 
d="M324 -10c-58.667 0 -109.671 11.835 -153.004 35.502s-77 56 -101 97s-36 87.833 -36 140.5c0 40.667 6.66699 78 20 112s32 63.5 56 88.5s52.5 44.333 85.5 58s69.167 20.5 108.5 20.5c37.333 0 71.5 -6.66699 102.5 -20s57.833 -32 80.5 -56s40 -52.333 52 -85
s17.333 -68.334 16 -107.001l-1 -43h-423l-23 90h316l-17 -19v20c-1.33301 16.667 -6.5 31.5 -15.5 44.5s-20.833 23.167 -35.5 30.5s-31.334 11 -50.001 11c-26 0 -48.167 -5.16699 -66.5 -15.5s-32.166 -25.333 -41.499 -45s-14 -43.834 -14 -72.501
c0 -29.333 6.16699 -54.833 18.5 -76.5s30.333 -38.5 54 -50.5s51.834 -18 84.501 -18c22.667 0 42.834 3.33301 60.501 10s36.834 18 57.501 34l75 -106c-20.667 -18 -42.667 -32.667 -66 -44s-47.166 -19.833 -71.499 -25.5s-48.5 -8.5 -72.5 -8.5zM303.996 601.002
c-46 0 -85.002 14.333 -117.002 43s-52.667 67.667 -62 117l102 12c7.33301 -20.667 17.833 -37.167 31.5 -49.5s28.834 -18.5 45.501 -18.5s31.834 6.16699 45.501 18.5s24.167 28.833 31.5 49.5l102 -12c-9.33301 -49.333 -30 -88.333 -62 -117s-71 -43 -117 -43z" />
    <glyph glyph-name="Edotaccent" unicode="&#x116;" horiz-adv-x="645" 
d="M88 0v700h488v-145h-323v-410h333v-145h-498zM168 287v138h363v-138h-363zM343 756c-30.667 0 -54.167 7.33301 -70.5 22s-24.5 35 -24.5 61c0 23.333 8.33301 43 25 59s40 24 70 24c30.667 0 54.167 -7.33301 70.5 -22s24.5 -35 24.5 -61
c0 -23.333 -8.33301 -43 -25 -59s-40 -24 -70 -24z" />
    <glyph glyph-name="edotaccent" unicode="&#x117;" horiz-adv-x="586" 
d="M324 -10c-58.667 0 -109.671 11.835 -153.004 35.502s-77 56 -101 97s-36 87.833 -36 140.5c0 40.667 6.66699 78 20 112s32 63.5 56 88.5s52.5 44.333 85.5 58s69.167 20.5 108.5 20.5c37.333 0 71.5 -6.66699 102.5 -20s57.833 -32 80.5 -56s40 -52.333 52 -85
s17.333 -68.334 16 -107.001l-1 -43h-423l-23 90h316l-17 -19v20c-1.33301 16.667 -6.5 31.5 -15.5 44.5s-20.833 23.167 -35.5 30.5s-31.334 11 -50.001 11c-26 0 -48.167 -5.16699 -66.5 -15.5s-32.166 -25.333 -41.499 -45s-14 -43.834 -14 -72.501
c0 -29.333 6.16699 -54.833 18.5 -76.5s30.333 -38.5 54 -50.5s51.834 -18 84.501 -18c22.667 0 42.834 3.33301 60.501 10s36.834 18 57.501 34l75 -106c-20.667 -18 -42.667 -32.667 -66 -44s-47.166 -19.833 -71.499 -25.5s-48.5 -8.5 -72.5 -8.5zM303.996 636.002
c-30 0 -53.333 7.16699 -70 21.5s-25 34.833 -25 61.5c0 24 8.5 43.833 25.5 59.5s40.167 23.5 69.5 23.5c30 0 53.333 -7.16699 70 -21.5s25 -34.833 25 -61.5c0 -24.667 -8.5 -44.667 -25.5 -60s-40.167 -23 -69.5 -23z" />
    <glyph glyph-name="Eogonek" unicode="&#x118;" horiz-adv-x="645" 
d="M88 0v700h488v-145h-323v-410h333v-145h-498zM168 287v138h363v-138h-363zM462 -211c-22.667 0 -43.1699 4.49902 -61.5029 13.499s-32.666 21.667 -42.999 38s-15.5 34.833 -15.5 55.5c0 16.667 3.66699 32.834 11 48.501s18.333 30.167 33 43.5
s32.334 25.166 53.001 35.499s43.667 19.166 69 26.499l37 -50c-16.667 -2.66699 -32.167 -8.16699 -46.5 -16.5s-25.5 -17.666 -33.5 -27.999s-12 -21.166 -12 -32.499c0 -8.66699 2.33301 -16 7 -22s11.334 -9 20.001 -9c6.66699 0 12.5 2 17.5 6s10.167 10 15.5 18
l69 -51c-9.33301 -22 -24.5 -40.167 -45.5 -54.5s-45.833 -21.5 -74.5 -21.5z" />
    <glyph glyph-name="eogonek" unicode="&#x119;" horiz-adv-x="586" 
d="M383 -205c-36 0 -64.165 10.501 -84.498 31.501s-30.5 45.833 -30.5 74.5c0 28 8.66699 52.667 26 74s41.166 41.333 71.499 60s65.5 37 105.5 55l27 -48c-38.667 -21.333 -68.167 -40.5 -88.5 -57.5s-30.5 -34.833 -30.5 -53.5c0 -10 2.66699 -18 8 -24s12 -9 20 -9
c7.33301 0 13.666 2 18.999 6s11 10 17 18l69 -51c-6.66699 -12 -16 -23.833 -28 -35.5s-26.5 -21.334 -43.5 -29.001s-36.167 -11.5 -57.5 -11.5zM324.002 -9.99902c-58.667 0 -109.671 11.835 -153.004 35.502s-77 56 -101 97s-36 87.833 -36 140.5
c0 40.667 6.66699 78 20 112s32 63.5 56 88.5s52.5 44.333 85.5 58s69.167 20.5 108.5 20.5c37.333 0 71.5 -6.66699 102.5 -20s57.833 -32 80.5 -56s40 -52.333 52 -85s17.333 -68.334 16 -107.001l-1 -43h-423l-23 90h316l-17 -19v20
c-1.33301 16.667 -6.5 31.5 -15.5 44.5s-20.833 23.167 -35.5 30.5s-31.334 11 -50.001 11c-26 0 -48.167 -5.16699 -66.5 -15.5s-32.166 -25.333 -41.499 -45s-14 -43.834 -14 -72.501c0 -29.333 6.16699 -54.833 18.5 -76.5s30.333 -38.5 54 -50.5s51.834 -18 84.501 -18
c22.667 0 42.834 3.33301 60.501 10s36.834 18 57.501 34l75 -106c-20.667 -18 -42.667 -32.667 -66 -44s-47.166 -19.833 -71.499 -25.5s-48.5 -8.5 -72.5 -8.5z" />
    <glyph glyph-name="Ecaron" unicode="&#x11a;" horiz-adv-x="645" 
d="M88 0v700h488v-145h-323v-410h333v-145h-498zM168 287v138h363v-138h-363zM295 755l-134 107l50 56l147 -70h-30l147 70l50 -56l-134 -107h-96z" />
    <glyph glyph-name="ecaron" unicode="&#x11b;" horiz-adv-x="586" 
d="M324 -10c-58.667 0 -109.671 11.835 -153.004 35.502s-77 56 -101 97s-36 87.833 -36 140.5c0 40.667 6.66699 78 20 112s32 63.5 56 88.5s52.5 44.333 85.5 58s69.167 20.5 108.5 20.5c37.333 0 71.5 -6.66699 102.5 -20s57.833 -32 80.5 -56s40 -52.333 52 -85
s17.333 -68.334 16 -107.001l-1 -43h-423l-23 90h316l-17 -19v20c-1.33301 16.667 -6.5 31.5 -15.5 44.5s-20.833 23.167 -35.5 30.5s-31.334 11 -50.001 11c-26 0 -48.167 -5.16699 -66.5 -15.5s-32.166 -25.333 -41.499 -45s-14 -43.834 -14 -72.501
c0 -29.333 6.16699 -54.833 18.5 -76.5s30.333 -38.5 54 -50.5s51.834 -18 84.501 -18c22.667 0 42.834 3.33301 60.501 10s36.834 18 57.501 34l75 -106c-20.667 -18 -42.667 -32.667 -66 -44s-47.166 -19.833 -71.499 -25.5s-48.5 -8.5 -72.5 -8.5zM255.996 607.002
l-140 129l58 50l145 -86h-30l145 86l58 -50l-140 -129h-96z" />
    <glyph glyph-name="Gcircumflex" unicode="&#x11c;" horiz-adv-x="782" 
d="M413 -10c-56 0 -106.67 8.99805 -152.003 26.998s-84.333 43.333 -117 76s-57.667 71.167 -75 115.5s-26 92.5 -26 144.5s9.16699 99.833 27.5 143.5s44.5 81.834 78.5 114.501s74.167 58 120.5 76s96.833 27 151.5 27c38.667 0 75.167 -5 109.5 -15
s65.5 -23.667 93.5 -41s51.667 -37.333 71 -60l-103 -109c-16.667 16 -33.834 29.333 -51.501 40s-36.5 19.167 -56.5 25.5s-41.333 9.5 -64 9.5c-29.333 0 -56.166 -5.33301 -80.499 -16s-45.666 -25.5 -63.999 -44.5s-32.5 -41.333 -42.5 -67s-15 -53.5 -15 -83.5
s5.33301 -58 16 -84s25.334 -48.5 44.001 -67.5s40.834 -34 66.501 -45s53.167 -16.5 82.5 -16.5c20.667 0 40.167 3.33301 58.5 10s34.166 15.667 47.499 27s24 24.833 32 40.5s12 32.5 12 50.5v26l22 -34h-193v133h329c1.33301 -7.33301 2.33301 -17.333 3 -30
s1.16699 -25 1.5 -37s0.5 -21 0.5 -27c0 -45.333 -8.16699 -86.833 -24.5 -124.5s-39.166 -70.167 -68.499 -97.5s-64 -48.666 -104 -63.999s-83.333 -23 -130 -23zM278.997 753.998l-49 57l136 106h90l136 -106l-49 -57l-147 71h30z" />
    <glyph glyph-name="gcircumflex" unicode="&#x11d;" horiz-adv-x="669" 
d="M314 -230c-43.333 0 -86.499 6.33496 -129.499 19.002s-77.833 29 -104.5 49l56 112c14 -9.33301 29.5 -17.5 46.5 -24.5s34.833 -12.5 53.5 -16.5s37.667 -6 57 -6c34 0 61.667 5 83 15s37.333 25.167 48 45.5s16 45.833 16 76.5v89l31 -5
c-4.66699 -22 -16.167 -42 -34.5 -60s-40.833 -32.5 -67.5 -43.5s-55 -16.5 -85 -16.5c-48 0 -90.833 11.167 -128.5 33.5s-67.334 53.333 -89.001 93s-32.5 85.5 -32.5 137.5c0 53.333 10.667 100.5 32 141.5s50.666 73.333 87.999 97s79.333 35.5 126 35.5
c20 0 39.167 -2.33301 57.5 -7s35.333 -10.834 51 -18.501s29.667 -16.667 42 -27s22.333 -21.5 30 -33.5s12.834 -24.333 15.501 -37l-33 -8l6 120h152v-488c0 -43.333 -6.5 -81.833 -19.5 -115.5s-32 -62.334 -57 -86.001s-55.167 -41.5 -90.5 -53.5s-75.333 -18 -120 -18
zM318.001 128.002c26 0 48.5 5.83301 67.5 17.5s33.667 27.834 44 48.501s15.5 45 15.5 73s-5.16699 52.5 -15.5 73.5s-25 37.333 -44 49s-41.5 17.5 -67.5 17.5c-25.333 0 -47.333 -5.83301 -66 -17.5s-33.167 -28 -43.5 -49s-15.5 -45.5 -15.5 -73.5
s5.16699 -52.333 15.5 -73s24.833 -36.834 43.5 -48.501s40.667 -17.5 66 -17.5zM201.001 601.002l-58 50l144 129h96l144 -129l-58 -50l-149 86h30z" />
    <glyph glyph-name="Gbreve" unicode="&#x11e;" horiz-adv-x="782" 
d="M413 -10c-56 0 -106.67 8.99805 -152.003 26.998s-84.333 43.333 -117 76s-57.667 71.167 -75 115.5s-26 92.5 -26 144.5s9.16699 99.833 27.5 143.5s44.5 81.834 78.5 114.501s74.167 58 120.5 76s96.833 27 151.5 27c38.667 0 75.167 -5 109.5 -15
s65.5 -23.667 93.5 -41s51.667 -37.333 71 -60l-103 -109c-16.667 16 -33.834 29.333 -51.501 40s-36.5 19.167 -56.5 25.5s-41.333 9.5 -64 9.5c-29.333 0 -56.166 -5.33301 -80.499 -16s-45.666 -25.5 -63.999 -44.5s-32.5 -41.333 -42.5 -67s-15 -53.5 -15 -83.5
s5.33301 -58 16 -84s25.334 -48.5 44.001 -67.5s40.834 -34 66.501 -45s53.167 -16.5 82.5 -16.5c20.667 0 40.167 3.33301 58.5 10s34.166 15.667 47.499 27s24 24.833 32 40.5s12 32.5 12 50.5v26l22 -34h-193v133h329c1.33301 -7.33301 2.33301 -17.333 3 -30
s1.16699 -25 1.5 -37s0.5 -21 0.5 -27c0 -45.333 -8.16699 -86.833 -24.5 -124.5s-39.166 -70.167 -68.499 -97.5s-64 -48.666 -104 -63.999s-83.333 -23 -130 -23zM411.997 756.998c-30 0 -57.333 6.33301 -82 19s-45.5 30.5 -62.5 53.5s-28.5 49.5 -34.5 79.5l102 12
c6.66699 -17.333 17 -31.666 31 -42.999s29.333 -17 46 -17s32 5.66699 46 17s24.333 25.666 31 42.999l102 -12c-6 -30 -17.5 -56.5 -34.5 -79.5s-37.667 -40.833 -62 -53.5s-51.833 -19 -82.5 -19z" />
    <glyph glyph-name="gbreve" unicode="&#x11f;" horiz-adv-x="669" 
d="M314 -230c-43.333 0 -86.499 6.33496 -129.499 19.002s-77.833 29 -104.5 49l56 112c14 -9.33301 29.5 -17.5 46.5 -24.5s34.833 -12.5 53.5 -16.5s37.667 -6 57 -6c34 0 61.667 5 83 15s37.333 25.167 48 45.5s16 45.833 16 76.5v89l31 -5
c-4.66699 -22 -16.167 -42 -34.5 -60s-40.833 -32.5 -67.5 -43.5s-55 -16.5 -85 -16.5c-48 0 -90.833 11.167 -128.5 33.5s-67.334 53.333 -89.001 93s-32.5 85.5 -32.5 137.5c0 53.333 10.667 100.5 32 141.5s50.666 73.333 87.999 97s79.333 35.5 126 35.5
c20 0 39.167 -2.33301 57.5 -7s35.333 -10.834 51 -18.501s29.667 -16.667 42 -27s22.333 -21.5 30 -33.5s12.834 -24.333 15.501 -37l-33 -8l6 120h152v-488c0 -43.333 -6.5 -81.833 -19.5 -115.5s-32 -62.334 -57 -86.001s-55.167 -41.5 -90.5 -53.5s-75.333 -18 -120 -18
zM318.001 128.002c26 0 48.5 5.83301 67.5 17.5s33.667 27.834 44 48.501s15.5 45 15.5 73s-5.16699 52.5 -15.5 73.5s-25 37.333 -44 49s-41.5 17.5 -67.5 17.5c-25.333 0 -47.333 -5.83301 -66 -17.5s-33.167 -28 -43.5 -49s-15.5 -45.5 -15.5 -73.5
s5.16699 -52.333 15.5 -73s24.833 -36.834 43.5 -48.501s40.667 -17.5 66 -17.5zM335.001 601.002c-46 0 -85.002 14.333 -117.002 43s-52.667 67.667 -62 117l102 12c7.33301 -20.667 17.833 -37.167 31.5 -49.5s28.834 -18.5 45.501 -18.5s31.834 6.16699 45.501 18.5
s24.167 28.833 31.5 49.5l102 -12c-9.33301 -49.333 -30 -88.333 -62 -117s-71 -43 -117 -43z" />
    <glyph glyph-name="Gdotaccent" unicode="&#x120;" horiz-adv-x="782" 
d="M413 -10c-56 0 -106.67 8.99805 -152.003 26.998s-84.333 43.333 -117 76s-57.667 71.167 -75 115.5s-26 92.5 -26 144.5s9.16699 99.833 27.5 143.5s44.5 81.834 78.5 114.501s74.167 58 120.5 76s96.833 27 151.5 27c38.667 0 75.167 -5 109.5 -15
s65.5 -23.667 93.5 -41s51.667 -37.333 71 -60l-103 -109c-16.667 16 -33.834 29.333 -51.501 40s-36.5 19.167 -56.5 25.5s-41.333 9.5 -64 9.5c-29.333 0 -56.166 -5.33301 -80.499 -16s-45.666 -25.5 -63.999 -44.5s-32.5 -41.333 -42.5 -67s-15 -53.5 -15 -83.5
s5.33301 -58 16 -84s25.334 -48.5 44.001 -67.5s40.834 -34 66.501 -45s53.167 -16.5 82.5 -16.5c20.667 0 40.167 3.33301 58.5 10s34.166 15.667 47.499 27s24 24.833 32 40.5s12 32.5 12 50.5v26l22 -34h-193v133h329c1.33301 -7.33301 2.33301 -17.333 3 -30
s1.16699 -25 1.5 -37s0.5 -21 0.5 -27c0 -45.333 -8.16699 -86.833 -24.5 -124.5s-39.166 -70.167 -68.499 -97.5s-64 -48.666 -104 -63.999s-83.333 -23 -130 -23zM411.997 755.998c-30.667 0 -54.167 7.33301 -70.5 22s-24.5 35 -24.5 61c0 23.333 8.33301 43 25 59
s40 24 70 24c30.667 0 54.167 -7.33301 70.5 -22s24.5 -35 24.5 -61c0 -23.333 -8.33301 -43 -25 -59s-40 -24 -70 -24z" />
    <glyph glyph-name="gdotaccent" unicode="&#x121;" horiz-adv-x="669" 
d="M314 -230c-43.333 0 -86.499 6.33496 -129.499 19.002s-77.833 29 -104.5 49l56 112c14 -9.33301 29.5 -17.5 46.5 -24.5s34.833 -12.5 53.5 -16.5s37.667 -6 57 -6c34 0 61.667 5 83 15s37.333 25.167 48 45.5s16 45.833 16 76.5v89l31 -5
c-4.66699 -22 -16.167 -42 -34.5 -60s-40.833 -32.5 -67.5 -43.5s-55 -16.5 -85 -16.5c-48 0 -90.833 11.167 -128.5 33.5s-67.334 53.333 -89.001 93s-32.5 85.5 -32.5 137.5c0 53.333 10.667 100.5 32 141.5s50.666 73.333 87.999 97s79.333 35.5 126 35.5
c20 0 39.167 -2.33301 57.5 -7s35.333 -10.834 51 -18.501s29.667 -16.667 42 -27s22.333 -21.5 30 -33.5s12.834 -24.333 15.501 -37l-33 -8l6 120h152v-488c0 -43.333 -6.5 -81.833 -19.5 -115.5s-32 -62.334 -57 -86.001s-55.167 -41.5 -90.5 -53.5s-75.333 -18 -120 -18
zM318.001 128.002c26 0 48.5 5.83301 67.5 17.5s33.667 27.834 44 48.501s15.5 45 15.5 73s-5.16699 52.5 -15.5 73.5s-25 37.333 -44 49s-41.5 17.5 -67.5 17.5c-25.333 0 -47.333 -5.83301 -66 -17.5s-33.167 -28 -43.5 -49s-15.5 -45.5 -15.5 -73.5
s5.16699 -52.333 15.5 -73s24.833 -36.834 43.5 -48.501s40.667 -17.5 66 -17.5zM335.001 636.002c-30 0 -53.333 7.16699 -70 21.5s-25 34.833 -25 61.5c0 24 8.5 43.833 25.5 59.5s40.167 23.5 69.5 23.5c30 0 53.333 -7.16699 70 -21.5s25 -34.833 25 -61.5
c0 -24.667 -8.5 -44.667 -25.5 -60s-40.167 -23 -69.5 -23z" />
    <glyph glyph-name="uni0122" unicode="&#x122;" horiz-adv-x="782" 
d="M413 -10c-56 0 -106.67 8.99805 -152.003 26.998s-84.333 43.333 -117 76s-57.667 71.167 -75 115.5s-26 92.5 -26 144.5s9.16699 99.833 27.5 143.5s44.5 81.834 78.5 114.501s74.167 58 120.5 76s96.833 27 151.5 27c38.667 0 75.167 -5 109.5 -15
s65.5 -23.667 93.5 -41s51.667 -37.333 71 -60l-103 -109c-16.667 16 -33.834 29.333 -51.501 40s-36.5 19.167 -56.5 25.5s-41.333 9.5 -64 9.5c-29.333 0 -56.166 -5.33301 -80.499 -16s-45.666 -25.5 -63.999 -44.5s-32.5 -41.333 -42.5 -67s-15 -53.5 -15 -83.5
s5.33301 -58 16 -84s25.334 -48.5 44.001 -67.5s40.834 -34 66.501 -45s53.167 -16.5 82.5 -16.5c20.667 0 40.167 3.33301 58.5 10s34.166 15.667 47.499 27s24 24.833 32 40.5s12 32.5 12 50.5v26l22 -34h-193v133h329c1.33301 -7.33301 2.33301 -17.333 3 -30
s1.16699 -25 1.5 -37s0.5 -21 0.5 -27c0 -45.333 -8.16699 -86.833 -24.5 -124.5s-39.166 -70.167 -68.499 -97.5s-64 -48.666 -104 -63.999s-83.333 -23 -130 -23zM335.997 -294.002l-39.9971 55.001c9.33301 3.33301 19.5 7.83301 30.5 13.5s20.667 12.5 29 20.5
s12.5 16 12.5 24c0 5.33301 -1.83301 9.5 -5.5 12.5s-9.83398 6.5 -18.501 10.5c-14 5.33301 -24 12.166 -30 20.499s-9 19.166 -9 32.499c0 21.333 7.66699 37.5 23 48.5s34.666 16.5 57.999 16.5c28 0 51.667 -8.16699 71 -24.5s29 -40.5 29 -72.5
c0 -19.333 -3.5 -37.166 -10.5 -53.499s-17 -31 -30 -44s-28.833 -24.333 -47.5 -34s-39.334 -18.167 -62.001 -25.5z" />
    <glyph glyph-name="uni0123" unicode="&#x123;" horiz-adv-x="669" 
d="M314 -230c-43.333 0 -86.499 6.33496 -129.499 19.002s-77.833 29 -104.5 49l56 112c14 -9.33301 29.5 -17.5 46.5 -24.5s34.833 -12.5 53.5 -16.5s37.667 -6 57 -6c34 0 61.667 5 83 15s37.333 25.167 48 45.5s16 45.833 16 76.5v89l31 -5
c-4.66699 -22 -16.167 -42 -34.5 -60s-40.833 -32.5 -67.5 -43.5s-55 -16.5 -85 -16.5c-48 0 -90.833 11.167 -128.5 33.5s-67.334 53.333 -89.001 93s-32.5 85.5 -32.5 137.5c0 53.333 10.667 100.5 32 141.5s50.666 73.333 87.999 97s79.333 35.5 126 35.5
c20 0 39.167 -2.33301 57.5 -7s35.333 -10.834 51 -18.501s29.667 -16.667 42 -27s22.333 -21.5 30 -33.5s12.834 -24.333 15.501 -37l-33 -8l6 120h152v-488c0 -43.333 -6.5 -81.833 -19.5 -115.5s-32 -62.334 -57 -86.001s-55.167 -41.5 -90.5 -53.5s-75.333 -18 -120 -18
zM318.001 128.002c26 0 48.5 5.83301 67.5 17.5s33.667 27.834 44 48.501s15.5 45 15.5 73s-5.16699 52.5 -15.5 73.5s-25 37.333 -44 49s-41.5 17.5 -67.5 17.5c-25.333 0 -47.333 -5.83301 -66 -17.5s-33.167 -28 -43.5 -49s-15.5 -45.5 -15.5 -73.5
s5.16699 -52.333 15.5 -73s24.833 -36.834 43.5 -48.501s40.667 -17.5 66 -17.5zM337.001 596.002c-25.333 0 -47.834 7.99902 -67.501 23.999s-29.5 41.333 -29.5 76c0 19.333 4.16699 36.833 12.5 52.5s19.666 29.834 33.999 42.501s30.5 23.834 48.5 33.501
s36.333 18.167 55 25.5l40 -55c-8.66699 -2.66699 -18.667 -6.83398 -30 -12.501s-21.166 -12.334 -29.499 -20.001s-12.5 -16.167 -12.5 -25.5c0 -6.66699 2.33301 -11.334 7 -14.001s10.667 -5.66699 18 -9c11.333 -5.33301 20.5 -11.666 27.5 -18.999
s10.5 -18.666 10.5 -33.999c0 -22 -8.16699 -38.333 -24.5 -49s-36.166 -16 -59.499 -16z" />
    <glyph glyph-name="Hcircumflex" unicode="&#x124;" horiz-adv-x="779" 
d="M522 0v700h170v-700h-170zM88 0v700h170v-700h-170zM154 273l1 152h457v-152h-458zM258 754l-49 57l136 106h90l136 -106l-49 -57l-147 71h30z" />
    <glyph glyph-name="hcircumflex" unicode="&#x125;" horiz-adv-x="635" 
d="M71 0v739.999h157v-317l-32 -12c7.33301 24 20.5 45.833 39.5 65.5s41.833 35.5 68.5 47.5s54.667 18 84 18c40 0 73.667 -8.16699 101 -24.5s48 -40.666 62 -72.999s21 -71.833 21 -118.5v-326h-161v313c0 21.333 -3 39 -9 53s-15.167 24.5 -27.5 31.5
s-27.5 10.167 -45.5 9.5c-14 0 -27 -2.16699 -39 -6.5s-22.333 -10.666 -31 -18.999s-15.5 -17.833 -20.5 -28.5s-7.5 -22.334 -7.5 -35.001v-318h-79h-48h-33zM186 793.999l-49 57l136 106h90l136 -106l-49 -57l-147 71h30z" />
    <glyph glyph-name="Hbar" unicode="&#x126;" horiz-adv-x="820" 
d="M34 479v139h91l77 -10h394l84 10h109v-139h-106l-75 10h-416l-71 -10h-87zM543 0v700h170v-700h-170zM109 0v700h170v-700h-170zM176 273v152h458v-152h-458z" />
    <glyph glyph-name="hbar" unicode="&#x127;" horiz-adv-x="635" 
d="M13 578v119h326v-119h-326zM71 0v739.999h157v-317l-32 -12c7.33301 24 20.5 45.833 39.5 65.5s41.833 35.5 68.5 47.5s54.667 18 84 18c40 0 73.667 -8.16699 101 -24.5s48 -40.666 62 -72.999s21 -71.833 21 -118.5v-326h-161v313c0 21.333 -3 39 -9 53
s-15.167 24.5 -27.5 31.5s-27.5 10.167 -45.5 9.5c-14 0 -27 -2.16699 -39 -6.5s-22.333 -10.666 -31 -18.999s-15.5 -17.833 -20.5 -28.5s-7.5 -22.334 -7.5 -35.001v-318h-79h-48h-33z" />
    <glyph glyph-name="Itilde" unicode="&#x128;" horiz-adv-x="555" 
d="M74 0v143h118v414h-118v143h407v-143h-119v-414h119v-143h-407zM354 768c-13.333 0 -26.665 2 -39.998 6s-28 9.33301 -44 16c-12 6 -22.167 10.333 -30.5 13s-15.833 4 -22.5 4c-9.33301 0 -16.833 -3.33301 -22.5 -10s-8.5 -16 -8.5 -28h-100
c0 44 12.167 78.5 36.5 103.5s54.833 37.5 91.5 37.5c12 0 23.833 -1.66699 35.5 -5s26.5 -9 44.5 -17c10.667 -5.33301 19.667 -9.33301 27 -12s14 -4 20 -4c8.66699 0 15.5 3.5 20.5 10.5s7.16699 16.167 6.5 27.5h99c0 -25.333 -4.83301 -49 -14.5 -71
s-22.834 -39.333 -39.501 -52s-36.334 -19 -59.001 -19z" />
    <glyph glyph-name="itilde" unicode="&#x129;" horiz-adv-x="289" 
d="M64 0v531h161v-531h-161zM213 614c-11.333 0 -23.0029 2.00195 -35.0029 6.00195s-25.667 11.333 -41 22c-11.333 9.33301 -20.666 15.833 -27.999 19.5s-13.333 5.5 -18 5.5c-9.33301 0 -17.666 -3.83301 -24.999 -11.5s-12 -19.834 -14 -36.501l-89 13
c0.666992 37.333 11.334 69.333 32.001 96s48.334 40 83.001 40c11.333 0 22.666 -2 33.999 -6s24.666 -11 39.999 -21c8.66699 -7.33301 16.834 -13.5 24.501 -18.5s15.167 -7.5 22.5 -7.5c9.33301 0 17.5 4.16699 24.5 12.5s11.167 20.166 12.5 35.499l90 -13
c-0.666992 -23.333 -5.66699 -45.5 -15 -66.5s-22.5 -37.833 -39.5 -50.5s-36.5 -19 -58.5 -19z" />
    <glyph glyph-name="Imacron" unicode="&#x12a;" horiz-adv-x="555" 
d="M74 0v143h118v414h-118v143h407v-143h-119v-414h119v-143h-407zM97 789v101h359v-101h-359z" />
    <glyph glyph-name="imacron" unicode="&#x12b;" horiz-adv-x="289" 
d="M64 0v531h161v-531h-161zM-24 640v101h336v-101h-336z" />
    <glyph glyph-name="Ibreve" unicode="&#x12c;" horiz-adv-x="555" 
d="M74 0v143h118v414h-118v143h407v-143h-119v-414h119v-143h-407zM277 757c-30 0 -57.333 6.33301 -82 19s-45.5 30.5 -62.5 53.5s-28.5 49.5 -34.5 79.5l102 12c6.66699 -17.333 17 -31.666 31 -42.999s29.333 -17 46 -17s32 5.66699 46 17s24.333 25.666 31 42.999
l102 -12c-6 -30 -17.5 -56.5 -34.5 -79.5s-37.667 -40.833 -62 -53.5s-51.833 -19 -82.5 -19z" />
    <glyph glyph-name="ibreve" unicode="&#x12d;" horiz-adv-x="289" 
d="M64 0v531h161v-531h-161zM144 601c-46 0 -85.002 14.333 -117.002 43s-52.667 67.667 -62 117l102 12c7.33301 -20.667 17.833 -37.167 31.5 -49.5s28.834 -18.5 45.501 -18.5s31.834 6.16699 45.501 18.5s24.167 28.833 31.5 49.5l102 -12
c-9.33301 -49.333 -30 -88.333 -62 -117s-71 -43 -117 -43z" />
    <glyph glyph-name="Iogonek" unicode="&#x12e;" horiz-adv-x="555" 
d="M74 0v143h118v414h-118v143h407v-143h-119v-414h119v-143h-407zM314 -211c-22.667 0 -43.1699 4.49902 -61.5029 13.499s-32.666 21.667 -42.999 38s-15.5 34.833 -15.5 55.5c0 16.667 3.66699 32.834 11 48.501s18.333 30.167 33 43.5s32.334 25.166 53.001 35.499
s43.667 19.166 69 26.499l37 -50c-16.667 -2.66699 -32.167 -8.16699 -46.5 -16.5s-25.5 -17.666 -33.5 -27.999s-12 -21.166 -12 -32.499c0 -8.66699 2.33301 -16 7 -22s11.334 -9 20.001 -9c6.66699 0 12.5 2 17.5 6s10.167 10 15.5 18l69 -51
c-9.33301 -22 -24.5 -40.167 -45.5 -54.5s-45.833 -21.5 -74.5 -21.5z" />
    <glyph glyph-name="iogonek" unicode="&#x12f;" horiz-adv-x="289" 
d="M64 0v531h161v-531h-161zM144 636c-30 0 -53.333 7.16699 -70 21.5s-25 34.833 -25 61.5c0 24 8.5 43.833 25.5 59.5s40.167 23.5 69.5 23.5c30 0 53.333 -7.16699 70 -21.5s25 -34.833 25 -61.5c0 -24.667 -8.5 -44.667 -25.5 -60s-40.167 -23 -69.5 -23zM122 -211
c-22.667 0 -43.1699 5 -61.5029 15s-32.666 23.333 -42.999 40s-15.5 35.334 -15.5 56.001c0 17.333 3.5 33.166 10.5 47.499s17.667 27.5 32 39.5s32.333 23 54 33s46.834 18.667 75.501 26l40 -46c-18.667 -4 -35.667 -10.167 -51 -18.5s-27.5 -17.666 -36.5 -27.999
s-13.5 -21.5 -13.5 -33.5c0 -8 2.5 -14.5 7.5 -19.5s11.5 -7.5 19.5 -7.5c6.66699 0 12.5 1.83301 17.5 5.5s10.167 9.5 15.5 17.5l69 -51c-6 -12 -15 -23.833 -27 -35.5s-25.667 -21.334 -41 -29.001s-32.666 -11.5 -51.999 -11.5z" />
    <glyph glyph-name="Idotaccent" unicode="&#x130;" horiz-adv-x="555" 
d="M74 0v143h118v414h-118v143h407v-143h-119v-414h119v-143h-407zM277 756c-30.667 0 -54.167 7.33301 -70.5 22s-24.5 35 -24.5 61c0 23.333 8.33301 43 25 59s40 24 70 24c30.667 0 54.167 -7.33301 70.5 -22s24.5 -35 24.5 -61c0 -23.333 -8.33301 -43 -25 -59
s-40 -24 -70 -24z" />
    <glyph glyph-name="dotlessi" unicode="&#x131;" horiz-adv-x="289" 
d="M64 0v531h161v-531h-161z" />
    <glyph glyph-name="IJ" unicode="&#x132;" horiz-adv-x="1220" 
d="M74 0v143h118v414h-118v143h407v-143h-119v-414h119v-143h-407zM816 -10c-25.333 0 -49.3271 2.83301 -71.9941 8.5s-43.334 14 -62.001 25s-35.334 24.333 -50.001 40s-27.334 33.167 -38.001 52.5l97 101c9.33301 -14 18.333 -25.5 27 -34.5s17.167 -16.5 25.5 -22.5
s17 -10.333 26 -13s18.5 -4 28.5 -4c16 0 30.167 3.83301 42.5 11.5s21.833 18.167 28.5 31.5s10 29 10 47v319h-128v148h402v-148h-108v-339c0 -34 -5.83301 -64.667 -17.5 -92s-27.834 -50.833 -48.501 -70.5s-44.834 -34.667 -72.501 -45s-57.834 -15.5 -90.501 -15.5z
" />
    <glyph glyph-name="ij" unicode="&#x133;" horiz-adv-x="635" 
d="M80 0v531h160v-531h-160zM160 636c-30 0 -53.499 7.16699 -70.499 21.5s-25.5 34.833 -25.5 61.5c0 24 8.66699 43.667 26 59s40.666 23 69.999 23c30 0 53.333 -7.16699 70 -21.5s25 -34.5 25 -60.5c0 -24.667 -8.5 -44.667 -25.5 -60s-40.167 -23 -69.5 -23z
M342.001 -210l-60.998 123.999c30.667 0 54.667 4 72 12s29.666 21.167 36.999 39.5s11 43.5 11 75.5v490h160v-528c0 -48.667 -8.33301 -88.667 -25 -120s-41.334 -54.666 -74.001 -69.999s-72.667 -23 -120 -23zM484.003 635.999c-30 0 -53.499 7.16699 -70.499 21.5
s-25.5 34.833 -25.5 61.5c0 24 8.66699 43.667 26 59s40.666 23 69.999 23c30 0 53.333 -7.16699 70 -21.5s25 -34.5 25 -60.5c0 -24.667 -8.5 -44.667 -25.5 -60s-40.167 -23 -69.5 -23z" />
    <glyph glyph-name="Jcircumflex" unicode="&#x134;" horiz-adv-x="665" 
d="M261 -10c-25.333 0 -49.3271 2.83301 -71.9941 8.5s-43.334 14 -62.001 25s-35.334 24.333 -50.001 40s-27.334 33.167 -38.001 52.5l97 101c9.33301 -14 18.333 -25.5 27 -34.5s17.167 -16.5 25.5 -22.5s17 -10.333 26 -13s18.5 -4 28.5 -4
c16 0 30.167 3.83301 42.5 11.5s21.833 18.167 28.5 31.5s10 29 10 47v319h-128v148h402v-148h-108v-339c0 -34 -5.83301 -64.667 -17.5 -92s-27.834 -50.833 -48.501 -70.5s-44.834 -34.667 -72.501 -45s-57.834 -15.5 -90.501 -15.5zM273.006 754l-49 57l136 106h90
l136 -106l-49 -57l-147 71h30z" />
    <glyph glyph-name="jcircumflex" unicode="&#x135;" horiz-adv-x="315" 
d="M22 -210l-60 123.999c30 0 53.833 4 71.5 12s30.167 21.167 37.5 39.5s11 43.5 11 75.5v490h160v-528c0 -48.667 -8.5 -88.667 -25.5 -120s-41.833 -54.666 -74.5 -69.999s-72.667 -23 -120 -23zM30 600.999l-58 50l144 129h96l144 -129l-58 -50l-149 86h30z" />
    <glyph glyph-name="uni0136" unicode="&#x136;" horiz-adv-x="739" 
d="M212 205l-44 143l347 352h201zM88 0v700h170v-700h-170zM537 0l-260 342l115 99l343 -441h-198zM314 -294l-39.9971 55.001c9.33301 3.33301 19.5 7.83301 30.5 13.5s20.667 12.5 29 20.5s12.5 16 12.5 24c0 5.33301 -1.83301 9.5 -5.5 12.5s-9.83398 6.5 -18.501 10.5
c-14 5.33301 -24 12.166 -30 20.499s-9 19.166 -9 32.499c0 21.333 7.66699 37.5 23 48.5s34.666 16.5 57.999 16.5c28 0 51.667 -8.16699 71 -24.5s29 -40.5 29 -72.5c0 -19.333 -3.5 -37.166 -10.5 -53.499s-17 -31 -30 -44s-28.833 -24.333 -47.5 -34
s-39.334 -18.167 -62.001 -25.5z" />
    <glyph glyph-name="uni0137" unicode="&#x137;" horiz-adv-x="626" 
d="M225 156l-59 120l248 255h211zM71 0v740h160v-740h-160zM431 0l-187 242l113 88l263 -330h-189zM258 -293l-39.998 55.001c9.33301 2.66699 19.5 7 30.5 13s20.667 12.667 29 20s12.5 15.333 12.5 24c0 6 -1.83301 10.5 -5.5 13.5s-9.83398 6.16699 -18.501 9.5
c-14 5.33301 -24 12.166 -30 20.499s-9 19.5 -9 33.5c0 21.333 8 37.5 24 48.5s36 16.5 60 16.5c27.333 0 50.333 -8.5 69 -25.5s28 -41.833 28 -74.5c0 -17.333 -3.5 -33.5 -10.5 -48.5s-17 -29 -30 -42s-28.833 -24.833 -47.5 -35.5s-39.334 -20 -62.001 -28z" />
    <glyph glyph-name="kgreenlandic" unicode="&#x138;" horiz-adv-x="629" 
d="M223 134l-60 116l249 281h203zM71 0v531h158v-531h-158zM423 0l-178 260l111 79l253 -339h-186z" />
    <glyph glyph-name="Lacute" unicode="&#x139;" horiz-adv-x="609" 
d="M88 0v700h170v-550h312v-150h-482zM86 748l-37 80l209 115l55 -117z" />
    <glyph glyph-name="lacute" unicode="&#x13a;" horiz-adv-x="304" 
d="M72 0v740h160v-740h-160zM64 788l-37 80l209 115l55 -117z" />
    <glyph glyph-name="uni013B" unicode="&#x13b;" horiz-adv-x="609" 
d="M88 0v700h170v-550h312v-150h-482zM250 -294l-39.9971 55.001c9.33301 3.33301 19.5 7.83301 30.5 13.5s20.667 12.5 29 20.5s12.5 16 12.5 24c0 5.33301 -1.83301 9.5 -5.5 12.5s-9.83398 6.5 -18.501 10.5c-14 5.33301 -24 12.166 -30 20.499s-9 19.166 -9 32.499
c0 21.333 7.66699 37.5 23 48.5s34.666 16.5 57.999 16.5c28 0 51.667 -8.16699 71 -24.5s29 -40.5 29 -72.5c0 -19.333 -3.5 -37.166 -10.5 -53.499s-17 -31 -30 -44s-28.833 -24.333 -47.5 -34s-39.334 -18.167 -62.001 -25.5z" />
    <glyph glyph-name="uni013C" unicode="&#x13c;" horiz-adv-x="304" 
d="M72 0v740h160v-740h-160zM97 -293l-39.998 55.001c9.33301 2.66699 19.5 7 30.5 13s20.667 12.667 29 20s12.5 15.333 12.5 24c0 6 -1.83301 10.5 -5.5 13.5s-9.83398 6.16699 -18.501 9.5c-14 5.33301 -24 12.166 -30 20.499s-9 19.5 -9 33.5c0 21.333 8 37.5 24 48.5
s36 16.5 60 16.5c27.333 0 50.333 -8.5 69 -25.5s28 -41.833 28 -74.5c0 -17.333 -3.5 -33.5 -10.5 -48.5s-17 -29 -30 -42s-28.833 -24.833 -47.5 -35.5s-39.334 -20 -62.001 -28z" />
    <glyph glyph-name="Lcaron" unicode="&#x13d;" horiz-adv-x="609" 
d="M88 0v700h170v-550h312v-150h-482zM397 446l-39.9971 55.001c9.33301 3.33301 19.5 7.83301 30.5 13.5s20.667 12.5 29 20.5s12.5 16 12.5 24c0 5.33301 -1.83301 9.5 -5.5 12.5s-9.83398 6.5 -18.501 10.5c-14 5.33301 -24 12.166 -30 20.499s-9 19.166 -9 32.499
c0 21.333 7.66699 37.5 23 48.5s34.666 16.5 57.999 16.5c28 0 51.667 -8.16699 71 -24.5s29 -40.5 29 -72.5c0 -19.333 -3.5 -37.166 -10.5 -53.499s-17 -31 -30 -44s-28.833 -24.333 -47.5 -34s-39.334 -18.167 -62.001 -25.5z" />
    <glyph glyph-name="lcaron" unicode="&#x13e;" horiz-adv-x="404" 
d="M72 0v740h160v-740h-160zM336 486l-39.9971 55.001c9.33301 3.33301 19.5 7.83301 30.5 13.5s20.667 12.5 29 20.5s12.5 16 12.5 24c0 5.33301 -1.83301 9.5 -5.5 12.5s-9.83398 6.5 -18.501 10.5c-14 5.33301 -24 12.166 -30 20.499s-9 19.166 -9 32.499
c0 21.333 7.66699 37.5 23 48.5s34.666 16.5 57.999 16.5c28 0 51.667 -8.16699 71 -24.5s29 -40.5 29 -72.5c0 -19.333 -3.5 -37.166 -10.5 -53.499s-17 -31 -30 -44s-28.833 -24.333 -47.5 -34s-39.334 -18.167 -62.001 -25.5z" />
    <glyph glyph-name="Ldot" unicode="&#x13f;" horiz-adv-x="609" 
d="M88 0v700h170v-550h312v-150h-482zM478 299c-27.333 0 -48.499 7.66699 -63.499 23s-22.5 37.333 -22.5 66c0 26.667 8 48.334 24 65.001s36.667 25 62 25c27.333 0 48.666 -7.83301 63.999 -23.5s23 -37.834 23 -66.501c0 -26 -8 -47.333 -24 -64s-37 -25 -63 -25z" />
    <glyph glyph-name="ldot" unicode="&#x140;" horiz-adv-x="448" 
d="M72 0v740h160v-740h-160zM378 299c-27.333 0 -48.499 7.66699 -63.499 23s-22.5 37.333 -22.5 66c0 26.667 8 48.334 24 65.001s36.667 25 62 25c27.333 0 48.666 -7.83301 63.999 -23.5s23 -37.834 23 -66.501c0 -26 -8 -47.333 -24 -64s-37 -25 -63 -25z" />
    <glyph glyph-name="Lslash" unicode="&#x141;" horiz-adv-x="625" 
d="M40 238l-48 124l357 157l50 -126zM104 0v700h170v-550h312v-150h-482z" />
    <glyph glyph-name="lslash" unicode="&#x142;" horiz-adv-x="377" 
d="M49 253l-50 126l328 144l51 -125zM108 0v740h160v-740h-160z" />
    <glyph glyph-name="Nacute" unicode="&#x143;" horiz-adv-x="807" 
d="M88 0l-0.000976562 700.002h152l367 -500l-33 5c-3.33301 22 -6 43 -8 63s-3.83301 39.667 -5.5 59s-3 39 -4 59s-1.66699 41.667 -2 65s-0.5 48.666 -0.5 75.999v173h165v-700h-154l-383 516l51 -7l8.5 -81.5l6 -59.5c1.66699 -17.333 2.83398 -33 3.50098 -47
s1.16699 -27.833 1.5 -41.5s0.5 -28.834 0.5 -45.501v-234h-165zM314.999 748.002l-37 80l209 115l55 -117z" />
    <glyph glyph-name="nacute" unicode="&#x144;" horiz-adv-x="635" 
d="M71 0v530.999h152l5 -108l-32 -12c7.33301 24 20.5 45.833 39.5 65.5s41.833 35.5 68.5 47.5s54.667 18 84 18c40 0 73.667 -8.16699 101 -24.5s48 -40.666 62 -72.999s21 -71.833 21 -118.5v-326h-161v313c0 21.333 -3 39 -9 53s-15.167 24.5 -27.5 31.5
s-27.5 10.167 -45.5 9.5c-14 0 -27 -2.16699 -39 -6.5s-22.333 -10.666 -31 -18.999s-15.5 -17.833 -20.5 -28.5s-7.5 -22.334 -7.5 -35.001v-318h-79h-48h-33zM269 588.999l-47 73l179 142l73 -105z" />
    <glyph glyph-name="uni0145" unicode="&#x145;" horiz-adv-x="807" 
d="M88 0l-0.000976562 700.002h152l367 -500l-33 5c-3.33301 22 -6 43 -8 63s-3.83301 39.667 -5.5 59s-3 39 -4 59s-1.66699 41.667 -2 65s-0.5 48.666 -0.5 75.999v173h165v-700h-154l-383 516l51 -7l8.5 -81.5l6 -59.5c1.66699 -17.333 2.83398 -33 3.50098 -47
s1.16699 -27.833 1.5 -41.5s0.5 -28.834 0.5 -45.501v-234h-165zM348.999 -293.998l-39.9971 55.001c9.33301 3.33301 19.5 7.83301 30.5 13.5s20.667 12.5 29 20.5s12.5 16 12.5 24c0 5.33301 -1.83301 9.5 -5.5 12.5s-9.83398 6.5 -18.501 10.5
c-14 5.33301 -24 12.166 -30 20.499s-9 19.166 -9 32.499c0 21.333 7.66699 37.5 23 48.5s34.666 16.5 57.999 16.5c28 0 51.667 -8.16699 71 -24.5s29 -40.5 29 -72.5c0 -19.333 -3.5 -37.166 -10.5 -53.499s-17 -31 -30 -44s-28.833 -24.333 -47.5 -34
s-39.334 -18.167 -62.001 -25.5z" />
    <glyph glyph-name="uni0146" unicode="&#x146;" horiz-adv-x="635" 
d="M71 0v530.999h152l5 -108l-32 -12c7.33301 24 20.5 45.833 39.5 65.5s41.833 35.5 68.5 47.5s54.667 18 84 18c40 0 73.667 -8.16699 101 -24.5s48 -40.666 62 -72.999s21 -71.833 21 -118.5v-326h-161v313c0 21.333 -3 39 -9 53s-15.167 24.5 -27.5 31.5
s-27.5 10.167 -45.5 9.5c-14 0 -27 -2.16699 -39 -6.5s-22.333 -10.666 -31 -18.999s-15.5 -17.833 -20.5 -28.5s-7.5 -22.334 -7.5 -35.001v-318h-79h-48h-33zM263 -293.001l-39.998 55.001c9.33301 2.66699 19.5 7 30.5 13s20.667 12.667 29 20s12.5 15.333 12.5 24
c0 6 -1.83301 10.5 -5.5 13.5s-9.83398 6.16699 -18.501 9.5c-14 5.33301 -24 12.166 -30 20.499s-9 19.5 -9 33.5c0 21.333 8 37.5 24 48.5s36 16.5 60 16.5c27.333 0 50.333 -8.5 69 -25.5s28 -41.833 28 -74.5c0 -17.333 -3.5 -33.5 -10.5 -48.5s-17 -29 -30 -42
s-28.833 -24.833 -47.5 -35.5s-39.334 -20 -62.001 -28z" />
    <glyph glyph-name="Ncaron" unicode="&#x147;" horiz-adv-x="807" 
d="M88 0l-0.000976562 700.002h152l367 -500l-33 5c-3.33301 22 -6 43 -8 63s-3.83301 39.667 -5.5 59s-3 39 -4 59s-1.66699 41.667 -2 65s-0.5 48.666 -0.5 75.999v173h165v-700h-154l-383 516l51 -7l8.5 -81.5l6 -59.5c1.66699 -17.333 2.83398 -33 3.50098 -47
s1.16699 -27.833 1.5 -41.5s0.5 -28.834 0.5 -45.501v-234h-165zM355.999 755.002l-134 107l50 56l147 -70h-30l147 70l50 -56l-134 -107h-96z" />
    <glyph glyph-name="ncaron" unicode="&#x148;" horiz-adv-x="635" 
d="M71 0v530.999h152l5 -108l-32 -12c7.33301 24 20.5 45.833 39.5 65.5s41.833 35.5 68.5 47.5s54.667 18 84 18c40 0 73.667 -8.16699 101 -24.5s48 -40.666 62 -72.999s21 -71.833 21 -118.5v-326h-161v313c0 21.333 -3 39 -9 53s-15.167 24.5 -27.5 31.5
s-27.5 10.167 -45.5 9.5c-14 0 -27 -2.16699 -39 -6.5s-22.333 -10.666 -31 -18.999s-15.5 -17.833 -20.5 -28.5s-7.5 -22.334 -7.5 -35.001v-318h-79h-48h-33zM300 606.999l-140 129l58 50l145 -86h-30l145 86l58 -50l-140 -129h-96z" />
    <glyph glyph-name="napostrophe" unicode="&#x149;" horiz-adv-x="670" 
d="M-93 436l21 264h164l-84 -264h-101zM106 0v530.999h152l5 -108l-32 -12c7.33301 24 20.5 45.833 39.5 65.5s41.833 35.5 68.5 47.5s54.667 18 84 18c40 0 73.667 -8.16699 101 -24.5s48 -40.666 62 -72.999s21 -71.833 21 -118.5v-326h-161v313c0 21.333 -3 39 -9 53
s-15.167 24.5 -27.5 31.5s-27.5 10.167 -45.5 9.5c-14 0 -27 -2.16699 -39 -6.5s-22.333 -10.666 -31 -18.999s-15.5 -17.833 -20.5 -28.5s-7.5 -22.334 -7.5 -35.001v-318h-79h-48h-33z" />
    <glyph glyph-name="Eng" unicode="&#x14a;" horiz-adv-x="807" 
d="M494 -203l-67.002 124.996c16 0 31.833 1.5 47.5 4.5s29.834 7.83301 42.501 14.5s22.667 14.834 30 24.501s11 21.167 11 34.5v60l9 -62l-341 458l13 9l4 -44.5l4 -45.5c1.33301 -15.333 2.5 -30.166 3.5 -44.499s1.66699 -27.666 2 -39.999s0.5 -23.166 0.5 -32.499
v-258h-165v700h152l347 -471l-15 -8c-4 27.333 -7.16699 52.833 -9.5 76.5s-4.16602 47.167 -5.49902 70.5s-2.16602 47.833 -2.49902 73.5s-0.5 54.167 -0.5 85.5v173h165v-710c0 -44 -9 -80.167 -27 -108.5s-43.833 -49.5 -77.5 -63.5s-73.834 -21 -120.501 -21z" />
    <glyph glyph-name="eng" unicode="&#x14b;" horiz-adv-x="635" 
d="M349 -203l-61.002 124.997c42.667 0 73.667 9.5 93 28.5s29.333 47.5 30 85.5v277c0 21.333 -3 39 -9 53s-15.167 24.5 -27.5 31.5s-27.5 10.167 -45.5 9.5c-14 0 -27 -2.16699 -39 -6.5s-22.333 -10.666 -31 -18.999s-15.5 -17.833 -20.5 -28.5
s-7.5 -22.334 -7.5 -35.001v-318h-160v531h152l3 -66c12 14.667 26.5 27.834 43.5 39.501s35.5 20.834 55.5 27.501s41 10 63 10c40 0 73.667 -8.16699 101 -24.5s48 -40.666 62 -72.999s21 -71.833 21 -118.5v-336c0 -42.667 -8.66699 -78.167 -26 -106.5
s-42.666 -49.833 -75.999 -64.5s-73.666 -22 -120.999 -22z" />
    <glyph glyph-name="Omacron" unicode="&#x14c;" horiz-adv-x="812" 
d="M407 -10c-53.333 0 -102 9 -146 27s-82.333 43.333 -115 76s-58 71 -76 115s-27 92.333 -27 145s9 101 27 145s43.333 82.333 76 115s71 58 115 76s92.333 27 145 27s101 -9 145 -27s82.333 -43.333 115 -76s57.834 -71 75.501 -115s26.5 -92.333 26.5 -145
c0 -52 -8.83301 -100.167 -26.5 -144.5s-42.834 -82.833 -75.501 -115.5s-71 -58 -115 -76s-92 -27 -144 -27zM406 150c27.333 0 52.5 5 75.5 15s43 24.167 60 42.5s30.167 39.833 39.5 64.5s14 51.667 14 81s-4.66699 56.333 -14 81s-22.5 46.167 -39.5 64.5
s-37 32.5 -60 42.5s-48.167 15 -75.5 15s-52.5 -5 -75.5 -15s-43.167 -24.167 -60.5 -42.5s-30.5 -39.833 -39.5 -64.5s-13.5 -51.667 -13.5 -81s4.5 -56.5 13.5 -81.5s22.167 -46.5 39.5 -64.5s37.5 -32 60.5 -42s48.167 -15 75.5 -15zM226 789v101h359v-101h-359z" />
    <glyph glyph-name="omacron" unicode="&#x14d;" horiz-adv-x="641" 
d="M321 -10c-55.333 0 -104.5 12 -147.5 36s-77 56.667 -102 98s-37.5 88.666 -37.5 141.999s12.5 100.666 37.5 141.999s59 74 102 98s92.167 36 147.5 36s104.5 -12 147.5 -36s76.833 -56.667 101.5 -98s37 -88.666 37 -141.999s-12.333 -100.666 -37 -141.999
s-58.5 -74 -101.5 -98s-92.167 -36 -147.5 -36zM321 128c24 0 45.333 6 64 18s33.334 28.333 44.001 49s15.667 44.334 15 71.001c0.666992 26.667 -4.33301 50.5 -15 71.5s-25.334 37.5 -44.001 49.5s-40 18 -64 18s-45.5 -6 -64.5 -18s-33.833 -28.5 -44.5 -49.5
s-15.667 -44.833 -15 -71.5c-0.666992 -26.667 4.33301 -50.334 15 -71.001s25.5 -37 44.5 -49s40.5 -18 64.5 -18zM153 640v101h336v-101h-336z" />
    <glyph glyph-name="Obreve" unicode="&#x14e;" horiz-adv-x="812" 
d="M407 -10c-53.333 0 -102 9 -146 27s-82.333 43.333 -115 76s-58 71 -76 115s-27 92.333 -27 145s9 101 27 145s43.333 82.333 76 115s71 58 115 76s92.333 27 145 27s101 -9 145 -27s82.333 -43.333 115 -76s57.834 -71 75.501 -115s26.5 -92.333 26.5 -145
c0 -52 -8.83301 -100.167 -26.5 -144.5s-42.834 -82.833 -75.501 -115.5s-71 -58 -115 -76s-92 -27 -144 -27zM406 150c27.333 0 52.5 5 75.5 15s43 24.167 60 42.5s30.167 39.833 39.5 64.5s14 51.667 14 81s-4.66699 56.333 -14 81s-22.5 46.167 -39.5 64.5
s-37 32.5 -60 42.5s-48.167 15 -75.5 15s-52.5 -5 -75.5 -15s-43.167 -24.167 -60.5 -42.5s-30.5 -39.833 -39.5 -64.5s-13.5 -51.667 -13.5 -81s4.5 -56.5 13.5 -81.5s22.167 -46.5 39.5 -64.5s37.5 -32 60.5 -42s48.167 -15 75.5 -15zM406 757
c-30 0 -57.333 6.33301 -82 19s-45.5 30.5 -62.5 53.5s-28.5 49.5 -34.5 79.5l102 12c6.66699 -17.333 17 -31.666 31 -42.999s29.333 -17 46 -17s32 5.66699 46 17s24.333 25.666 31 42.999l102 -12c-6 -30 -17.5 -56.5 -34.5 -79.5s-37.667 -40.833 -62 -53.5
s-51.833 -19 -82.5 -19z" />
    <glyph glyph-name="obreve" unicode="&#x14f;" horiz-adv-x="641" 
d="M321 -10c-55.333 0 -104.5 12 -147.5 36s-77 56.667 -102 98s-37.5 88.666 -37.5 141.999s12.5 100.666 37.5 141.999s59 74 102 98s92.167 36 147.5 36s104.5 -12 147.5 -36s76.833 -56.667 101.5 -98s37 -88.666 37 -141.999s-12.333 -100.666 -37 -141.999
s-58.5 -74 -101.5 -98s-92.167 -36 -147.5 -36zM321 128c24 0 45.333 6 64 18s33.334 28.333 44.001 49s15.667 44.334 15 71.001c0.666992 26.667 -4.33301 50.5 -15 71.5s-25.334 37.5 -44.001 49.5s-40 18 -64 18s-45.5 -6 -64.5 -18s-33.833 -28.5 -44.5 -49.5
s-15.667 -44.833 -15 -71.5c-0.666992 -26.667 4.33301 -50.334 15 -71.001s25.5 -37 44.5 -49s40.5 -18 64.5 -18zM321 601c-46 0 -85.002 14.333 -117.002 43s-52.667 67.667 -62 117l102 12c7.33301 -20.667 17.833 -37.167 31.5 -49.5s28.834 -18.5 45.501 -18.5
s31.834 6.16699 45.501 18.5s24.167 28.833 31.5 49.5l102 -12c-9.33301 -49.333 -30 -88.333 -62 -117s-71 -43 -117 -43z" />
    <glyph glyph-name="Ohungarumlaut" unicode="&#x150;" horiz-adv-x="812" 
d="M407 -10c-53.333 0 -102 9 -146 27s-82.333 43.333 -115 76s-58 71 -76 115s-27 92.333 -27 145s9 101 27 145s43.333 82.333 76 115s71 58 115 76s92.333 27 145 27s101 -9 145 -27s82.333 -43.333 115 -76s57.834 -71 75.501 -115s26.5 -92.333 26.5 -145
c0 -52 -8.83301 -100.167 -26.5 -144.5s-42.834 -82.833 -75.501 -115.5s-71 -58 -115 -76s-92 -27 -144 -27zM406 150c27.333 0 52.5 5 75.5 15s43 24.167 60 42.5s30.167 39.833 39.5 64.5s14 51.667 14 81s-4.66699 56.333 -14 81s-22.5 46.167 -39.5 64.5
s-37 32.5 -60 42.5s-48.167 15 -75.5 15s-52.5 -5 -75.5 -15s-43.167 -24.167 -60.5 -42.5s-30.5 -39.833 -39.5 -64.5s-13.5 -51.667 -13.5 -81s4.5 -56.5 13.5 -81.5s22.167 -46.5 39.5 -64.5s37.5 -32 60.5 -42s48.167 -15 75.5 -15zM285 753l-52 70l151 143l77 -98z
M507 751l-50 72l157 141l77 -102z" />
    <glyph glyph-name="ohungarumlaut" unicode="&#x151;" horiz-adv-x="641" 
d="M321 -10c-55.333 0 -104.5 12 -147.5 36s-77 56.667 -102 98s-37.5 88.666 -37.5 141.999s12.5 100.666 37.5 141.999s59 74 102 98s92.167 36 147.5 36s104.5 -12 147.5 -36s76.833 -56.667 101.5 -98s37 -88.666 37 -141.999s-12.333 -100.666 -37 -141.999
s-58.5 -74 -101.5 -98s-92.167 -36 -147.5 -36zM321 128c24 0 45.333 6 64 18s33.334 28.333 44.001 49s15.667 44.334 15 71.001c0.666992 26.667 -4.33301 50.5 -15 71.5s-25.334 37.5 -44.001 49.5s-40 18 -64 18s-45.5 -6 -64.5 -18s-33.833 -28.5 -44.5 -49.5
s-15.667 -44.833 -15 -71.5c-0.666992 -26.667 4.33301 -50.334 15 -71.001s25.5 -37 44.5 -49s40.5 -18 64.5 -18zM367 590l-64 51l153 169l90 -90zM162 587l-67 48l141 176l95 -84z" />
    <glyph glyph-name="OE" unicode="&#x152;" horiz-adv-x="1079" 
d="M375 0c-50.667 0 -96.499 8.33301 -137.499 25s-75.833 40.5 -104.5 71.5s-50.834 68 -66.501 111s-23.5 90.5 -23.5 142.5s8.33301 99.333 25 142s40.334 79.667 71.001 111s67.667 55.333 111 72s91.666 25 144.999 25h625v-145h-333v-127h278v-138h-278v-145h333v-145
h-645zM215.001 350c0 -31.333 4.00098 -59.3359 12.001 -84.0029s19.667 -45.5 35 -62.5s34.166 -30.167 56.499 -39.5s47.833 -14 76.5 -14h127v400h-119c-30 0 -56.5 -4.66699 -79.5 -14s-42.5 -22.666 -58.5 -39.999s-28.333 -38.166 -37 -62.499
s-13 -52.166 -13 -83.499z" />
    <glyph glyph-name="oe" unicode="&#x153;" horiz-adv-x="1003" 
d="M321 -10c-55.333 0 -104.501 12.0068 -147.501 36.0068s-77 56.667 -102 98s-37.5 88.666 -37.5 141.999s12.5 100.666 37.5 141.999s59 74 102 98s92.167 36 147.5 36c32 0 61.667 -4.16699 89 -12.5s52.5 -20.5 75.5 -36.5s42.833 -35.333 59.5 -58h-33
c16 22.667 34.333 42 55 58s43.834 28.167 69.501 36.5s52.834 12.5 81.501 12.5c38 0 72.667 -6.66699 104 -20s58.333 -32 81 -56s40 -52.333 52 -85s17.667 -68.334 17 -107.001l-1 -43h-379l-2 90h278l-45 -39v37c0 18 -4.5 33.667 -13.5 47s-21.5 23.666 -37.5 30.999
s-34.333 11 -55 11c-20 0 -37.333 -3.33301 -52 -10s-26.667 -16 -36 -28s-16.166 -25.833 -20.499 -41.5s-6.5 -32.5 -6.5 -50.5c0 -28.667 5 -54.167 15 -76.5s26.167 -39.833 48.5 -52.5s51.166 -19 86.499 -19c23.333 0 44.333 3.33301 63 10s38.667 18 60 34l76 -106
c-20.667 -17.333 -42.834 -31.833 -66.501 -43.5s-47.5 -20.334 -71.5 -26.001s-48 -8.5 -72 -8.5c-34 0 -65.5 4.16699 -94.5 12.5s-55.167 20.666 -78.5 36.999s-43.333 36.166 -60 59.499h32c-14.667 -23.333 -33.167 -43 -55.5 -59s-47.333 -28.333 -75 -37
s-57.167 -13 -88.5 -13zM320.999 128.007c24 0 45.333 6 64 18s33.334 28.333 44.001 49s15.667 44.334 15 71.001c0.666992 26.667 -4.33301 50.5 -15 71.5s-25.334 37.5 -44.001 49.5s-40 18 -64 18s-45.5 -6 -64.5 -18s-33.833 -28.5 -44.5 -49.5
s-15.667 -44.833 -15 -71.5c-0.666992 -26.667 4.33301 -50.334 15 -71.001s25.5 -37 44.5 -49s40.5 -18 64.5 -18z" />
    <glyph glyph-name="Racute" unicode="&#x154;" horiz-adv-x="702" 
d="M88 0v700.001h315c44.667 0 85.167 -9.66699 121.5 -29s64.833 -45.833 85.5 -79.5s31 -71.834 31 -114.501c0 -44 -10.333 -83.5 -31 -118.5s-49 -62.5 -85 -82.5s-76.667 -30 -122 -30h-153v-246h-162zM476 0.000976562l-178 316l174 25l198 -341h-194zM250 376.001
h138c17.333 0 32.5 3.83301 45.5 11.5s23 18.5 30 32.5s10.5 30 10.5 48s-4 33.833 -12 47.5s-19.5 24.167 -34.5 31.5s-33.167 11 -54.5 11h-123v-182zM244 748.001l-37 80l209 115l55 -117z" />
    <glyph glyph-name="racute" unicode="&#x155;" horiz-adv-x="455" 
d="M71 0v530.999h152l7 -173l-30 33c8 28.667 21.167 54.334 39.5 77.001s39.833 40.667 64.5 54s51 20 79 20c12 0 23.167 -1 33.5 -3s19.833 -4.33301 28.5 -7l-44 -177c-7.33301 4.66699 -17.166 8.5 -29.499 11.5s-25.166 4.5 -38.499 4.5
c-14.667 0 -28.334 -2.5 -41.001 -7.5s-23.334 -12.167 -32.001 -21.5s-15.5 -20.333 -20.5 -33s-7.5 -27 -7.5 -43v-266h-161zM183 588.999l-47 73l179 142l73 -105z" />
    <glyph glyph-name="uni0156" unicode="&#x156;" horiz-adv-x="702" 
d="M88 0v700.001h315c44.667 0 85.167 -9.66699 121.5 -29s64.833 -45.833 85.5 -79.5s31 -71.834 31 -114.501c0 -44 -10.333 -83.5 -31 -118.5s-49 -62.5 -85 -82.5s-76.667 -30 -122 -30h-153v-246h-162zM476 0.000976562l-178 316l174 25l198 -341h-194zM250 376.001
h138c17.333 0 32.5 3.83301 45.5 11.5s23 18.5 30 32.5s10.5 30 10.5 48s-4 33.833 -12 47.5s-19.5 24.167 -34.5 31.5s-33.167 11 -54.5 11h-123v-182zM296 -293.999l-39.9971 55.001c9.33301 3.33301 19.5 7.83301 30.5 13.5s20.667 12.5 29 20.5s12.5 16 12.5 24
c0 5.33301 -1.83301 9.5 -5.5 12.5s-9.83398 6.5 -18.501 10.5c-14 5.33301 -24 12.166 -30 20.499s-9 19.166 -9 32.499c0 21.333 7.66699 37.5 23 48.5s34.666 16.5 57.999 16.5c28 0 51.667 -8.16699 71 -24.5s29 -40.5 29 -72.5c0 -19.333 -3.5 -37.166 -10.5 -53.499
s-17 -31 -30 -44s-28.833 -24.333 -47.5 -34s-39.334 -18.167 -62.001 -25.5z" />
    <glyph glyph-name="uni0157" unicode="&#x157;" horiz-adv-x="455" 
d="M71 0v530.999h152l7 -173l-30 33c8 28.667 21.167 54.334 39.5 77.001s39.833 40.667 64.5 54s51 20 79 20c12 0 23.167 -1 33.5 -3s19.833 -4.33301 28.5 -7l-44 -177c-7.33301 4.66699 -17.166 8.5 -29.499 11.5s-25.166 4.5 -38.499 4.5
c-14.667 0 -28.334 -2.5 -41.001 -7.5s-23.334 -12.167 -32.001 -21.5s-15.5 -20.333 -20.5 -33s-7.5 -27 -7.5 -43v-266h-161zM92 -293.001l-39.998 55.001c9.33301 2.66699 19.5 7 30.5 13s20.667 12.667 29 20s12.5 15.333 12.5 24c0 6 -1.83301 10.5 -5.5 13.5
s-9.83398 6.16699 -18.501 9.5c-14 5.33301 -24 12.166 -30 20.499s-9 19.5 -9 33.5c0 21.333 8 37.5 24 48.5s36 16.5 60 16.5c27.333 0 50.333 -8.5 69 -25.5s28 -41.833 28 -74.5c0 -17.333 -3.5 -33.5 -10.5 -48.5s-17 -29 -30 -42s-28.833 -24.833 -47.5 -35.5
s-39.334 -20 -62.001 -28z" />
    <glyph glyph-name="Rcaron" unicode="&#x158;" horiz-adv-x="702" 
d="M88 0v700.001h315c44.667 0 85.167 -9.66699 121.5 -29s64.833 -45.833 85.5 -79.5s31 -71.834 31 -114.501c0 -44 -10.333 -83.5 -31 -118.5s-49 -62.5 -85 -82.5s-76.667 -30 -122 -30h-153v-246h-162zM476 0.000976562l-178 316l174 25l198 -341h-194zM250 376.001
h138c17.333 0 32.5 3.83301 45.5 11.5s23 18.5 30 32.5s10.5 30 10.5 48s-4 33.833 -12 47.5s-19.5 24.167 -34.5 31.5s-33.167 11 -54.5 11h-123v-182zM285 755.001l-134 107l50 56l147 -70h-30l147 70l50 -56l-134 -107h-96z" />
    <glyph glyph-name="rcaron" unicode="&#x159;" horiz-adv-x="455" 
d="M71 0v530.999h152l7 -173l-30 33c8 28.667 21.167 54.334 39.5 77.001s39.833 40.667 64.5 54s51 20 79 20c12 0 23.167 -1 33.5 -3s19.833 -4.33301 28.5 -7l-44 -177c-7.33301 4.66699 -17.166 8.5 -29.499 11.5s-25.166 4.5 -38.499 4.5
c-14.667 0 -28.334 -2.5 -41.001 -7.5s-23.334 -12.167 -32.001 -21.5s-15.5 -20.333 -20.5 -33s-7.5 -27 -7.5 -43v-266h-161zM214 606.999l-140 129l58 50l145 -86h-30l145 86l58 -50l-140 -129h-96z" />
    <glyph glyph-name="Sacute" unicode="&#x15a;" horiz-adv-x="634" 
d="M320 -10c-46 0 -87.5029 5.50098 -124.503 16.501s-69.833 27 -98.5 48s-54.334 45.833 -77.001 74.5l103 117c33.333 -44.667 66.833 -74.667 100.5 -90s68.5 -23 104.5 -23c18 0 34.333 2.33301 49 7s26 11.5 34 20.5s12 20.167 12 33.5c0 10 -2.5 19 -7.5 27
s-11.833 15 -20.5 21s-19 11.5 -31 16.5s-24.667 9.33301 -38 13s-27 6.83398 -41 9.50098c-38.667 8.66699 -72.334 19.334 -101.001 32.001s-52.5 28.167 -71.5 46.5s-33.167 39.333 -42.5 63s-14 50.167 -14 79.5c0 31.333 7.16699 60.166 21.5 86.499
s33.666 49 57.999 68s52.5 33.667 84.5 44s65.333 15.5 100 15.5c46 0 85.5 -4.83301 118.5 -14.5s61.333 -23.5 85 -41.5s43.834 -39.667 60.501 -65l-105 -101c-14 17.333 -29.167 31.666 -45.5 42.999s-33.666 20 -51.999 26s-37.166 9 -56.499 9
c-20 0 -37.167 -2.5 -51.5 -7.5s-25.5 -12 -33.5 -21s-12 -19.833 -12 -32.5c0 -11.333 3.33301 -21 10 -29s15.667 -15.167 27 -21.5s24.333 -11.666 39 -15.999s30 -7.83301 46 -10.5c36.667 -7.33301 69.834 -17 99.501 -29s55.334 -26.667 77.001 -44
s38.334 -37.833 50.001 -61.5s17.5 -51.167 17.5 -82.5c0 -48.667 -11.833 -89.834 -35.5 -123.501s-56 -59.334 -97 -77.001s-88.167 -26.5 -141.5 -26.5zM242.997 748.001l-37 80l209 115l55 -117z" />
    <glyph glyph-name="sacute" unicode="&#x15b;" horiz-adv-x="495" 
d="M250 -10c-52 0 -97.8369 8.33691 -137.504 25.0039s-71.167 39 -94.5 67l97 84c20.667 -20.667 44 -35.834 70 -45.501s50.667 -14.5 74 -14.5c9.33301 0 17.666 1 24.999 3s13.5 4.83301 18.5 8.5s8.83301 8 11.5 13s4 10.833 4 17.5c0 13.333 -6 23.666 -18 30.999
c-6 3.33301 -16 7.33301 -30 12s-32 10 -54 16c-31.333 8 -58.5 17.5 -81.5 28.5s-41.833 23.833 -56.5 38.5c-13.333 14 -23.666 29.5 -30.999 46.5s-11 36.167 -11 57.5c0 24.667 5.83301 47 17.5 67s27.334 37.333 47.001 52s42.334 25.834 68.001 33.501
s52.167 11.5 79.5 11.5c29.333 0 57.333 -3.33301 84 -10s51.5 -16 74.5 -28s43.5 -26.333 61.5 -43l-84 -94c-12 11.333 -25.5 21.5 -40.5 30.5s-30.5 16.167 -46.5 21.5s-30.667 8 -44 8c-10 0 -18.833 -0.833008 -26.5 -2.5s-14.167 -4.33398 -19.5 -8.00098
s-9.33301 -8 -12 -13s-4 -10.833 -4 -17.5s1.83301 -13 5.5 -19s8.83398 -11 15.501 -15s17.334 -8.5 32.001 -13.5s34.667 -11.167 60 -18.5c31.333 -8.66699 58.333 -18.334 81 -29.001s40.667 -23.334 54 -38.001c10.667 -11.333 18.667 -24.5 24 -39.5
s8 -31.167 8 -48.5c0 -34 -9.5 -64.167 -28.5 -90.5s-45.167 -47 -78.5 -62s-71.333 -22.5 -114 -22.5zM168.996 589.004l-47 73l179 142l73 -105z" />
    <glyph glyph-name="Scircumflex" unicode="&#x15c;" horiz-adv-x="634" 
d="M320 -10c-46 0 -87.5029 5.50098 -124.503 16.501s-69.833 27 -98.5 48s-54.334 45.833 -77.001 74.5l103 117c33.333 -44.667 66.833 -74.667 100.5 -90s68.5 -23 104.5 -23c18 0 34.333 2.33301 49 7s26 11.5 34 20.5s12 20.167 12 33.5c0 10 -2.5 19 -7.5 27
s-11.833 15 -20.5 21s-19 11.5 -31 16.5s-24.667 9.33301 -38 13s-27 6.83398 -41 9.50098c-38.667 8.66699 -72.334 19.334 -101.001 32.001s-52.5 28.167 -71.5 46.5s-33.167 39.333 -42.5 63s-14 50.167 -14 79.5c0 31.333 7.16699 60.166 21.5 86.499
s33.666 49 57.999 68s52.5 33.667 84.5 44s65.333 15.5 100 15.5c46 0 85.5 -4.83301 118.5 -14.5s61.333 -23.5 85 -41.5s43.834 -39.667 60.501 -65l-105 -101c-14 17.333 -29.167 31.666 -45.5 42.999s-33.666 20 -51.999 26s-37.166 9 -56.499 9
c-20 0 -37.167 -2.5 -51.5 -7.5s-25.5 -12 -33.5 -21s-12 -19.833 -12 -32.5c0 -11.333 3.33301 -21 10 -29s15.667 -15.167 27 -21.5s24.333 -11.666 39 -15.999s30 -7.83301 46 -10.5c36.667 -7.33301 69.834 -17 99.501 -29s55.334 -26.667 77.001 -44
s38.334 -37.833 50.001 -61.5s17.5 -51.167 17.5 -82.5c0 -48.667 -11.833 -89.834 -35.5 -123.501s-56 -59.334 -97 -77.001s-88.167 -26.5 -141.5 -26.5zM198.997 754.001l-49 57l136 106h90l136 -106l-49 -57l-147 71h30z" />
    <glyph glyph-name="scircumflex" unicode="&#x15d;" horiz-adv-x="495" 
d="M250 -10c-52 0 -97.8369 8.33691 -137.504 25.0039s-71.167 39 -94.5 67l97 84c20.667 -20.667 44 -35.834 70 -45.501s50.667 -14.5 74 -14.5c9.33301 0 17.666 1 24.999 3s13.5 4.83301 18.5 8.5s8.83301 8 11.5 13s4 10.833 4 17.5c0 13.333 -6 23.666 -18 30.999
c-6 3.33301 -16 7.33301 -30 12s-32 10 -54 16c-31.333 8 -58.5 17.5 -81.5 28.5s-41.833 23.833 -56.5 38.5c-13.333 14 -23.666 29.5 -30.999 46.5s-11 36.167 -11 57.5c0 24.667 5.83301 47 17.5 67s27.334 37.333 47.001 52s42.334 25.834 68.001 33.501
s52.167 11.5 79.5 11.5c29.333 0 57.333 -3.33301 84 -10s51.5 -16 74.5 -28s43.5 -26.333 61.5 -43l-84 -94c-12 11.333 -25.5 21.5 -40.5 30.5s-30.5 16.167 -46.5 21.5s-30.667 8 -44 8c-10 0 -18.833 -0.833008 -26.5 -2.5s-14.167 -4.33398 -19.5 -8.00098
s-9.33301 -8 -12 -13s-4 -10.833 -4 -17.5s1.83301 -13 5.5 -19s8.83398 -11 15.501 -15s17.334 -8.5 32.001 -13.5s34.667 -11.167 60 -18.5c31.333 -8.66699 58.333 -18.334 81 -29.001s40.667 -23.334 54 -38.001c10.667 -11.333 18.667 -24.5 24 -39.5
s8 -31.167 8 -48.5c0 -34 -9.5 -64.167 -28.5 -90.5s-45.167 -47 -78.5 -62s-71.333 -22.5 -114 -22.5zM113.996 601.004l-58 50l144 129h96l144 -129l-58 -50l-149 86h30z" />
    <glyph glyph-name="Scedilla" unicode="&#x15e;" horiz-adv-x="634" 
d="M320 -10c-46 0 -87.5029 5.50098 -124.503 16.501s-69.833 27 -98.5 48s-54.334 45.833 -77.001 74.5l103 117c33.333 -44.667 66.833 -74.667 100.5 -90s68.5 -23 104.5 -23c18 0 34.333 2.33301 49 7s26 11.5 34 20.5s12 20.167 12 33.5c0 10 -2.5 19 -7.5 27
s-11.833 15 -20.5 21s-19 11.5 -31 16.5s-24.667 9.33301 -38 13s-27 6.83398 -41 9.50098c-38.667 8.66699 -72.334 19.334 -101.001 32.001s-52.5 28.167 -71.5 46.5s-33.167 39.333 -42.5 63s-14 50.167 -14 79.5c0 31.333 7.16699 60.166 21.5 86.499
s33.666 49 57.999 68s52.5 33.667 84.5 44s65.333 15.5 100 15.5c46 0 85.5 -4.83301 118.5 -14.5s61.333 -23.5 85 -41.5s43.834 -39.667 60.501 -65l-105 -101c-14 17.333 -29.167 31.666 -45.5 42.999s-33.666 20 -51.999 26s-37.166 9 -56.499 9
c-20 0 -37.167 -2.5 -51.5 -7.5s-25.5 -12 -33.5 -21s-12 -19.833 -12 -32.5c0 -11.333 3.33301 -21 10 -29s15.667 -15.167 27 -21.5s24.333 -11.666 39 -15.999s30 -7.83301 46 -10.5c36.667 -7.33301 69.834 -17 99.501 -29s55.334 -26.667 77.001 -44
s38.334 -37.833 50.001 -61.5s17.5 -51.167 17.5 -82.5c0 -48.667 -11.833 -89.834 -35.5 -123.501s-56 -59.334 -97 -77.001s-88.167 -26.5 -141.5 -26.5zM237.997 -245.999l-8.99805 75.0039c13.333 0 27.5 1.66699 42.5 5s27.833 8.16602 38.5 14.499
s16 13.166 16 20.499c0 8 -3.83301 14.333 -11.5 19s-16.834 8.16699 -27.501 10.5s-21.334 3.5 -32.001 3.5l-18 14l69 108h82l-45 -67c34.667 -4 60.334 -14.833 77.001 -32.5s25 -38.834 25 -63.501c0 -20.667 -6.33301 -37.834 -19 -51.501
s-29.334 -24.834 -50.001 -33.501s-43 -14.667 -67 -18s-47.667 -4.66602 -71 -3.99902z" />
    <glyph glyph-name="scedilla" unicode="&#x15f;" horiz-adv-x="495" 
d="M250 -10c-52 0 -97.8369 8.33691 -137.504 25.0039s-71.167 39 -94.5 67l97 84c20.667 -20.667 44 -35.834 70 -45.501s50.667 -14.5 74 -14.5c9.33301 0 17.666 1 24.999 3s13.5 4.83301 18.5 8.5s8.83301 8 11.5 13s4 10.833 4 17.5c0 13.333 -6 23.666 -18 30.999
c-6 3.33301 -16 7.33301 -30 12s-32 10 -54 16c-31.333 8 -58.5 17.5 -81.5 28.5s-41.833 23.833 -56.5 38.5c-13.333 14 -23.666 29.5 -30.999 46.5s-11 36.167 -11 57.5c0 24.667 5.83301 47 17.5 67s27.334 37.333 47.001 52s42.334 25.834 68.001 33.501
s52.167 11.5 79.5 11.5c29.333 0 57.333 -3.33301 84 -10s51.5 -16 74.5 -28s43.5 -26.333 61.5 -43l-84 -94c-12 11.333 -25.5 21.5 -40.5 30.5s-30.5 16.167 -46.5 21.5s-30.667 8 -44 8c-10 0 -18.833 -0.833008 -26.5 -2.5s-14.167 -4.33398 -19.5 -8.00098
s-9.33301 -8 -12 -13s-4 -10.833 -4 -17.5s1.83301 -13 5.5 -19s8.83398 -11 15.501 -15s17.334 -8.5 32.001 -13.5s34.667 -11.167 60 -18.5c31.333 -8.66699 58.333 -18.334 81 -29.001s40.667 -23.334 54 -38.001c10.667 -11.333 18.667 -24.5 24 -39.5
s8 -31.167 8 -48.5c0 -34 -9.5 -64.167 -28.5 -90.5s-45.167 -47 -78.5 -62s-71.333 -22.5 -114 -22.5zM152.996 -245.996l-9.99805 75.0039c14 0 28.5 1.66699 43.5 5s27.667 8.16602 38 14.499s15.5 13.166 15.5 20.499c0 8 -3.83301 14.333 -11.5 19
s-16.834 8.16699 -27.501 10.5s-21.334 3.5 -32.001 3.5l-17 14l69 108h82l-46 -67c34.667 -4 60.5 -14.833 77.5 -32.5s25.5 -38.834 25.5 -63.501c0 -20.667 -6.5 -37.834 -19.5 -51.501s-29.833 -24.834 -50.5 -33.501s-43 -14.667 -67 -18
s-47.333 -4.66602 -70 -3.99902z" />
    <glyph glyph-name="Scaron" unicode="&#x160;" horiz-adv-x="634" 
d="M320 -10c-46 0 -87.5029 5.50098 -124.503 16.501s-69.833 27 -98.5 48s-54.334 45.833 -77.001 74.5l103 117c33.333 -44.667 66.833 -74.667 100.5 -90s68.5 -23 104.5 -23c18 0 34.333 2.33301 49 7s26 11.5 34 20.5s12 20.167 12 33.5c0 10 -2.5 19 -7.5 27
s-11.833 15 -20.5 21s-19 11.5 -31 16.5s-24.667 9.33301 -38 13s-27 6.83398 -41 9.50098c-38.667 8.66699 -72.334 19.334 -101.001 32.001s-52.5 28.167 -71.5 46.5s-33.167 39.333 -42.5 63s-14 50.167 -14 79.5c0 31.333 7.16699 60.166 21.5 86.499
s33.666 49 57.999 68s52.5 33.667 84.5 44s65.333 15.5 100 15.5c46 0 85.5 -4.83301 118.5 -14.5s61.333 -23.5 85 -41.5s43.834 -39.667 60.501 -65l-105 -101c-14 17.333 -29.167 31.666 -45.5 42.999s-33.666 20 -51.999 26s-37.166 9 -56.499 9
c-20 0 -37.167 -2.5 -51.5 -7.5s-25.5 -12 -33.5 -21s-12 -19.833 -12 -32.5c0 -11.333 3.33301 -21 10 -29s15.667 -15.167 27 -21.5s24.333 -11.666 39 -15.999s30 -7.83301 46 -10.5c36.667 -7.33301 69.834 -17 99.501 -29s55.334 -26.667 77.001 -44
s38.334 -37.833 50.001 -61.5s17.5 -51.167 17.5 -82.5c0 -48.667 -11.833 -89.834 -35.5 -123.501s-56 -59.334 -97 -77.001s-88.167 -26.5 -141.5 -26.5zM283.997 755.001l-134 107l50 56l147 -70h-30l147 70l50 -56l-134 -107h-96z" />
    <glyph glyph-name="scaron" unicode="&#x161;" horiz-adv-x="495" 
d="M250 -10c-52 0 -97.8369 8.33691 -137.504 25.0039s-71.167 39 -94.5 67l97 84c20.667 -20.667 44 -35.834 70 -45.501s50.667 -14.5 74 -14.5c9.33301 0 17.666 1 24.999 3s13.5 4.83301 18.5 8.5s8.83301 8 11.5 13s4 10.833 4 17.5c0 13.333 -6 23.666 -18 30.999
c-6 3.33301 -16 7.33301 -30 12s-32 10 -54 16c-31.333 8 -58.5 17.5 -81.5 28.5s-41.833 23.833 -56.5 38.5c-13.333 14 -23.666 29.5 -30.999 46.5s-11 36.167 -11 57.5c0 24.667 5.83301 47 17.5 67s27.334 37.333 47.001 52s42.334 25.834 68.001 33.501
s52.167 11.5 79.5 11.5c29.333 0 57.333 -3.33301 84 -10s51.5 -16 74.5 -28s43.5 -26.333 61.5 -43l-84 -94c-12 11.333 -25.5 21.5 -40.5 30.5s-30.5 16.167 -46.5 21.5s-30.667 8 -44 8c-10 0 -18.833 -0.833008 -26.5 -2.5s-14.167 -4.33398 -19.5 -8.00098
s-9.33301 -8 -12 -13s-4 -10.833 -4 -17.5s1.83301 -13 5.5 -19s8.83398 -11 15.501 -15s17.334 -8.5 32.001 -13.5s34.667 -11.167 60 -18.5c31.333 -8.66699 58.333 -18.334 81 -29.001s40.667 -23.334 54 -38.001c10.667 -11.333 18.667 -24.5 24 -39.5
s8 -31.167 8 -48.5c0 -34 -9.5 -64.167 -28.5 -90.5s-45.167 -47 -78.5 -62s-71.333 -22.5 -114 -22.5zM199.996 607.004l-140 129l58 50l145 -86h-30l145 86l58 -50l-140 -129h-96z" />
    <glyph glyph-name="uni0162" unicode="&#x162;" horiz-adv-x="655" 
d="M240 0v550h-208v150h591v-150h-213v-550h-170zM228 -246l-8.99805 75.0039c13.333 0 27.5 1.66699 42.5 5s27.833 8.16602 38.5 14.499s16 13.166 16 20.499c0 8 -3.83301 14.333 -11.5 19s-16.834 8.16699 -27.501 10.5s-21.334 3.5 -32.001 3.5l-18 14l69 108h82
l-45 -67c34.667 -4 60.334 -14.833 77.001 -32.5s25 -38.834 25 -63.501c0 -20.667 -6.33301 -37.834 -19 -51.501s-29.334 -24.834 -50.001 -33.501s-43 -14.667 -67 -18s-47.667 -4.66602 -71 -3.99902z" />
    <glyph glyph-name="uni0163" unicode="&#x163;" horiz-adv-x="398" 
d="M115 0v665h160v-665h-160zM21 391v140h357v-140h-357zM100 -246l-9.99805 75.0039c14 0 28.5 1.66699 43.5 5s27.667 8.16602 38 14.499s15.5 13.166 15.5 20.499c0 8 -3.83301 14.333 -11.5 19s-16.834 8.16699 -27.501 10.5s-21.334 3.5 -32.001 3.5l-17 14l69 108h82
l-46 -67c34.667 -4 60.5 -14.833 77.5 -32.5s25.5 -38.834 25.5 -63.501c0 -20.667 -6.5 -37.834 -19.5 -51.501s-29.833 -24.834 -50.5 -33.501s-43 -14.667 -67 -18s-47.333 -4.66602 -70 -3.99902z" />
    <glyph glyph-name="Tcaron" unicode="&#x164;" horiz-adv-x="655" 
d="M240 0v550h-208v150h591v-150h-213v-550h-170zM280 755l-134 107l50 56l147 -70h-30l147 70l50 -56l-134 -107h-96z" />
    <glyph glyph-name="tcaron" unicode="&#x165;" horiz-adv-x="398" 
d="M115 0v665h160v-665h-160zM21 391v140h357v-140h-357zM350 575l-39.9971 55.001c9.33301 3.33301 19.5 7.83301 30.5 13.5s20.667 12.5 29 20.5s12.5 16 12.5 24c0 5.33301 -1.83301 9.5 -5.5 12.5s-9.83398 6.5 -18.501 10.5c-14 5.33301 -24 12.166 -30 20.499
s-9 19.166 -9 32.499c0 21.333 7.66699 37.5 23 48.5s34.666 16.5 57.999 16.5c28 0 51.667 -8.16699 71 -24.5s29 -40.5 29 -72.5c0 -19.333 -3.5 -37.166 -10.5 -53.499s-17 -31 -30 -44s-28.833 -24.333 -47.5 -34s-39.334 -18.167 -62.001 -25.5z" />
    <glyph glyph-name="Tbar" unicode="&#x166;" horiz-adv-x="655" 
d="M169 292v119h325v-119h-325zM240 0v550h-208v150h591v-150h-213v-550h-170z" />
    <glyph glyph-name="tbar" unicode="&#x167;" horiz-adv-x="398" 
d="M35 195v119h325v-119h-325zM115 0v665h160v-665h-160zM21 391v140h357v-140h-357z" />
    <glyph glyph-name="Utilde" unicode="&#x168;" horiz-adv-x="765" 
d="M383 -6c-58 0 -109.667 11.833 -155 35.5s-80.833 56.167 -106.5 97.5s-38.5 88.666 -38.5 141.999v431h172v-422c0 -25.333 5.66699 -48.166 17 -68.499s26.666 -36.333 45.999 -48s41 -17.5 65 -17.5c25.333 0 47.833 5.83301 67.5 17.5s35.5 27.667 47.5 48
s18 43.166 18 68.499v422h166v-431c0 -53.333 -12.833 -100.666 -38.5 -141.999s-61.167 -73.833 -106.5 -97.5s-96.666 -35.5 -153.999 -35.5zM460 768c-13.333 0 -26.665 2 -39.998 6s-28 9.33301 -44 16c-12 6 -22.167 10.333 -30.5 13s-15.833 4 -22.5 4
c-9.33301 0 -16.833 -3.33301 -22.5 -10s-8.5 -16 -8.5 -28h-100c0 44 12.167 78.5 36.5 103.5s54.833 37.5 91.5 37.5c12 0 23.833 -1.66699 35.5 -5s26.5 -9 44.5 -17c10.667 -5.33301 19.667 -9.33301 27 -12s14 -4 20 -4c8.66699 0 15.5 3.5 20.5 10.5
s7.16699 16.167 6.5 27.5h99c0 -25.333 -4.83301 -49 -14.5 -71s-22.834 -39.333 -39.501 -52s-36.334 -19 -59.001 -19z" />
    <glyph glyph-name="utilde" unicode="&#x169;" horiz-adv-x="642" 
d="M252 -11c-39.333 0 -72.833 8.49902 -100.5 25.499s-49 41.5 -64 73.5s-22.5 70.333 -22.5 115v328h161v-306c0 -21.333 3.33301 -39.666 10 -54.999s16.667 -27.166 30 -35.499s29.333 -12.5 48 -12.5c14 0 26.833 2.33301 38.5 7s21.667 11.167 30 19.5
s14.833 18 19.5 29s7 23.167 7 36.5v317h161v-531h-151l-7 109l30 12c-8 -25.333 -21.333 -47.833 -40 -67.5s-41 -35.334 -67 -47.001s-53.667 -17.5 -83 -17.5zM390 613.999c-11.333 0 -23.0029 2.00195 -35.0029 6.00195s-25.667 11.333 -41 22
c-11.333 9.33301 -20.666 15.833 -27.999 19.5s-13.333 5.5 -18 5.5c-9.33301 0 -17.666 -3.83301 -24.999 -11.5s-12 -19.834 -14 -36.501l-89 13c0.666992 37.333 11.334 69.333 32.001 96s48.334 40 83.001 40c11.333 0 22.666 -2 33.999 -6s24.666 -11 39.999 -21
c8.66699 -7.33301 16.834 -13.5 24.501 -18.5s15.167 -7.5 22.5 -7.5c9.33301 0 17.5 4.16699 24.5 12.5s11.167 20.166 12.5 35.499l90 -13c-0.666992 -23.333 -5.66699 -45.5 -15 -66.5s-22.5 -37.833 -39.5 -50.5s-36.5 -19 -58.5 -19z" />
    <glyph glyph-name="Umacron" unicode="&#x16a;" horiz-adv-x="765" 
d="M383 -6c-58 0 -109.667 11.833 -155 35.5s-80.833 56.167 -106.5 97.5s-38.5 88.666 -38.5 141.999v431h172v-422c0 -25.333 5.66699 -48.166 17 -68.499s26.666 -36.333 45.999 -48s41 -17.5 65 -17.5c25.333 0 47.833 5.83301 67.5 17.5s35.5 27.667 47.5 48
s18 43.166 18 68.499v422h166v-431c0 -53.333 -12.833 -100.666 -38.5 -141.999s-61.167 -73.833 -106.5 -97.5s-96.666 -35.5 -153.999 -35.5zM203 789v101h359v-101h-359z" />
    <glyph glyph-name="umacron" unicode="&#x16b;" horiz-adv-x="642" 
d="M252 -11c-39.333 0 -72.833 8.49902 -100.5 25.499s-49 41.5 -64 73.5s-22.5 70.333 -22.5 115v328h161v-306c0 -21.333 3.33301 -39.666 10 -54.999s16.667 -27.166 30 -35.499s29.333 -12.5 48 -12.5c14 0 26.833 2.33301 38.5 7s21.667 11.167 30 19.5
s14.833 18 19.5 29s7 23.167 7 36.5v317h161v-531h-151l-7 109l30 12c-8 -25.333 -21.333 -47.833 -40 -67.5s-41 -35.334 -67 -47.001s-53.667 -17.5 -83 -17.5zM153 639.999v101h336v-101h-336z" />
    <glyph glyph-name="Ubreve" unicode="&#x16c;" horiz-adv-x="765" 
d="M383 -6c-58 0 -109.667 11.833 -155 35.5s-80.833 56.167 -106.5 97.5s-38.5 88.666 -38.5 141.999v431h172v-422c0 -25.333 5.66699 -48.166 17 -68.499s26.666 -36.333 45.999 -48s41 -17.5 65 -17.5c25.333 0 47.833 5.83301 67.5 17.5s35.5 27.667 47.5 48
s18 43.166 18 68.499v422h166v-431c0 -53.333 -12.833 -100.666 -38.5 -141.999s-61.167 -73.833 -106.5 -97.5s-96.666 -35.5 -153.999 -35.5zM383 757c-30 0 -57.333 6.33301 -82 19s-45.5 30.5 -62.5 53.5s-28.5 49.5 -34.5 79.5l102 12
c6.66699 -17.333 17 -31.666 31 -42.999s29.333 -17 46 -17s32 5.66699 46 17s24.333 25.666 31 42.999l102 -12c-6 -30 -17.5 -56.5 -34.5 -79.5s-37.667 -40.833 -62 -53.5s-51.833 -19 -82.5 -19z" />
    <glyph glyph-name="ubreve" unicode="&#x16d;" horiz-adv-x="642" 
d="M252 -11c-39.333 0 -72.833 8.49902 -100.5 25.499s-49 41.5 -64 73.5s-22.5 70.333 -22.5 115v328h161v-306c0 -21.333 3.33301 -39.666 10 -54.999s16.667 -27.166 30 -35.499s29.333 -12.5 48 -12.5c14 0 26.833 2.33301 38.5 7s21.667 11.167 30 19.5
s14.833 18 19.5 29s7 23.167 7 36.5v317h161v-531h-151l-7 109l30 12c-8 -25.333 -21.333 -47.833 -40 -67.5s-41 -35.334 -67 -47.001s-53.667 -17.5 -83 -17.5zM321 600.999c-46 0 -85.002 14.333 -117.002 43s-52.667 67.667 -62 117l102 12
c7.33301 -20.667 17.833 -37.167 31.5 -49.5s28.834 -18.5 45.501 -18.5s31.834 6.16699 45.501 18.5s24.167 28.833 31.5 49.5l102 -12c-9.33301 -49.333 -30 -88.333 -62 -117s-71 -43 -117 -43z" />
    <glyph glyph-name="Uring" unicode="&#x16e;" horiz-adv-x="765" 
d="M383 -6c-58 0 -109.667 11.833 -155 35.5s-80.833 56.167 -106.5 97.5s-38.5 88.666 -38.5 141.999v431h172v-422c0 -25.333 5.66699 -48.166 17 -68.499s26.666 -36.333 45.999 -48s41 -17.5 65 -17.5c25.333 0 47.833 5.83301 67.5 17.5s35.5 27.667 47.5 48
s18 43.166 18 68.499v422h166v-431c0 -53.333 -12.833 -100.666 -38.5 -141.999s-61.167 -73.833 -106.5 -97.5s-96.666 -35.5 -153.999 -35.5zM383 673c-23.333 0 -45.168 5.66699 -65.501 17s-36.666 26.333 -48.999 45s-18.5 38.667 -18.5 60
c0 24 6.16699 45.833 18.5 65.5s28.5 35.167 48.5 46.5s42 17 66 17c23.333 0 45 -5.66699 65 -17s36.167 -26.833 48.5 -46.5s18.5 -41.5 18.5 -65.5c0 -21.333 -6.16699 -41.333 -18.5 -60s-28.5 -33.667 -48.5 -45s-41.667 -17 -65 -17zM382.998 755c11.333 0 21 4 29 12
s12 17.333 12 28c0 12.667 -4.16699 22.834 -12.5 30.501s-17.833 11.5 -28.5 11.5c-11.333 0 -21 -3.83301 -29 -11.5s-12 -17.834 -12 -30.501c0 -10.667 4 -20 12 -28s17.667 -12 29 -12z" />
    <glyph glyph-name="uring" unicode="&#x16f;" horiz-adv-x="642" 
d="M252 -11c-39.333 0 -72.833 8.49902 -100.5 25.499s-49 41.5 -64 73.5s-22.5 70.333 -22.5 115v328h161v-306c0 -21.333 3.33301 -39.666 10 -54.999s16.667 -27.166 30 -35.499s29.333 -12.5 48 -12.5c14 0 26.833 2.33301 38.5 7s21.667 11.167 30 19.5
s14.833 18 19.5 29s7 23.167 7 36.5v317h161v-531h-151l-7 109l30 12c-8 -25.333 -21.333 -47.833 -40 -67.5s-41 -35.334 -67 -47.001s-53.667 -17.5 -83 -17.5zM321 603.999c-20.667 0 -40.334 5.33301 -59.001 16s-33.5 24.834 -44.5 42.501s-16.5 36.834 -16.5 57.501
c0 22 5.33301 41.833 16 59.5s25.334 31.834 44.001 42.501s38.667 16 60 16c22 0 42.167 -5.33301 60.5 -16s33 -24.834 44 -42.501s16.5 -37.5 16.5 -59.5c0 -20.667 -5.66699 -39.834 -17 -57.501s-26 -31.834 -44 -42.501s-38 -16 -60 -16zM321 684.999
c10.667 0 19.5 3.33496 26.5 10.002s10.5 15 10.5 25c0 11.333 -3.5 20.333 -10.5 27s-15.833 10 -26.5 10s-19.5 -3.33301 -26.5 -10s-10.5 -15.334 -10.5 -26.001s3.66699 -19.334 11 -26.001s16 -10 26 -10z" />
    <glyph glyph-name="Uhungarumlaut" unicode="&#x170;" horiz-adv-x="765" 
d="M383 -6c-58 0 -109.667 11.833 -155 35.5s-80.833 56.167 -106.5 97.5s-38.5 88.666 -38.5 141.999v431h172v-422c0 -25.333 5.66699 -48.166 17 -68.499s26.666 -36.333 45.999 -48s41 -17.5 65 -17.5c25.333 0 47.833 5.83301 67.5 17.5s35.5 27.667 47.5 48
s18 43.166 18 68.499v422h166v-431c0 -53.333 -12.833 -100.666 -38.5 -141.999s-61.167 -73.833 -106.5 -97.5s-96.666 -35.5 -153.999 -35.5zM261 753l-52 70l151 143l77 -98zM483 751l-50 72l157 141l77 -102z" />
    <glyph glyph-name="uhungarumlaut" unicode="&#x171;" horiz-adv-x="642" 
d="M252 -11c-39.333 0 -72.833 8.49902 -100.5 25.499s-49 41.5 -64 73.5s-22.5 70.333 -22.5 115v328h161v-306c0 -21.333 3.33301 -39.666 10 -54.999s16.667 -27.166 30 -35.499s29.333 -12.5 48 -12.5c14 0 26.833 2.33301 38.5 7s21.667 11.167 30 19.5
s14.833 18 19.5 29s7 23.167 7 36.5v317h161v-531h-151l-7 109l30 12c-8 -25.333 -21.333 -47.833 -40 -67.5s-41 -35.334 -67 -47.001s-53.667 -17.5 -83 -17.5zM368 589.999l-64 51l153 169l90 -90zM163 586.999l-67 48l141 176l95 -84z" />
    <glyph glyph-name="Uogonek" unicode="&#x172;" horiz-adv-x="765" 
d="M458 -211c-33.333 0 -61.167 10.166 -83.5 30.499s-33.5 47.166 -33.5 80.499c0 21.333 4.83301 41.333 14.5 60s23.334 35.834 41.001 51.501s38.167 30.334 61.5 44.001s48.333 27.167 75 40.5l35 -47c-16 -9.33301 -30.833 -18.833 -44.5 -28.5
s-25.834 -19.5 -36.501 -29.5s-19.167 -20.333 -25.5 -31s-9.5 -22 -9.5 -34c0 -10 2.66699 -18.167 8 -24.5s12 -9.5 20 -9.5c7.33301 0 13.5 2 18.5 6s9.83301 10 14.5 18l70 -51c-10 -20 -26 -37.667 -48 -53s-47.667 -23 -77 -23zM382.999 -6.00098
c-58 0 -109.667 11.833 -155 35.5s-80.833 56.167 -106.5 97.5s-38.5 88.666 -38.5 141.999v431h172v-422c0 -25.333 5.66699 -48.166 17 -68.499s26.666 -36.333 45.999 -48s41 -17.5 65 -17.5c25.333 0 47.833 5.83301 67.5 17.5s35.5 27.667 47.5 48s18 43.166 18 68.499
v422h166v-431c0 -53.333 -12.833 -100.666 -38.5 -141.999s-61.167 -73.833 -106.5 -97.5s-96.666 -35.5 -153.999 -35.5z" />
    <glyph glyph-name="uogonek" unicode="&#x173;" horiz-adv-x="642" 
d="M252 -11c-39.333 0 -72.833 8.49902 -100.5 25.499s-49 41.5 -64 73.5s-22.5 70.333 -22.5 115v328h161v-306c0 -21.333 3.33301 -39.666 10 -54.999s16.667 -27.166 30 -35.499s29.333 -12.5 48 -12.5c14 0 26.833 2.33301 38.5 7s21.667 11.167 30 19.5
s14.833 18 19.5 29s7 23.167 7 36.5v317h161v-531h-151l-7 109l30 12c-8 -25.333 -21.333 -47.833 -40 -67.5s-41 -35.334 -67 -47.001s-53.667 -17.5 -83 -17.5zM455 -211.001c-22.667 0 -43.1699 5 -61.5029 15s-32.666 23.333 -42.999 40s-15.5 35.334 -15.5 56.001
c0 17.333 3.5 33.166 10.5 47.499s17.667 27.5 32 39.5s32.333 23 54 33s46.834 18.667 75.501 26l40 -46c-18.667 -4 -35.667 -10.167 -51 -18.5s-27.5 -17.666 -36.5 -27.999s-13.5 -21.5 -13.5 -33.5c0 -8 2.5 -14.5 7.5 -19.5s11.5 -7.5 19.5 -7.5
c6.66699 0 12.5 1.83301 17.5 5.5s10.167 9.5 15.5 17.5l69 -51c-6 -12 -15 -23.833 -27 -35.5s-25.667 -21.334 -41 -29.001s-32.666 -11.5 -51.999 -11.5z" />
    <glyph glyph-name="Wcircumflex" unicode="&#x174;" horiz-adv-x="993" 
d="M214 0l-210 699.999h173l105 -368c4.66699 -16.667 8.83398 -33.5 12.501 -50.5s6.66699 -33.167 9 -48.5s4.16602 -29.5 5.49902 -42.5s2.66602 -23.833 3.99902 -32.5h-22l10.5 66c3 19.333 6.5 37.5 10.5 54.5s9 34.833 15 53.5l104 277h136l102 -277
c8 -22 14.667 -42.667 20 -62s9.5 -37.833 12.5 -55.5s5.5 -35.167 7.5 -52.5l-20 -3c1.33301 12 2.33301 23.167 3 33.5s1.5 20.333 2.5 30s2.16699 19.834 3.5 30.501s3.33301 22.5 6 35.5s6.33398 27.833 11.001 44.5l104 367h169l-210 -700h-130l-166 403l19 -2
l-153 -401h-134zM364 753.999l-49 57l136 106h90l136 -106l-49 -57l-147 71h30z" />
    <glyph glyph-name="wcircumflex" unicode="&#x175;" horiz-adv-x="834" 
d="M187 0l-175 531h169l98 -345l-21 4l110 268h94l116 -269l-23 -2l98 344h169l-181 -531h-118l-115 285l12 -2l-115 -283h-118zM283 601l-58 50l144 129h96l144 -129l-58 -50l-149 86h30z" />
    <glyph glyph-name="Ycircumflex" unicode="&#x176;" horiz-adv-x="689" 
d="M269 0v349l7 -49l-283 400h193l216 -310l-88 3l195 307h187l-271 -411l15 68v-357h-171zM212 754l-49 57l136 106h90l136 -106l-49 -57l-147 71h30z" />
    <glyph glyph-name="ycircumflex" unicode="&#x177;" horiz-adv-x="620" 
d="M138 -230l121 284.999l2 -82l-256 558h181l112 -267c6 -13.333 11.667 -27.666 17 -42.999s9.33301 -30 12 -44l-22 -13c4 10 8.5 22.5 13.5 37.5l16.5 48.5l98 281h182l-226 -531l-92 -230h-159zM177 600.999l-58 50l144 129h96l144 -129l-58 -50l-149 86h30z" />
    <glyph glyph-name="Ydieresis" unicode="&#x178;" horiz-adv-x="689" 
d="M269 0v349l7 -49l-283 400h193l216 -310l-88 3l195 307h187l-271 -411l15 68v-357h-171zM466 754c-28.667 0 -50.333 7.5 -65 22.5s-22 35.833 -22 62.5c0 24 7.66699 44.167 23 60.5s36.666 24.5 63.999 24.5c28 0 49.5 -7.5 64.5 -22.5s22.5 -35.833 22.5 -62.5
c0 -24 -7.66699 -44.167 -23 -60.5s-36.666 -24.5 -63.999 -24.5zM223.001 754c-28.667 0 -50.333 7.5 -65 22.5s-22 35.833 -22 62.5c0 24 7.5 44.167 22.5 60.5s36.5 24.5 64.5 24.5s49.333 -7.5 64 -22.5s22 -35.833 22 -62.5c0 -24 -7.5 -44.167 -22.5 -60.5
s-36.167 -24.5 -63.5 -24.5z" />
    <glyph glyph-name="Zacute" unicode="&#x179;" horiz-adv-x="683" 
d="M60 0v113l376 500l59 -69h-409v156h528v-112l-374 -501l-60 62h445v-149h-565zM254 748l-37 80l209 115l55 -117z" />
    <glyph glyph-name="zacute" unicode="&#x17a;" horiz-adv-x="550" 
d="M50 0v92l282 362v-53h-282v130h440v-96l-267 -351l-4 46h280v-130h-449zM196 589l-47 73l179 142l73 -105z" />
    <glyph glyph-name="Zdotaccent" unicode="&#x17b;" horiz-adv-x="683" 
d="M60 0v113l376 500l59 -69h-409v156h528v-112l-374 -501l-60 62h445v-149h-565zM342 756c-30.667 0 -54.167 7.33301 -70.5 22s-24.5 35 -24.5 61c0 23.333 8.33301 43 25 59s40 24 70 24c30.667 0 54.167 -7.33301 70.5 -22s24.5 -35 24.5 -61
c0 -23.333 -8.33301 -43 -25 -59s-40 -24 -70 -24z" />
    <glyph glyph-name="zdotaccent" unicode="&#x17c;" horiz-adv-x="550" 
d="M50 0v92l282 362v-53h-282v130h440v-96l-267 -351l-4 46h280v-130h-449zM275 636c-30 0 -53.333 7.16699 -70 21.5s-25 34.833 -25 61.5c0 24 8.5 43.833 25.5 59.5s40.167 23.5 69.5 23.5c30 0 53.333 -7.16699 70 -21.5s25 -34.833 25 -61.5
c0 -24.667 -8.5 -44.667 -25.5 -60s-40.167 -23 -69.5 -23z" />
    <glyph glyph-name="Zcaron" unicode="&#x17d;" horiz-adv-x="683" 
d="M60 0v113l376 500l59 -69h-409v156h528v-112l-374 -501l-60 62h445v-149h-565zM294 755l-134 107l50 56l147 -70h-30l147 70l50 -56l-134 -107h-96z" />
    <glyph glyph-name="zcaron" unicode="&#x17e;" horiz-adv-x="550" 
d="M50 0v92l282 362v-53h-282v130h440v-96l-267 -351l-4 46h280v-130h-449zM227 607l-140 129l58 50l145 -86h-30l145 86l58 -50l-140 -129h-96z" />
    <glyph glyph-name="uni018F" unicode="&#x18f;" horiz-adv-x="771" 
d="M385 -10c-45.333 0 -88.168 8 -128.501 24s-76 38.667 -107 68s-56 63.666 -75 102.999s-29.5 82 -31.5 128v100h638l9 -137h-468c6 -20 14.333 -37.833 25 -53.5s23.167 -29.167 37.5 -40.5s30.166 -20.166 47.499 -26.499s35 -9.5 53 -9.5c25.333 0 48.333 4.5 69 13.5
s38.834 22.333 54.501 40s27.667 39.167 36 64.5s12.5 54.333 12.5 87c0 30.667 -4.5 58.5 -13.5 83.5s-21.667 46.5 -38 64.5s-35.833 31.667 -58.5 41s-48 14 -76 14c-26 0 -49.667 -2.33301 -71 -7s-41.5 -12 -60.5 -22s-38.5 -22.667 -58.5 -38l-74 128
c29.333 22 57.5 40 84.5 54s55.833 24.333 86.5 31s65.334 10 104.001 10c47.333 0 91.833 -9.33301 133.5 -28s78.334 -44.5 110.001 -77.5s56.5 -71.167 74.5 -114.5s27 -90 27 -140s-8.83301 -96.667 -26.5 -140s-42.334 -81.5 -74.001 -114.5s-68 -58.833 -109 -77.5
s-85.167 -28 -132.5 -28z" />
    <glyph glyph-name="florin" unicode="&#x192;" horiz-adv-x="557" 
d="M111 -31c-21.333 0 -42 2.66309 -62 7.99609s-37.667 13.333 -53 24l53 127c10.667 -5.33301 20.167 -9.16602 28.5 -11.499s18.166 -3.5 29.499 -3.5c10 0 18.667 2.83301 26 8.5s13.5 14 18.5 25s9.16699 24.833 12.5 41.5l57 334c10 60.667 32.667 105.334 68 134.001
s82 43 140 43c24.667 0 47.667 -3 69 -9s42 -15.333 62 -28l-54 -125c-12 7.33301 -22.667 12.333 -32 15s-19 4 -29 4c-20 0 -35 -5.66699 -45 -17s-17 -27.666 -21 -48.999l-58 -335c-11.333 -63.333 -34.666 -110.166 -69.999 -140.499s-82 -45.5 -140 -45.5zM86 309.996
v129l386 -1v-129z" />
    <glyph glyph-name="uni019D" unicode="&#x19d;" horiz-adv-x="797" 
d="M18 -203l-66.998 124.998c42.667 0 74.5 10 95.5 30s31.5 49.667 31.5 89v659h152l367 -500l-33 5c-4 28 -7.16699 54 -9.5 78s-4.33301 48.333 -6 73s-2.83398 50.667 -3.50098 78s-1 58.333 -1 93v173h165v-700h-154l-383 516l51 -7
c3.33301 -26.667 6.16602 -51.167 8.49902 -73.5s4.33301 -43.166 6 -62.499s3 -38 4 -56s1.5 -35.833 1.5 -53.5v-56.5v-204c0 -47.333 -8.5 -86.166 -25.5 -116.499s-42.5 -52.833 -76.5 -67.5s-75 -22 -123 -22z" />
    </font>
</defs>
</svg>
